<svg width="26" height="26" viewBox="0 0 26 26" fill="none" xmlns="http://www.w3.org/2000/svg">
<path d="M13.0296 0H12.9704C5.80705 0 0 5.80705 0 12.9704V13.0296C0 20.193 5.80705 26 12.9704 26H13.0296C20.193 26 26 20.193 26 13.0296V12.9704C26 5.80705 20.193 0 13.0296 0Z" fill="#08131E"/>
<path d="M11.994 13.4892C11.7681 13.2058 11.5094 12.989 11.2197 12.8424C11.4757 12.6866 11.6961 12.4954 11.8783 12.2675C12.1853 11.8832 12.341 11.4013 12.341 10.8347C12.341 10.362 12.2162 9.92747 11.9694 9.54398C11.7234 9.16048 11.3572 8.85261 10.8808 8.62852C10.4144 8.40898 9.85242 8.29785 9.21205 8.29785H5.56934V17.7048H9.37966C10.0036 17.7048 10.5611 17.591 11.0357 17.3669C11.5194 17.1391 11.8965 16.8203 12.1552 16.4204C12.4149 16.0187 12.5469 15.5624 12.5469 15.064C12.5469 14.4801 12.3611 13.9501 11.994 13.4892ZM10.0592 11.7748C9.8342 11.9569 9.50537 12.0499 9.08361 12.0499H7.50774V9.96573H9.08361C9.50355 9.96573 9.83056 10.0614 10.0556 10.2508C10.2714 10.4321 10.3762 10.6826 10.3762 11.0142C10.3762 11.3457 10.2723 11.6026 10.0592 11.7748ZM7.50774 13.7187H9.19929C9.64199 13.7187 9.98268 13.8262 10.2405 14.0476C10.4873 14.2598 10.6076 14.5412 10.6076 14.9093C10.6076 15.2772 10.4964 15.5369 10.2669 15.7309C10.0291 15.9322 9.68755 16.0342 9.25031 16.0342H7.50774V13.7187Z" fill="white"/>
<path d="M19.9889 11.9157C19.6957 11.3856 19.2803 10.9675 18.7538 10.6742C18.2282 10.3809 17.6206 10.2324 16.9502 10.2324C16.2797 10.2324 15.6267 10.3855 15.0883 10.687C14.5491 10.9894 14.1246 11.4239 13.8276 11.9805C13.5306 12.5361 13.3804 13.1884 13.3804 13.9188C13.3804 14.6494 13.5352 15.3025 13.8413 15.8573C14.1474 16.413 14.5755 16.8502 15.1147 17.1562C15.6531 17.4623 16.2707 17.6172 16.9511 17.6172C17.7864 17.6172 18.496 17.4049 19.0608 16.9868C19.6256 16.5687 20.0209 16.024 20.2367 15.369L20.2522 15.3226H18.5999L18.5898 15.3426C18.2719 15.9866 17.7208 16.3127 16.9502 16.3127C16.4137 16.3127 15.9546 16.1423 15.5857 15.808C15.2258 15.4811 15.0191 15.0439 14.9708 14.5073H20.3743L20.3788 14.4772C20.4135 14.2614 20.4308 14.0173 20.4308 13.7522C20.4308 13.0636 20.2823 12.4459 19.9889 11.9157ZM15.6112 12.0106C15.9628 11.6963 16.3918 11.5378 16.8855 11.5378C17.4311 11.5378 17.8948 11.699 18.2638 12.0177C18.6227 12.3275 18.813 12.7438 18.8294 13.2539H14.9863C15.0591 12.7356 15.2687 12.3166 15.6112 12.0106Z" fill="white"/>
<path d="M18.7049 8.51465H15.106V9.36752H18.7049V8.51465Z" fill="white"/>
</svg>
