<svg width="26" height="26" viewBox="0 0 26 26" fill="none" xmlns="http://www.w3.org/2000/svg">
<path d="M26 13.0005C26 19.5663 21.1331 24.9943 14.8105 25.8752C14.2193 25.9572 13.6144 26 13.0005 26C12.2918 26 11.5958 25.9436 10.9181 25.8342C4.7276 24.8377 0 19.4706 0 13.0005C0 5.8207 5.82069 0 12.9995 0C20.1784 0 26 5.8207 26 13.0005Z" fill="#1877F2"/>
<path d="M14.8098 10.4384V13.2705H18.3131L17.7584 17.0853H14.8098V25.8746C14.2186 25.9566 13.6138 25.9994 12.9999 25.9994C12.2912 25.9994 11.5952 25.943 10.9175 25.8337V17.0853H7.68652V13.2705H10.9175V9.80532C10.9175 7.65558 12.6601 5.91211 14.8107 5.91211V5.91393C14.8171 5.91393 14.8225 5.91211 14.8289 5.91211H18.314V9.21141H16.0368C15.36 9.21141 14.8098 9.76161 14.8098 10.4384Z" fill="white"/>
</svg>
