<svg width="26" height="26" viewBox="0 0 26 26" fill="none" xmlns="http://www.w3.org/2000/svg">
<path d="M13.0296 0H12.9704C5.80706 0 0 5.80705 0 12.9704V13.0296C0 20.193 5.80706 26 12.9704 26H13.0296C20.193 26 26 20.193 26 13.0296V12.9704C26 5.80705 20.193 0 13.0296 0Z" fill="#007EBB"/>
<path d="M6.20033 8.64286C5.85783 8.32496 5.6875 7.93145 5.6875 7.46324C5.6875 6.99503 5.85874 6.58422 6.20033 6.2654C6.54283 5.94749 6.98371 5.78809 7.52388 5.78809C8.06404 5.78809 8.48763 5.94749 8.82921 6.2654C9.17172 6.5833 9.34205 6.98319 9.34205 7.46324C9.34205 7.94329 9.1708 8.32496 8.82921 8.64286C8.48672 8.96077 8.0522 9.12018 7.52388 9.12018C6.99556 9.12018 6.54283 8.96077 6.20033 8.64286ZM9.0542 10.4665V20.2132H5.97443V10.4665H9.0542Z" fill="#FEFFFC"/>
<path d="M19.3066 11.429C19.978 12.1577 20.3131 13.158 20.3131 14.4313V20.0408H17.3883V14.8267C17.3883 14.1845 17.2216 13.6854 16.8891 13.3301C16.5566 12.9748 16.1084 12.7963 15.5473 12.7963C14.9862 12.7963 14.5381 12.9739 14.2056 13.3301C13.873 13.6854 13.7063 14.1845 13.7063 14.8267V20.0408H10.7642V10.4389H13.7063V11.7123C14.0042 11.2878 14.4059 10.9526 14.9106 10.7058C15.4153 10.4589 15.9827 10.3359 16.614 10.3359C17.738 10.3359 18.6361 10.7003 19.3066 11.429Z" fill="#FEFFFC"/>
</svg>
