<svg width="26" height="26" viewBox="0 0 26 26" fill="none" xmlns="http://www.w3.org/2000/svg">
<path d="M13.0296 0H12.9704C5.80706 0 0 5.80705 0 12.9704V13.0296C0 20.193 5.80706 26 12.9704 26H13.0296C20.193 26 26 20.193 26 13.0296V12.9704C26 5.80705 20.193 0 13.0296 0Z" fill="url(#paint0_linear_41_404)"/>
<path d="M17.0232 5.29004H8.97804C6.75542 5.29004 4.94727 7.09819 4.94727 9.3208V16.681C4.94727 18.9036 6.75542 20.7117 8.97804 20.7117H17.0232C19.2457 20.7117 21.0539 18.9036 21.0539 16.681V9.3208C21.0539 7.09819 19.2457 5.29004 17.0232 5.29004ZM6.36919 9.3208C6.36919 7.88247 7.53971 6.71197 8.97804 6.71197H17.0232C18.4615 6.71197 19.632 7.88247 19.632 9.3208V16.681C19.632 18.1193 18.4615 19.2898 17.0232 19.2898H8.97804C7.53971 19.2898 6.36919 18.1193 6.36919 16.681V9.3208Z" fill="white"/>
<path d="M13.0008 16.7476C15.0677 16.7476 16.7501 15.0661 16.7501 12.9984C16.7501 10.9306 15.0685 9.24902 13.0008 9.24902C10.933 9.24902 9.25146 10.9306 9.25146 12.9984C9.25146 15.0661 10.933 16.7476 13.0008 16.7476ZM13.0008 10.6719C14.2842 10.6719 15.3281 11.7158 15.3281 12.9992C15.3281 14.2826 14.2842 15.3266 13.0008 15.3266C11.7173 15.3266 10.6734 14.2826 10.6734 12.9992C10.6734 11.7158 11.7173 10.6719 13.0008 10.6719Z" fill="white"/>
<path d="M17.0976 9.85632C17.6542 9.85632 18.1078 9.4036 18.1078 8.84612C18.1078 8.28866 17.655 7.83594 17.0976 7.83594C16.5401 7.83594 16.0874 8.28866 16.0874 8.84612C16.0874 9.4036 16.5401 9.85632 17.0976 9.85632Z" fill="white"/>
<defs>
<linearGradient id="paint0_linear_41_404" x1="3.79849" y1="22.2015" x2="22.2015" y2="3.79935" gradientUnits="userSpaceOnUse">
<stop stop-color="#FAAD4F"/>
<stop offset="0.35" stop-color="#DD2A7B"/>
<stop offset="0.62" stop-color="#9537B0"/>
<stop offset="1" stop-color="#515BD4"/>
</linearGradient>
</defs>
</svg>
