<svg width="26" height="26" viewBox="0 0 26 26" fill="none" xmlns="http://www.w3.org/2000/svg">
<path d="M25.9983 13.0005C25.9983 19.5662 21.1314 24.9944 14.809 25.8752C14.2178 25.9572 13.6131 26 12.9991 26C12.2904 26 11.5945 25.9435 10.9168 25.8342C4.72744 24.8377 0 19.4707 0 13.0005C0 5.82069 5.82049 0 13.0001 0C20.1796 0 26 5.82069 26 13.0005H25.9983Z" fill="#191919"/>
<path d="M5.27221 5.7334L11.2676 13.7494L5.23486 20.267H6.59299L11.8752 14.5609L16.1426 20.267H20.7635L14.4311 11.8L20.0466 5.7334H18.6885L13.8244 10.9884L9.89399 5.7334H5.27221ZM7.26884 6.73357H9.39119L18.765 19.2667H16.6426L7.26884 6.73357Z" fill="white"/>
</svg>
