<svg width="43" height="30" viewBox="0 0 43 30" fill="none" xmlns="http://www.w3.org/2000/svg">
<path d="M42.1328 1.42823H39.9905V0.714116C39.9905 0.321352 39.6691 0 39.2764 0H38.8336C36.5627 0 34.2133 0.521304 31.8424 1.56391C30.9926 1.94239 29.8286 2.14235 28.5646 2.14235C27.3006 2.14235 26.1438 1.93525 25.2868 1.55677C22.916 0.521305 20.5665 0 18.2956 0H17.8529C17.4601 0 17.1388 0.321352 17.1388 0.714116V1.99238C15.9034 1.18543 14.4323 0.714116 12.8541 0.714116C9.25494 0.714116 6.22709 3.14925 5.29874 6.44847C5.19876 6.43418 5.09879 6.42704 4.99881 6.42704C3.82052 6.42704 2.85646 7.3911 2.85646 8.56939C2.85646 9.74768 3.82052 10.7117 4.99881 10.7117C4.99881 11.4973 5.64151 12.14 6.42704 12.14H7.14116V12.397C7.14116 13.8253 7.99095 15.1178 9.30493 15.682L9.99762 15.9819V16.4318H8.56939C4.23471 16.4318 0.714116 19.9524 0.714116 24.2871V28.5718H0V30H35.7058V28.5718H33.7991L36.3985 19.4811C36.4627 19.2668 36.4199 19.0312 36.2842 18.8527C36.1485 18.6741 35.9343 18.567 35.7129 18.567H22.5232C21.0593 17.1888 19.1669 16.4247 17.1459 16.4247H15.7177V15.9748L16.339 15.7105H42.1328C42.5256 15.7105 42.8469 15.3892 42.8469 14.9964V2.14235C42.8469 1.74958 42.5256 1.42823 42.1328 1.42823ZM26.4223 23.5658C26.815 23.5658 27.1364 23.8872 27.1364 24.2799C27.1364 24.6727 26.815 24.9941 26.4223 24.9941V23.5658ZM7.14116 8.56939V10.7117H6.42704V8.56939C6.42704 5.02737 9.31207 2.14235 12.8541 2.14235C16.3961 2.14235 19.2811 5.02737 19.2811 8.56939V10.8403L18.567 10.9831V8.56939C18.567 5.8129 16.3247 3.57058 13.5682 3.57058H12.14C9.38348 3.57058 7.14116 5.8129 7.14116 8.56939ZM17.1388 17.8529C18.1814 17.8529 19.174 18.1028 20.0738 18.567H19.9952C19.6739 18.567 19.3954 18.7812 19.3097 19.0883L16.6032 28.5646H12.8541V27.8505C12.8541 26.6722 11.89 25.7082 10.7117 25.7082H6.42704V23.8586L7.64818 22.6375L6.64128 21.6306L5.21305 23.0588C5.07736 23.1945 5.00595 23.373 5.00595 23.5658V26.4223C5.00595 26.815 5.3273 27.1364 5.72007 27.1364H8.57653V28.5646H2.14235V24.2799C2.14235 20.7379 5.02737 17.8529 8.56939 17.8529H10.0905C10.4047 19.0812 11.5258 19.9952 12.8541 19.9952C14.1823 19.9952 15.3035 19.0812 15.6177 17.8529H17.1388ZM17.1388 11.2687L12.7113 12.1543L12.9898 13.5539L17.1102 12.7327C16.996 13.4539 16.5246 14.0752 15.8391 14.368L13.6967 15.2892C13.1612 15.5177 12.547 15.5177 12.0114 15.2892L9.86908 14.368C9.08355 14.0324 8.56939 13.254 8.56939 12.397V9.8548C8.94073 9.94763 9.33349 9.99762 9.75482 9.99762C11.583 9.99762 12.5184 9.14068 13.3397 8.37658C14.0895 7.68389 14.6822 7.14116 15.9462 7.14116C16.2961 7.14116 16.5961 7.19829 16.8888 7.28398C17.0459 7.68389 17.1388 8.11236 17.1388 8.56939V11.2687ZM20.0238 14.2823C20.7451 13.9038 21.9662 13.5682 23.5658 13.5682C25.1654 13.5682 26.3866 13.9038 27.1078 14.2823H20.0238ZM27.8505 13.0469C26.7508 12.447 25.1512 12.14 23.5658 12.14C21.3378 12.14 19.0955 12.747 18.2314 13.911C18.4456 13.4611 18.5599 12.9612 18.567 12.4399L19.5668 12.2399C20.2309 12.1043 20.7165 11.5187 20.7165 10.8403V10.7117C21.8948 10.7117 22.8588 9.74768 22.8588 8.56939C22.8588 7.3911 21.8948 6.42704 20.7165 6.42704C20.6165 6.42704 20.5165 6.43418 20.4166 6.44847C20.0667 5.21305 19.4311 4.10617 18.5742 3.1921V1.42823C20.5594 1.47108 22.6303 1.94954 24.7227 2.8636C25.5796 3.24209 26.6794 3.4706 27.8577 3.53487V13.0398L27.8505 13.0469ZM30.0214 14.2823C30.7427 13.9038 31.9638 13.5682 33.5634 13.5682C35.1631 13.5682 36.3842 13.9038 37.1055 14.2823H30.0214ZM38.5622 13.5396C37.5339 12.6184 35.5415 12.14 33.5634 12.14C31.9781 12.14 30.3785 12.447 29.2787 13.0469V3.54201C30.4642 3.4706 31.5568 3.24923 32.4137 2.87075C34.5061 1.95668 36.577 1.47108 38.5622 1.43537V13.5396ZM41.4187 14.2823H39.9905V2.85646H41.4187V14.2823Z" fill="#3B97D3" fill-opacity="0.827451"/>
</svg>
