<svg width="28" height="30" viewBox="0 0 28 30" fill="none" xmlns="http://www.w3.org/2000/svg">
<path fill-rule="evenodd" clip-rule="evenodd" d="M10 13.5C10 13.7755 10.224 14 10.5 14C10.776 14 11 13.7755 11 13.5C11 13.2245 10.776 13 10.5 13C10.224 13 10 13.2245 10 13.5ZM11 22.5C11 22.2245 10.776 22 10.5 22C10.224 22 10 22.2245 10 22.5C10 22.7755 10.224 23 10.5 23C10.776 23 11 22.7755 11 22.5ZM7 13.5C7 13.2245 6.776 13 6.5 13C6.224 13 6 13.2245 6 13.5C6 13.7755 6.224 14 6.5 14C6.776 14 7 13.7755 7 13.5ZM7 19.5C7 19.2245 6.776 19 6.5 19C6.224 19 6 19.2245 6 19.5C6 19.7755 6.224 20 6.5 20C6.776 20 7 19.7755 7 19.5ZM10 8.5C10 8.7755 10.224 9 10.5 9C10.776 9 11 8.7755 11 8.5C11 8.2245 10.776 8 10.5 8C10.224 8 10 8.2245 10 8.5ZM7 9V12.092C7.424 12.243 7.757 12.5765 7.9075 13H9.0925C9.2995 12.419 9.849 12 10.5 12C11.327 12 12 12.673 12 13.5C12 14.151 11.5805 14.7005 11 14.908V21.092C11.5805 21.2995 12 21.849 12 22.5C12 23.151 11.5805 23.7005 11 23.908V25.5C11 25.776 10.7765 26 10.5 26C10.2235 26 10 25.776 10 25.5V23.9075C9.4895 23.726 9.109 23.279 9.0235 22.73L7.1465 20.8535C7.145 20.8525 7.145 20.8505 7.1435 20.849C6.948 20.943 6.7315 21 6.5 21C5.673 21 5 20.327 5 19.5C5 18.673 5.673 18 6.5 18C7.327 18 8 18.673 8 19.5C8 19.731 7.943 19.948 7.849 20.1435C7.8505 20.145 7.852 20.1455 7.8535 20.1465L9.307 21.6005C9.4825 21.3685 9.7215 21.1915 10 21.092V14.9075C9.576 14.757 9.243 14.4235 9.0925 14H7.9075C7.7005 14.581 7.151 15 6.5 15C5.673 15 5 14.327 5 13.5C5 12.849 5.4195 12.2995 6 12.092V8.5C6 8.224 6.2235 8 6.5 8H9.0925C9.243 7.5765 9.576 7.243 10 7.092V5.5C10 5.224 10.2235 5 10.5 5C10.7765 5 11 5.224 11 5.5V7.092C11.5805 7.2995 12 7.849 12 8.5C12 9.327 11.327 10 10.5 10C9.849 10 9.2995 9.581 9.0925 9H7ZM26.8165 18.6225C27.561 17.968 28 17.021 28 16C28 14.93 27.5245 13.947 26.7075 13.287C26.9 12.8855 27 12.448 27 12C27 10.968 26.4585 10.0175 25.604 9.475C25.862 9.0255 26 8.5185 26 8C26 6.71 25.1805 5.5885 23.9945 5.1745C23.998 5.116 24 5.058 24 5C24 3.3455 22.6545 2 21 2C20.5965 2 20.2035 2.082 19.8365 2.24C19.4065 0.938 18.17 0 16.75 0C14.646 0 13.7105 1.898 13.51 2.902C13.5065 2.9185 13.511 2.9345 13.51 2.9515C13.5085 2.9685 13.5 2.9825 13.5 3V26.47C13.387 27.8895 12.1815 29 10.75 29C9.3235 29 8.1215 27.8855 8.013 26.462C7.993 26.2015 7.761 26 7.5 26C7.344 26 7.197 26.073 7.102 26.197C6.714 26.7075 6.13 27 5.5 27C4.397 27 3.5 26.103 3.5 25C3.5 24.546 3.658 24.112 3.958 23.7445C4.093 23.579 4.108 23.3455 3.9945 23.164C3.8815 22.9825 3.6675 22.8925 3.4565 22.942C3.289 22.981 3.1395 23 3 23C1.897 23 1 22.103 1 21C1 20.1755 1.5235 19.4255 2.302 19.1335C2.4875 19.064 2.6145 18.892 2.626 18.695C2.6375 18.4975 2.5315 18.3115 2.3565 18.221C1.5195 17.7895 1 16.938 1 16C1 15.118 1.4535 14.318 2.2135 13.86C2.332 13.7885 2.4155 13.671 2.4445 13.5355C2.473 13.3995 2.444 13.2585 2.3645 13.145C2.126 12.8045 2 12.409 2 12C2 11.1695 2.529 10.418 3.3155 10.1295C3.471 10.0725 3.5885 9.942 3.629 9.7815C3.669 9.6205 3.6265 9.45 3.516 9.3265C3.183 8.955 3 8.484 3 8C3 7.031 3.6945 6.2055 4.6505 6.0365C4.7845 6.0125 4.904 5.935 4.9795 5.8215C5.055 5.708 5.081 5.5685 5.052 5.4355C5.017 5.2795 5 5.137 5 5C5 3.897 5.897 3 7 3C7.433 3 7.8505 3.1445 8.208 3.418C8.3535 3.529 8.548 3.552 8.7145 3.478C8.882 3.4035 8.995 3.244 9.0105 3.062C9.1055 1.906 10.0895 1 11.25 1C11.807 1 12.2675 1.179 12.6575 1.547C12.859 1.7365 13.1755 1.727 13.3645 1.526C13.554 1.325 13.545 1.009 13.344 0.8195C12.7675 0.2755 12.063 0 11.25 0C9.83 0 8.5935 0.938 8.1635 2.24C7.7965 2.082 7.4035 2 7 2C5.3455 2 4 3.3455 4 5C4 5.058 4.002 5.116 4.0055 5.1745C2.8195 5.5885 2 6.71 2 8C2 8.5185 2.138 9.0255 2.396 9.475C1.5415 10.0175 1 10.968 1 12C1 12.448 1.1 12.8855 1.2925 13.287C0.4755 13.947 0 14.93 0 16C0 17.021 0.439 17.968 1.1835 18.6225C0.453 19.181 0 20.058 0 21C0 22.5465 1.1765 23.8235 2.6815 23.983C2.5615 24.307 2.5 24.649 2.5 25C2.5 26.6545 3.8455 28 5.5 28C6.121 28 6.712 27.8115 7.208 27.466C7.718 28.943 9.1275 30 10.75 30C12.704 30 14.3505 28.479 14.4985 26.538C14.499 26.5315 14.496 26.5255 14.496 26.519C14.4965 26.512 14.5 26.507 14.5 26.5V3.055C14.574 2.748 15.0675 1 16.75 1C17.9105 1 18.8945 1.906 18.9895 3.062C19.005 3.244 19.118 3.4035 19.2855 3.478C19.452 3.552 19.6465 3.529 19.792 3.418C20.1495 3.1445 20.567 3 21 3C22.103 3 23 3.897 23 5C23 5.137 22.983 5.2795 22.948 5.4355C22.919 5.5685 22.945 5.708 23.0205 5.8215C23.096 5.935 23.2155 6.0125 23.3495 6.0365C24.3055 6.2055 25 7.031 25 8C25 8.484 24.817 8.955 24.484 9.3265C24.3735 9.45 24.331 9.6205 24.371 9.7815C24.4115 9.942 24.529 10.0725 24.6845 10.1295C25.471 10.418 26 11.1695 26 12C26 12.409 25.874 12.8045 25.6355 13.145C25.556 13.2585 25.527 13.3995 25.5555 13.5355C25.5845 13.671 25.668 13.7885 25.7865 13.86C26.5465 14.318 27 15.118 27 16C27 16.938 26.4805 17.7895 25.6435 18.221C25.4685 18.3115 25.3625 18.4975 25.374 18.695C25.3855 18.892 25.5125 19.064 25.698 19.1335C26.4765 19.4255 27 20.1755 27 21C27 22.103 26.103 23 25 23C24.8605 23 24.711 22.981 24.5435 22.942C24.3335 22.8925 24.119 22.9825 24.0055 23.164C23.892 23.3455 23.907 23.579 24.042 23.7445C24.342 24.112 24.5 24.546 24.5 25C24.5 26.103 23.603 27 22.5 27C21.868 27 21.285 26.704 20.901 26.1875C20.772 26.015 20.5475 25.9445 20.343 26.0115C20.269 26.036 20.204 26.0765 20.1515 26.128C20.0585 26.211 19.997 26.329 19.987 26.462C19.8785 27.8855 18.6765 29 17.25 29C16.6215 29 16.0285 28.7935 15.535 28.403C15.3175 28.2315 15.004 28.2685 14.8325 28.4845C14.661 28.701 14.698 29.0155 14.914 29.187C15.5765 29.711 16.4065 30 17.25 30C18.8735 30 20.284 28.941 20.793 27.4625C21.2875 27.8105 21.8775 28 22.5 28C24.1545 28 25.5 26.6545 25.5 25C25.5 24.649 25.4385 24.307 25.3185 23.983C26.8235 23.8235 28 22.5465 28 21C28 20.058 27.547 19.181 26.8165 18.6225ZM18 22.5C18 22.776 18.2235 23 18.5 23C19.229 23 20 23.771 20 24.5C20 24.776 20.2235 25 20.5 25C20.7765 25 21 24.776 21 24.5C21 23.215 19.785 22 18.5 22C18.2235 22 18 22.224 18 22.5ZM22.5 9C21.771 9 21 8.229 21 7.5C21 7.224 20.7765 7 20.5 7C20.2235 7 20 7.224 20 7.5C20 8.785 21.215 10 22.5 10C22.7765 10 23 9.776 23 9.5C23 9.224 22.7765 9 22.5 9ZM16.5 20C16.7765 20 17 19.776 17 19.5C17 18.771 17.771 18 18.5 18C18.7765 18 19 17.776 19 17.5C19 17.224 18.7765 17 18.5 17C17.215 17 16 18.215 16 19.5C16 19.776 16.2235 20 16.5 20ZM18.5 14C18.7765 14 19 13.776 19 13.5C19 13.224 18.7765 13 18.5 13C17.771 13 17 12.229 17 11.5C17 11.224 16.7765 11 16.5 11C16.2235 11 16 11.224 16 11.5C16 12.785 17.215 14 18.5 14ZM23.5 12C23.2235 12 23 12.224 23 12.5C23 13.229 22.229 14 21.5 14C21.2235 14 21 14.224 21 14.5C21 14.776 21.2235 15 21.5 15C22.785 15 24 13.785 24 12.5C24 12.224 23.7765 12 23.5 12ZM21.5 18C21.2235 18 21 18.224 21 18.5C21 18.776 21.2235 19 21.5 19C22.229 19 23 19.771 23 20.5C23 20.776 23.2235 21 23.5 21C23.7765 21 24 20.776 24 20.5C24 19.215 22.785 18 21.5 18ZM16 7C16 5.715 17.215 4.5 18.5 4.5C18.7765 4.5 19 4.724 19 5C19 5.276 18.7765 5.5 18.5 5.5C17.771 5.5 17 6.271 17 7C17 7.276 16.7765 7.5 16.5 7.5C16.2235 7.5 16 7.276 16 7Z" fill="#681986"/>
</svg>
