<svg width="31" height="30" viewBox="0 0 31 30" fill="none" xmlns="http://www.w3.org/2000/svg">
<path d="M23.9959 24.7652C24.0286 24.7651 24.0577 24.7388 24.0577 24.7061V13.0086C24.0577 12.8657 23.9498 12.7466 23.8085 12.7251C23.6331 12.6983 23.4695 12.8302 23.4695 13.0076V24.2388C23.4695 24.5295 23.7052 24.7652 23.9959 24.7652Z" fill="#F66962"/>
<path d="M18.0169 11.3741C18.1176 11.1783 17.9755 10.9453 17.7554 10.9453H16.8116C16.6629 10.9453 16.5431 11.0582 16.5303 11.2063C16.5158 11.3746 16.6424 11.5335 16.8113 11.5335H17.7554C17.8655 11.5335 17.9664 11.472 18.0169 11.3741Z" fill="#F66962"/>
<path d="M1.47412 12.1893V24.4708C1.47412 24.6332 1.60579 24.7649 1.76822 24.7649C1.93065 24.7649 2.06232 24.6332 2.06232 24.4708V12.1893C2.06232 11.8276 2.35348 11.5335 2.71525 11.5335H8.72064C8.88957 11.5335 9.01613 11.3746 9.00163 11.2063C8.98887 11.0582 8.86905 10.9453 8.72042 10.9453H2.71525C2.03002 10.9453 1.47412 11.5041 1.47412 12.1893Z" fill="#F66962"/>
<path d="M23.9959 25.353H17.9434C17.3464 25.353 16.8229 25.7765 16.6965 26.3618C16.6318 26.6764 16.3494 26.9059 16.0259 26.9059H9.50285C9.18232 26.9059 8.89997 26.6765 8.8323 26.3618C8.70878 25.7765 8.18531 25.353 7.58536 25.353H1.53285C1.0623 25.353 0.624117 25.5648 0.332954 25.9324C0.0388538 26.3001 -0.0669904 26.7765 0.0417905 27.2323L0.409431 28.8146C0.574132 29.5116 1.18583 29.9998 1.90342 29.9998H23.6283C24.3429 29.9998 24.9576 29.5116 25.1193 28.8146L25.4899 27.2323C25.5958 26.7765 25.4899 26.3001 25.1958 25.9324C24.9046 25.5648 24.4665 25.353 23.9959 25.353ZM20.4679 27.9693H20.2321C20.0695 27.9693 19.938 27.8377 19.938 27.6752C19.938 27.5128 20.0695 27.3811 20.2321 27.3811H20.4679C20.6304 27.3811 20.762 27.5128 20.762 27.6752C20.762 27.8376 20.6304 27.9693 20.4679 27.9693ZM21.9961 27.9693H21.7606C21.598 27.9693 21.4665 27.8377 21.4665 27.6752C21.4665 27.5128 21.598 27.3811 21.7606 27.3811H21.9961C22.1586 27.3811 22.2902 27.5128 22.2902 27.6752C22.2902 27.8376 22.1586 27.9693 21.9961 27.9693ZM23.5246 27.9693H23.2891C23.1265 27.9693 22.995 27.8377 22.995 27.6752C22.995 27.5128 23.1265 27.3811 23.2891 27.3811H23.5246C23.6871 27.3811 23.8187 27.5128 23.8187 27.6752C23.8187 27.8376 23.6871 27.9693 23.5246 27.9693Z" fill="#F66962"/>
<path d="M15.5937 16.3364H9.93534C7.67376 16.3364 5.83269 18.1774 5.83269 20.4391V21.1567C5.83269 21.7934 5.31654 22.3095 4.67984 22.3095C4.51808 22.3095 4.38574 22.4419 4.38574 22.6036C4.38574 22.7654 4.51808 22.8977 4.67984 22.8977H20.8492C21.011 22.8977 21.1433 22.7654 21.1433 22.6036C21.1433 22.4419 21.011 22.3095 20.8492 22.3095C20.2141 22.3095 19.6993 21.7947 19.6993 21.1596V20.4391C19.6993 18.1774 17.8583 16.3364 15.5937 16.3364ZM12.9881 20.0479C12.9263 20.1744 12.8116 20.1862 12.7646 20.1862C12.7175 20.1862 12.6057 20.1744 12.544 20.0479L11.7793 18.5214C11.4119 17.7881 11.9451 16.9246 12.7653 16.9246C13.5851 16.9246 14.1183 17.7874 13.7517 18.5206L12.9881 20.0479Z" fill="#F66962"/>
<path d="M9.57324 10.8633C9.57324 12.5367 10.9437 15.1159 12.7642 15.1159C14.5876 15.1159 15.958 12.5367 15.958 10.8633C15.958 9.1017 14.5258 7.66943 12.7642 7.66943C11.0054 7.66943 9.57324 9.10163 9.57324 10.8633Z" fill="#F66962"/>
<path d="M30.9041 5.69585C30.7041 2.63726 28.2454 0.193302 25.1839 0.0109811C23.4782 -0.0889896 21.8606 0.496212 20.6254 1.66087C19.3872 2.82839 18.7049 4.40774 18.7049 6.10761C18.7049 6.27826 18.712 6.44805 18.7259 6.61665C18.8785 8.46407 19.1616 10.4426 18.3109 12.0895C18.1903 12.3218 18.2315 12.5954 18.4197 12.7836C18.5374 12.9012 18.6844 12.96 18.8373 12.96C18.9314 12.96 19.0255 12.9394 19.1138 12.8924L19.1758 12.8605C20.8713 11.9885 22.9039 12.213 24.8104 12.213C26.4927 12.213 28.119 11.5072 29.2689 10.2808C30.3424 9.13383 30.9188 7.66921 30.9188 6.11054C30.9188 5.97233 30.9129 5.83412 30.9041 5.69585ZM24.907 7.89117H23.0982C22.9357 7.89117 22.8041 7.75951 22.8041 7.59707C22.8041 7.43464 22.9357 7.30297 23.0982 7.30297H24.907C25.0696 7.30297 25.2011 7.43464 25.2011 7.59707C25.2011 7.75951 25.0696 7.89117 24.907 7.89117ZM27.4075 5.65786H23.0983C22.9357 5.65786 22.8042 5.5262 22.8042 5.36376C22.8042 5.20132 22.9357 5.06966 23.0983 5.06966H27.4075C27.57 5.06966 27.7016 5.20132 27.7016 5.36376C27.7016 5.5262 27.57 5.65786 27.4075 5.65786Z" fill="#F66962"/>
<path d="M1.60414 5.29496C2.73055 4.16885 4.2303 3.54859 5.82744 3.54859C7.42489 3.54859 8.92464 4.16879 10.0507 5.29496C10.1082 5.35241 10.1834 5.3811 10.2587 5.3811C10.334 5.3811 10.4092 5.35241 10.4667 5.29496C10.5816 5.18006 10.5816 4.99394 10.4667 4.8791C9.22938 3.64183 7.58201 2.96045 5.82744 2.96045C4.07318 2.96045 2.4255 3.64183 1.18823 4.8791C1.07333 4.994 1.07333 5.18012 1.18823 5.29496C1.30319 5.40979 1.4893 5.40979 1.60414 5.29496Z" fill="#F66962"/>
<path d="M8.50758 7.13222C8.58283 7.13222 8.65809 7.10352 8.71554 7.04607C8.83044 6.93118 8.83044 6.74506 8.71554 6.63022C7.12329 5.03809 4.53243 5.03785 2.94018 6.63022C2.82528 6.74512 2.82528 6.93124 2.94018 7.04607C3.05508 7.16097 3.24119 7.16097 3.35603 7.04607C4.7194 5.68301 6.93687 5.68356 8.29969 7.04607C8.35707 7.10352 8.43233 7.13222 8.50758 7.13222Z" fill="#F66962"/>
<path d="M4.69164 8.38161C4.57674 8.49651 4.57674 8.68262 4.69164 8.79746C4.80654 8.91236 4.99266 8.91236 5.10749 8.79746C5.50499 8.39996 6.15089 8.40027 6.54838 8.79746C6.60583 8.85491 6.68109 8.88361 6.75634 8.88361C6.83159 8.88361 6.90685 8.85491 6.9643 8.79746C7.07919 8.68256 7.07919 8.49645 6.9643 8.38161C6.33731 7.7548 5.31802 7.75511 4.69164 8.38161Z" fill="#F66962"/>
</svg>
