<svg width="32" height="32" viewBox="0 0 32 32" fill="none" xmlns="http://www.w3.org/2000/svg">
<path d="M9.69746 5.07006C9.67883 5.05317 9.65892 5.0379 9.63759 5.02372C9.63391 5.02127 9.63037 5.01876 9.62682 5.01625C9.62051 5.0118 9.61419 5.00729 9.60742 5.00342C9.58235 4.98918 9.55561 4.97803 9.52789 4.96785L9.71241 5.08159C9.70983 5.07908 9.70693 5.07702 9.70397 5.07496C9.70171 5.07341 9.69952 5.0718 9.69746 5.07006ZM9.69746 5.07006L9.78421 4.97474C9.7826 4.97326 9.78105 4.97184 9.77944 4.97049C9.77944 4.97042 9.7795 4.97055 9.77944 4.97049L9.77808 4.96946L9.77725 4.96894C9.7768 4.96862 9.77712 4.96881 9.77725 4.96894C9.7775 4.96913 9.77892 4.97017 9.78137 4.97223L9.69746 5.07006ZM15.3678 10.4651L9.80354 4.99047C9.80335 4.99027 9.80315 4.99008 9.80296 4.98989L15.3678 10.4651ZM15.3678 10.4651L24.6469 1.18653C24.8956 0.937824 25.2985 0.937824 25.5473 1.18653L30.8134 6.45265C31.0622 6.70142 31.062 7.10415 30.8139 7.35317L21.59 16.5772L28.1408 22.8823C28.2147 22.9535 28.2665 23.04 28.2982 23.1318C29.8792 24.8051 29.854 27.4508 28.2157 29.089L15.3678 10.4651ZM3.59587 11.1066C3.59374 11.104 3.59226 11.1022 3.5902 11.0998C3.58852 11.0978 3.5864 11.0954 3.58304 11.0913C3.57718 11.0843 3.56899 11.0742 3.56081 11.0619C3.56068 11.0617 3.56094 11.0621 3.56081 11.0619L3.66818 10.9906L3.59587 11.1066ZM3.59587 11.1066C3.59838 11.1097 3.59993 11.1119 3.60264 11.1155C3.60451 11.1181 3.60695 11.1215 3.61069 11.1265C3.61772 11.136 3.62855 11.1501 3.64298 11.1642C3.64292 11.1641 3.64305 11.1643 3.64298 11.1642L9.20063 16.6322M3.59587 11.1066L9.20063 16.6322L3.59587 11.1066ZM9.20063 16.6322L1.18653 24.6465C0.937823 24.8952 0.937823 25.2981 1.18653 25.5469L6.45306 30.8136C6.57242 30.933 6.73457 31 6.90343 31C7.07241 31 7.23405 30.9328 7.3536 30.8137L15.4535 22.714L21.9885 29.065C22.0859 29.1589 22.2039 29.208 22.3203 29.2276C23.1081 29.9447 24.1186 30.3415 25.192 30.3415C26.3339 30.3415 27.4085 29.8966 28.2157 29.089L9.20063 16.6322ZM22.4353 5.19908L24.6182 7.38185C24.867 7.63029 24.867 8.03399 24.6182 8.28237M22.4353 5.19908L21.7824 10.2172L19.5996 8.03438L21.5346 6.09941L23.7176 8.28231C23.842 8.40669 24.0052 8.46869 24.1679 8.46869C24.3305 8.46869 24.4938 8.40676 24.6182 8.28237M22.4353 5.19908L25.0975 2.53689L29.4631 6.90294L20.677 15.6892L16.2755 11.3582L18.6989 8.93477L20.8818 11.1176C21.0062 11.2421 21.1695 11.304 21.3322 11.304C21.4949 11.304 21.6581 11.2421 21.7825 11.1176C22.0313 10.8692 22.0312 10.4656 21.7824 10.2172L22.4353 5.19908ZM24.6182 8.28237L24.5271 8.19118L24.6182 8.28237ZM24.6182 8.28237L24.5271 8.19118L24.6182 8.28237ZM24.5271 8.19118C24.7255 7.99307 24.7255 7.67115 24.5271 7.47311V8.19118ZM6.54303 7.46621C6.33557 7.52724 6.1729 7.68946 6.11181 7.89749L5.61162 9.59897L4.51046 9.92288L2.66581 4.02034L8.56877 5.86489L8.24486 6.96571L6.54303 7.46621ZM10.5176 16.1412L5.30768 11.0155L6.30432 10.7225C6.51177 10.6614 6.67444 10.4993 6.7356 10.2913L7.23611 8.58985L8.93793 8.08935C9.14539 8.02826 9.308 7.86611 9.36916 7.65807L9.66801 6.64264L20.2285 17.0328L20.2295 17.0337L26.7905 23.3493L22.4254 27.7139L10.5181 16.1418L10.5176 16.1412ZM6.90311 29.4629L2.53692 25.0965L4.26813 23.3653L6.451 25.5482C6.57545 25.6726 6.7387 25.7346 6.90136 25.7346C7.06403 25.7346 7.22734 25.6726 7.35173 25.5482C7.60044 25.2994 7.60044 24.8966 7.35173 24.6478L5.1688 22.465L6.84994 20.7839L9.0328 22.9668C9.15725 23.0912 9.3205 23.1531 9.48317 23.1531C9.64584 23.1531 9.80908 23.0912 9.93353 22.9668C10.1822 22.7181 10.1822 22.3151 9.93353 22.0664L7.7506 19.8835L10.1118 17.5224L14.5404 21.8264L6.90311 29.4629ZM27.3144 28.1884C26.2599 29.2421 24.611 29.3459 23.4383 28.5014L27.6277 24.3121C28.4723 25.4851 28.3684 27.1346 27.3144 28.1884Z" fill="#2E35B8"/>
<path d="M9.69746 5.07006C9.67883 5.05317 9.65892 5.0379 9.63759 5.02372C9.63391 5.02127 9.63037 5.01876 9.62682 5.01625C9.62051 5.0118 9.61419 5.00729 9.60742 5.00342C9.58235 4.98918 9.55561 4.97803 9.5279 4.96785L9.71241 5.08159C9.70983 5.07908 9.70693 5.07702 9.70397 5.07496C9.70171 5.07341 9.69952 5.0718 9.69746 5.07006ZM9.69746 5.07006L9.78421 4.97474C9.7826 4.97326 9.78105 4.97184 9.77944 4.97049M9.69746 5.07006L9.78137 4.97223C9.77892 4.97017 9.7775 4.96913 9.77725 4.96894M9.77944 4.97049C9.77944 4.97042 9.7795 4.97055 9.77944 4.97049ZM9.77944 4.97049L9.77808 4.96946L9.77725 4.96894M9.77725 4.96894C9.7768 4.96862 9.77712 4.96881 9.77725 4.96894ZM15.3678 10.4651L9.80354 4.99047C9.80335 4.99027 9.80315 4.99008 9.80296 4.98989L15.3678 10.4651ZM15.3678 10.4651L24.6469 1.18653C24.8956 0.937824 25.2985 0.937824 25.5473 1.18653L30.8134 6.45265C31.0622 6.70142 31.062 7.10415 30.8139 7.35317L21.59 16.5772L28.1408 22.8823C28.2147 22.9535 28.2665 23.04 28.2982 23.1318C29.8792 24.8051 29.854 27.4508 28.2157 29.089M15.3678 10.4651L28.2157 29.089M28.2157 29.089C27.4085 29.8966 26.3339 30.3415 25.192 30.3415C24.1186 30.3415 23.1081 29.9447 22.3203 29.2276C22.2039 29.208 22.0859 29.1589 21.9885 29.065L15.4535 22.714L7.3536 30.8137C7.23405 30.9328 7.07241 31 6.90343 31C6.73457 31 6.57242 30.933 6.45306 30.8136L1.18653 25.5469C0.937823 25.2981 0.937823 24.8952 1.18653 24.6465L9.20063 16.6322M28.2157 29.089L9.20063 16.6322M3.59587 11.1066C3.59374 11.104 3.59226 11.1022 3.5902 11.0998C3.58852 11.0978 3.5864 11.0954 3.58304 11.0913C3.57718 11.0844 3.56899 11.0742 3.56081 11.0619M3.59587 11.1066L3.66818 10.9906L3.56081 11.0619M3.59587 11.1066C3.59838 11.1097 3.59993 11.1119 3.60264 11.1155C3.60451 11.1181 3.60695 11.1215 3.61069 11.1265C3.61772 11.136 3.62855 11.1501 3.64298 11.1642M3.59587 11.1066L9.20063 16.6322M3.56081 11.0619C3.56068 11.0617 3.56094 11.0621 3.56081 11.0619ZM3.64298 11.1642C3.64305 11.1643 3.64292 11.1641 3.64298 11.1642ZM3.64298 11.1642L9.20063 16.6322M22.4353 5.19908L24.6182 7.38185C24.867 7.63029 24.867 8.03399 24.6182 8.28237M22.4353 5.19908L21.7824 10.2172M22.4353 5.19908L25.0975 2.53689L29.4631 6.90294L20.677 15.6892L16.2755 11.3582L18.6989 8.93477L20.8818 11.1176C21.0062 11.2421 21.1695 11.304 21.3322 11.304C21.4949 11.304 21.6581 11.2421 21.7825 11.1176C22.0313 10.8692 22.0312 10.4656 21.7824 10.2172M24.6182 8.28237C24.4938 8.40676 24.3305 8.46869 24.1679 8.46869C24.0052 8.46869 23.842 8.40669 23.7176 8.28231L21.5346 6.09941L19.5996 8.03438L21.7824 10.2172M24.6182 8.28237L24.5271 8.19118M24.5271 8.19118C24.7255 7.99307 24.7255 7.67115 24.5271 7.47311V8.19118ZM3.48154 10.9L1.08767 3.23988M6.54303 7.46621C6.33557 7.52724 6.1729 7.68946 6.11181 7.89749L5.61162 9.59897L4.51046 9.92288L2.66581 4.02034L8.56877 5.86489L8.24486 6.96571L6.54303 7.46621ZM10.5176 16.1412L5.30768 11.0155L6.30432 10.7225C6.51177 10.6614 6.67444 10.4993 6.7356 10.2913L7.23611 8.58985L8.93793 8.08935C9.14539 8.02826 9.308 7.86611 9.36916 7.65807L9.66801 6.64264L20.2285 17.0328L20.2295 17.0337L26.7905 23.3493L22.4254 27.7139L10.5181 16.1418L10.5176 16.1412ZM6.90311 29.4629L2.53692 25.0965L4.26813 23.3653L6.451 25.5482C6.57545 25.6726 6.7387 25.7346 6.90136 25.7346C7.06403 25.7346 7.22734 25.6726 7.35173 25.5482C7.60044 25.2994 7.60044 24.8966 7.35173 24.6478L5.1688 22.465L6.84994 20.7839L9.0328 22.9668C9.15725 23.0912 9.3205 23.1531 9.48317 23.1531C9.64584 23.1531 9.80908 23.0912 9.93353 22.9668C10.1822 22.7181 10.1822 22.3151 9.93353 22.0664L7.7506 19.8835L10.1118 17.5224L14.5404 21.8264L6.90311 29.4629ZM27.3144 28.1884C26.2599 29.2421 24.611 29.3459 23.4383 28.5014L27.6277 24.3121C28.4723 25.4851 28.3684 27.1346 27.3144 28.1884Z" stroke="#2E35B8" stroke-width="0.234373"/>
</svg>
