<svg width="53" height="53" viewBox="0 0 53 53" fill="none" xmlns="http://www.w3.org/2000/svg">
<path d="M13.0337 31.9674L11.2287 32.6967C10.9184 32.8227 10.7408 33.1508 10.8049 33.4797L13.8584 49.2238C13.9387 49.6348 14.1987 49.9885 14.5672 50.1875C14.9357 50.3867 15.374 50.4104 15.7617 50.2522L29.7662 44.5937C30.0547 45.3079 31.7448 45.3048 33.5371 44.5806C35.3293 43.8565 36.547 42.6847 36.2584 41.9705L50.2634 36.3118C50.6515 36.1565 50.9508 35.8348 51.0774 35.4355C51.2041 35.0364 51.1459 34.6012 50.9177 34.25L42.1768 20.8038C41.9943 20.5228 41.6391 20.41 41.3283 20.5349L13.0337 31.9674Z" fill="#E64C3C"/>
<path d="M27.0419 28.5043L31.9632 40.6844C30.8471 40.6554 29.7303 40.7422 28.6314 40.943C24.4373 41.6626 20.5105 43.4864 17.255 46.2269C17.066 46.3798 16.8117 46.4247 16.5818 46.3456C16.3518 46.2666 16.1788 46.0749 16.1237 45.8382L13.0338 31.9666L12.7723 30.7959C12.7063 30.4986 12.8384 30.1926 13.0999 30.0366C13.5152 29.7933 13.9434 29.5448 14.3769 29.3092C15.7934 30.5309 17.7737 30.8587 19.5084 30.1586C19.6252 30.1114 19.733 30.0603 19.8408 30.0093C20.2595 29.8008 20.6483 29.5371 20.9966 29.225C21.0035 29.2383 21.0133 29.2498 21.0254 29.2587C22.0609 30.4231 23.7173 30.8095 25.1609 30.2235C25.9761 29.8973 26.644 29.2866 27.0419 28.5043Z" fill="#F5EFCA"/>
<path d="M46.3929 34.4542C42.1475 34.7445 38.056 36.1604 34.5395 38.5564C33.6096 39.1752 32.746 39.8887 31.9632 40.6848L27.0419 28.5048C27.1331 28.3381 27.2092 28.1633 27.2688 27.9826C28.0221 27.9784 28.7672 27.8312 29.4651 27.5484L29.504 27.5327C29.725 27.9834 30.0808 28.3542 30.5218 28.5942C31.404 28.9624 32.3689 29.0842 33.315 28.9459C34.0205 28.8929 34.7266 29.0363 35.3557 29.36C35.9278 29.6788 36.6421 29.5835 37.1111 29.1265C37.5198 28.7126 37.6448 28.0956 37.4278 27.556C37.3717 27.4145 37.2937 27.2829 37.195 27.1667C37.0488 26.9916 36.896 26.8192 36.733 26.6586C36.4082 26.3218 36.0406 26.0287 35.6405 25.7858C36.6469 24.569 37.0496 22.9631 36.7371 21.4154C36.7461 21.3816 36.7615 21.3451 36.7705 21.3113C36.8874 20.96 36.9507 20.5933 36.9577 20.2237C37.3525 20.117 37.7417 20.0126 38.1352 19.9215C38.4318 19.852 38.7393 19.9804 38.8982 20.2401L39.5233 21.264L46.9373 33.3884C47.0616 33.5972 47.0709 33.8551 46.96 34.0718C46.85 34.2881 46.6355 34.4327 46.3929 34.4542Z" fill="#F9EAB0"/>
<path d="M36.2583 41.9702C36.5469 42.6844 35.3292 43.8561 33.5369 44.5802C31.7447 45.3044 30.0545 45.3076 29.7659 44.5934L28.631 40.9435C29.73 40.7426 30.8459 40.6562 31.9629 40.6847C32.7457 39.8886 33.6093 39.1752 34.5392 38.5563L36.2583 41.9702Z" fill="#C03A2B"/>
<path d="M36.6947 18.7507C36.8834 19.2178 36.9728 19.7192 36.9574 20.223C36.9504 20.5927 36.8871 20.9594 36.7702 21.3107C36.7612 21.3445 36.7458 21.3809 36.7368 21.4148C37.0494 22.9625 36.6467 24.5684 35.6402 25.7851C36.0403 26.028 36.4079 26.3212 36.7327 26.6579C36.8958 26.8185 37.0485 26.991 37.1947 27.166C37.2934 27.2822 37.3714 27.4139 37.4275 27.5553C37.6445 28.095 37.5195 28.7119 37.1108 29.1258C36.6419 29.5829 35.9275 29.6781 35.3554 29.3593C34.7264 29.0356 34.0202 28.8922 33.3147 28.9453C32.3686 29.0836 31.4037 28.9618 30.5215 28.5935C30.0805 28.3536 29.7247 27.9828 29.5037 27.532L29.4648 27.5478C28.7669 27.8305 28.0218 27.9778 27.2685 27.982C27.2089 28.1627 27.1328 28.3375 27.0416 28.5042C26.6437 29.2864 25.9758 29.8971 25.1607 30.2233C23.717 30.8093 22.0605 30.4229 21.025 29.2585C21.013 29.2497 21.0031 29.2381 20.9963 29.2248C20.6478 29.5369 20.2591 29.8006 19.8404 30.0091C19.7326 30.0602 19.6249 30.1112 19.508 30.1584C17.7528 30.8663 15.7483 30.5231 14.3285 29.2717C12.9088 28.0202 12.3167 26.0747 12.7984 24.2446C12.6347 24.0641 12.5045 23.8558 12.414 23.6295C12.0224 22.6716 12.3615 21.5705 13.2241 20.9988C13.2262 20.9938 13.2298 20.9897 13.2344 20.987C13.1964 20.9118 13.1585 20.8364 13.1244 20.752C12.978 20.3923 12.9093 20.0057 12.9228 19.6175C12.9499 18.4921 13.6435 17.4905 14.6875 17.0692C15.0805 16.9083 15.5051 16.8401 15.9286 16.8699C16.1496 15.4269 17.115 14.2072 18.4686 13.6609C19.3963 13.2821 20.4302 13.2598 21.3734 13.5974C21.5117 12.7947 22.0884 12.1371 22.8661 11.8945C23.6439 11.6518 24.4916 11.8653 25.062 12.447C25.2391 12.3513 25.421 12.2651 25.608 12.1885C28.1251 11.1763 30.9984 12.2603 32.219 14.6832L32.2385 14.6754C32.7734 14.4592 33.3731 14.4646 33.9036 14.691C34.434 14.9174 34.8529 15.3456 35.0672 15.8812C35.2076 16.2314 35.2575 16.6112 35.2116 16.986C35.8811 17.4017 36.4005 18.0198 36.6947 18.7507Z" fill="#FB7B76"/>
<path d="M31.3787 9.11243C31.1163 9.21836 30.816 9.15571 30.6169 8.95399C30.4188 8.7519 30.3616 8.45016 30.472 8.18962L30.8587 7.27808C30.9537 7.0434 31.1674 6.87831 31.4185 6.84596C31.6697 6.81352 31.9184 6.91924 32.0695 7.12233C32.2205 7.32532 32.2504 7.59402 32.1475 7.82529L31.7608 8.73673C31.6885 8.90755 31.5511 9.04266 31.3787 9.11243Z" fill="#F0C419"/>
<path d="M10.4507 17.5685C10.2785 17.638 10.0857 17.6362 9.91488 17.5637L9.00326 17.1768C8.76862 17.0819 8.60342 16.8679 8.57105 16.617C8.53873 16.3659 8.64438 16.117 8.84747 15.9659C9.05043 15.8147 9.31912 15.7849 9.55039 15.8878L10.462 16.2747C10.7226 16.3854 10.891 16.6422 10.8884 16.9253C10.886 17.2085 10.7132 17.4623 10.4507 17.5685Z" fill="#F0C419"/>
<path d="M14.3443 12.8168C14.0817 12.923 13.7811 12.8605 13.5825 12.6586L12.11 11.1601C11.9282 10.983 11.8565 10.7214 11.9224 10.4764C11.9884 10.2314 12.1818 10.0412 12.4278 9.97932C12.6739 9.9174 12.9342 9.99354 13.1083 10.1782L14.5815 11.6765C14.7119 11.8089 14.7845 11.9878 14.7829 12.1737C14.7813 12.3597 14.7059 12.5374 14.5733 12.6677C14.5074 12.7317 14.4296 12.7823 14.3443 12.8168Z" fill="#F0C419"/>
<path d="M25.2759 8.39952C25.1905 8.43381 25.0994 8.45111 25.0075 8.4506C24.8223 8.44874 24.6442 8.37359 24.5141 8.24109C24.3839 8.10849 24.3117 7.92973 24.3132 7.74403L24.3324 5.64271C24.3292 5.38906 24.4637 5.15341 24.6834 5.02711C24.904 4.90044 25.1747 4.90312 25.3924 5.03356C25.6101 5.1639 25.7407 5.40169 25.7322 5.65566L25.714 7.7566C25.7118 8.03961 25.5393 8.29322 25.2759 8.39952Z" fill="#F0C419"/>
<path d="M36.1305 13.0069C35.8203 13.1333 35.4638 13.0226 35.2805 12.7425C35.0963 12.4626 35.1373 12.0915 35.3761 11.8578L36.8755 10.385C37.0538 10.2097 37.3117 10.1431 37.5532 10.2098C37.7939 10.2769 37.9809 10.4674 38.0442 10.7094C38.1065 10.9517 38.0347 11.2091 37.8563 11.3844L36.3588 12.8564C36.2932 12.9212 36.2157 12.9722 36.1305 13.0069Z" fill="#F0C419"/>
<path d="M9.73769 23.6704C9.65222 23.7047 9.5609 23.7219 9.46879 23.7208L7.36858 23.7025C7.11845 23.7003 6.88835 23.5649 6.76513 23.3472C6.64186 23.1294 6.64414 22.8625 6.77109 22.6468C6.89799 22.4313 7.13034 22.2998 7.38046 22.3019L9.48136 22.3201C9.81626 22.322 10.1029 22.5607 10.1653 22.8898C10.2278 23.2187 10.0486 23.5459 9.73769 23.6704Z" fill="#F0C419"/>
<path d="M36.7701 21.3112C36.7612 21.345 36.7457 21.3815 36.7367 21.4154C36.8753 22.0866 36.8779 22.779 36.7441 23.4515C36.4428 23.6855 36.1108 23.8756 35.7569 24.0166C35.1127 24.2747 34.4165 24.3775 33.7252 24.3163C33.3949 24.281 33.0705 24.2094 32.756 24.1037C32.5369 24.309 32.2838 24.4726 32.0068 24.5878C31.1509 24.9387 30.1703 24.7726 29.4772 24.1597C29.2895 23.9941 29.2034 23.7409 29.2529 23.4951C29.3023 23.2491 29.478 23.0486 29.7162 22.968C29.9533 22.8877 30.2151 22.9404 30.4038 23.1056C30.6312 23.3001 30.931 23.3881 31.2274 23.3476C31.5248 23.3068 31.7893 23.1419 31.9564 22.8936C32.1454 22.6112 32.1814 22.2546 32.0553 21.9398C31.9954 21.789 31.9019 21.6537 31.7822 21.5441C31.5246 21.2831 31.512 20.8675 31.7532 20.5915C31.9944 20.3156 32.4084 20.2725 32.7014 20.4931C32.9869 20.746 33.2104 21.0616 33.3534 21.4154C33.5311 21.8713 33.5676 22.37 33.456 22.8466C33.5887 22.8761 33.7214 22.9056 33.8489 22.922C34.3193 22.9653 34.7937 22.8953 35.2322 22.7181C35.8994 22.4528 36.4467 21.9522 36.7701 21.3112Z" fill="#FF5364"/>
<path d="M27.7999 21.9706C28.4067 21.0512 28.6265 19.9295 28.4111 18.8491C28.3664 18.5999 28.1906 18.3942 27.9519 18.3107C27.7124 18.2277 27.4476 18.2798 27.2577 18.4478C27.0678 18.6158 26.9839 18.8727 27.0375 19.1201C27.1802 19.8415 27.0338 20.5897 26.6281 21.2032C25.8419 22.3671 24.3269 22.7872 23.0531 22.1945C22.7039 22.0269 22.2855 22.1739 22.118 22.5228C21.9497 22.8722 22.0973 23.2909 22.4464 23.4584C23.2429 23.844 24.1403 23.9697 25.0118 23.8176C24.8549 24.4757 24.3877 25.017 23.7604 25.2688C23.4015 25.4138 23.2278 25.8221 23.3727 26.1807C23.5176 26.5393 23.9262 26.7123 24.285 26.5673C25.6307 26.0299 26.5015 24.7124 26.4682 23.2631C27.0027 22.9364 27.4574 22.495 27.7999 21.9706Z" fill="#FF5364"/>
<path d="M36.7341 26.6591C36.3549 27.0955 35.9095 27.4693 35.4138 27.7666C35.3817 27.7858 35.3473 27.8022 35.3126 27.815C34.9717 27.9564 34.58 27.8091 34.4163 27.4787C34.2526 27.1482 34.3742 26.7472 34.6932 26.5623C35.0466 26.3532 35.3659 26.0918 35.6406 25.7867C36.0407 26.0296 36.4083 26.3227 36.7341 26.6591Z" fill="#FF5364"/>
<path d="M20.4367 27.9719C20.4775 28.1673 20.5348 28.3589 20.6077 28.5448C20.7048 28.7889 20.8357 29.0182 20.9963 29.2261C20.648 29.5381 20.2592 29.8018 19.8405 30.0103C19.6289 29.7258 19.453 29.4164 19.3171 29.089C18.1231 29.4262 16.8664 28.8118 16.3994 27.6622C16.2511 27.3015 16.4215 26.8887 16.7811 26.7377C16.952 26.6673 17.144 26.668 17.3144 26.7393C17.485 26.8107 17.6201 26.947 17.6901 27.1181L17.6979 27.1375C17.9149 27.6467 18.4897 27.9 19.0119 27.7169C18.9833 27.3877 18.994 27.0564 19.0437 26.7298C19.0707 26.5457 19.1709 26.3803 19.3215 26.271C19.4722 26.1618 19.6605 26.118 19.8439 26.1496C20.2255 26.215 20.4845 26.5736 20.4267 26.9564C20.3709 27.2929 20.3743 27.6365 20.4367 27.9719Z" fill="#FF5364"/>
<path d="M31.6259 27.8684C31.286 28.1509 30.9153 28.3944 30.5214 28.5941C30.0804 28.3541 29.7246 27.9834 29.5036 27.5326C29.5671 27.5083 29.6284 27.481 29.6892 27.4501C30.065 27.2697 30.4179 27.046 30.741 26.7834C30.9344 26.6159 31.2026 26.567 31.4421 26.6554C31.6817 26.7438 31.8546 26.9553 31.8929 27.2077C31.9303 27.4604 31.8286 27.7133 31.6259 27.8684Z" fill="#FF5364"/>
<path d="M21.3535 18.5384C21.2086 18.1799 20.8 18.0069 20.4412 18.1518C18.7936 18.8196 17.9974 20.6955 18.6618 22.3449C18.8067 22.7036 19.2148 22.8768 19.5733 22.7319C19.9319 22.587 20.1052 22.1789 19.9603 21.8203C19.7794 21.3726 19.7838 20.8714 19.9724 20.4269C20.1611 19.9824 20.519 19.6309 20.9659 19.4503C21.3247 19.3054 21.4984 18.8971 21.3535 18.5384Z" fill="#FF5364"/>
<path d="M14.3542 25.6126C14.2363 25.6604 14.1076 25.6748 13.9821 25.6542C13.3162 25.5475 12.7088 25.2105 12.2657 24.702C12.0535 24.4609 11.8837 24.1855 11.7638 23.8875C11.1692 22.4161 11.8773 20.741 13.347 20.1422C14.1888 19.7983 15.1443 19.878 15.9176 20.3565C16.1312 20.4869 16.2591 20.7213 16.253 20.9715C16.2469 21.2217 16.1078 21.4496 15.8881 21.5694C15.6684 21.6892 15.4014 21.6828 15.1878 21.5524C14.7931 21.308 14.3053 21.2671 13.8753 21.4423C13.2621 21.694 12.8913 22.3228 12.9675 22.9812C13.0437 23.6396 13.5486 24.167 14.2029 24.272C14.514 24.3213 14.7537 24.5722 14.7891 24.885C14.8243 25.1979 14.6463 25.4951 14.3542 25.6126Z" fill="#FF5364"/>
<path d="M25.7908 13.8078C25.4329 13.9525 25.0243 13.7794 24.8794 13.4209C24.5747 12.6666 23.7166 12.302 22.9619 12.607C22.2081 12.9115 21.8432 13.7703 22.148 14.5245C22.2928 14.8831 22.1201 15.291 21.7613 15.436C21.4024 15.581 20.9948 15.4075 20.8499 15.049C20.2554 13.5776 20.9658 11.903 22.4372 11.3085C23.9086 10.7139 25.5839 11.4246 26.1784 12.896C26.248 13.0682 26.2461 13.2611 26.1738 13.4319C26.1007 13.6032 25.9632 13.7382 25.7908 13.8078Z" fill="#FF5364"/>
<path d="M34.9059 18.8326C34.6034 18.9514 34.2589 18.8463 34.0733 18.5791C33.8886 18.3115 33.9126 17.9518 34.1312 17.7108C34.3408 17.4846 34.4747 17.1994 34.5161 16.8935C34.6187 16.1973 34.2137 15.5257 33.5497 15.2919C32.8857 15.058 32.149 15.3275 31.7934 15.9342C31.5929 16.2654 31.1624 16.3717 30.8314 16.1718C30.5004 15.9718 30.3943 15.5413 30.5939 15.2104C30.9093 14.6829 31.3869 14.2715 31.9558 14.0378C33.2069 13.5224 34.6472 13.9479 35.4178 15.0599C36.1885 16.1719 36.0811 17.6703 35.16 18.6605C35.0891 18.7362 35.0019 18.7952 34.9059 18.8326Z" fill="#FF5364"/>
</svg>
