<svg width="46" height="49" viewBox="0 0 46 49" fill="none" xmlns="http://www.w3.org/2000/svg">
<path d="M28.2641 12.6729C27.9723 12.5694 27.7881 12.2819 27.8158 11.9738C27.8426 11.6655 28.0758 11.4154 28.3804 11.3651C34.2258 10.4 40.9064 10.51 42.12 13.7208C42.2539 14.0714 42.0771 14.4632 41.7273 14.5968C41.3766 14.73 40.9842 14.5539 40.8513 14.2036C40.2273 12.5568 35.8193 11.5127 28.6007 12.706C28.4877 12.7233 28.3715 12.7118 28.2641 12.6729Z" fill="#E57E25"/>
<path d="M6.91072 24.2104C6.64898 24.1171 6.47057 23.8735 6.46086 23.5958C6.37167 21.085 9.70102 18.0086 15.3705 15.3659C15.704 15.2353 16.0815 15.3869 16.2323 15.7118C16.3831 16.0366 16.255 16.4227 15.94 16.5931C10.2512 19.2476 7.76046 21.9986 7.81514 23.5473C7.82331 23.7717 7.71975 23.9856 7.53858 24.1184C7.35749 24.2512 7.12239 24.2857 6.91072 24.2104Z" fill="#E57E25"/>
<path d="M25.5867 11.8223C25.4773 11.7832 25.3806 11.7173 25.3039 11.63C20.342 5.93878 16.4085 4.11414 14.8523 4.82312C14.5118 4.97981 14.1087 4.83082 13.952 4.49035C13.7954 4.14988 13.9443 3.74686 14.2848 3.59018C17.3422 2.19136 22.5062 6.36426 26.3206 10.7363C26.5234 10.9686 26.5446 11.3094 26.3703 11.5644C26.196 11.8195 25.8718 11.9247 25.5812 11.8203L25.5867 11.8223Z" fill="#E57E25"/>
<path d="M34.726 34.0665C34.5182 33.9923 34.3592 33.8216 34.3004 33.609C34.2416 33.3965 34.2901 33.1685 34.4301 32.9981C35.6292 31.5385 34.8766 27.4214 32.511 22.5085C32.3564 22.1729 32.4996 21.7746 32.8323 21.6139C33.1661 21.4533 33.5665 21.5897 33.7321 21.9204C36.4057 27.4735 37.0576 31.9359 35.4766 33.858C35.2951 34.0787 34.995 34.1622 34.726 34.0665Z" fill="#E57E25"/>
<path d="M12.6747 35.7874L10.7599 35.1041C10.4073 34.9782 10.2235 34.5905 10.3494 34.2379C10.4752 33.8854 10.8629 33.7016 11.2155 33.8274L13.1302 34.5107C13.483 34.6366 13.6664 35.0242 13.5406 35.3767C13.4147 35.7293 13.0274 35.9132 12.6747 35.7874Z" fill="#7F8284"/>
<path d="M24.8033 40.1146L22.8881 39.4311C22.5353 39.3052 22.352 38.9176 22.4778 38.565C22.6036 38.2125 22.9909 38.0286 23.3437 38.1545L25.2588 38.8379C25.6116 38.9638 25.795 39.3514 25.6692 39.7039C25.5433 40.0565 25.156 40.2405 24.8033 40.1146Z" fill="#7F8284"/>
<path d="M35.202 24.931C34.0144 27.4583 31.9923 29.4992 29.4762 30.7098C26.847 31.9408 24.8074 34.1574 23.7987 36.8802L13.5856 33.2355C14.0639 31.8808 14.2615 30.4431 14.1657 29.0096C14.0687 27.5737 13.7068 26.1685 13.0972 24.8648C11.2212 20.8325 11.6912 16.0983 14.3233 12.5135C16.9553 8.9285 21.3318 7.06249 25.7403 7.64454C26.0572 7.68968 26.3616 7.50751 26.4718 7.20748L26.572 6.92663C26.9494 5.86904 28.1131 5.31782 29.1705 5.69517C30.228 6.07252 30.7798 7.23595 30.4024 8.29355L30.3021 8.5744C30.1975 8.87637 30.3187 9.21046 30.5916 9.37579C35.8528 12.6397 37.8348 19.3273 35.202 24.931Z" fill="#F0C419"/>
<path d="M33.1599 24.2021C32.0853 26.6691 30.2917 28.7548 28.0147 30.1882C25.6315 31.6658 23.823 33.9114 22.8869 36.5547L14.4969 33.5606C14.974 32.2207 15.2197 30.8095 15.2237 29.3871C15.2298 28.0254 15.0055 26.6728 14.5587 25.3862C13.7031 22.835 13.6358 20.0852 14.3653 17.4951C16.0427 11.3366 21.2103 7.35904 26.1731 7.79885C26.4668 7.80234 26.7282 7.61099 26.8134 7.32927L26.9136 7.04842C27.1699 6.05673 28.175 5.45448 29.1703 5.69497C29.6035 5.86054 29.9382 6.21266 30.082 6.65354C30.2491 7.14696 30.2418 7.68294 30.0603 8.17136L29.9601 8.45221C29.8476 8.72417 29.9289 9.03783 30.1584 9.22107C34.2784 12.0226 35.7601 18.3729 33.1599 24.2021Z" fill="#F3D55B"/>
<path d="M23.7986 36.8781L22.4318 40.708C22.1787 41.4115 21.4045 41.7782 20.7001 41.5292L13.0402 38.7957C12.3363 38.5422 11.9701 37.7685 12.2187 37.0633L13.5854 33.2334L23.7986 36.8781Z" fill="#95A5A5"/>
<path d="M19.9475 41.6224C19.5079 42.8543 17.721 43.3464 15.9589 42.7175C14.1969 42.0887 13.1252 40.5765 13.5648 39.3446C13.6032 39.2371 13.6542 39.1344 13.717 39.0391L20.0232 41.2895C20.0114 41.4031 19.9868 41.5151 19.9475 41.6224Z" fill="#342777"/>
<path d="M9.27342 26.6601C8.31939 26.3778 7.48591 25.7867 6.90398 24.9797C6.7603 24.7753 6.74072 24.5086 6.85301 24.2855C6.96525 24.0622 7.1911 23.9189 7.44085 23.9125C7.69052 23.906 7.92357 24.0373 8.04725 24.2543C8.7081 25.294 10.7988 25.9306 13.7826 26.0024C16.4911 26.0345 19.1953 25.7599 21.8426 25.1835C22.8644 24.9725 23.875 24.7294 24.854 24.4685C28.7524 23.4649 32.4977 21.9398 35.988 19.9346C38.9763 18.1406 40.821 16.2457 40.9259 14.8662C40.9566 14.495 41.2815 14.218 41.6528 14.2461C42.024 14.2742 42.3034 14.597 42.2777 14.9686C42.0959 17.367 39.1372 19.625 36.6873 21.0966C33.0876 23.1665 29.2258 24.7414 25.2046 25.7781C24.2043 26.0472 23.1656 26.2939 22.1167 26.5118C19.3673 27.1092 16.5592 27.393 13.7457 27.3579C12.2282 27.3538 10.7202 27.1185 9.27342 26.6601Z" fill="#F29C1F"/>
<path d="M31.2949 34.5247C29.8829 33.966 28.5667 33.1908 27.3928 32.2269C25.1946 30.4736 23.2013 28.4768 21.4528 26.2753C20.7772 25.4412 20.1295 24.5926 19.5257 23.7504C17.0693 20.4022 15.0767 16.738 13.6011 12.8569C12.6249 10.1338 11.7611 6.47863 13.193 4.52285C13.4152 4.22396 13.8368 4.16024 14.1373 4.38012C14.4378 4.60009 14.5046 5.02132 14.2869 5.32334C13.4697 6.44145 13.6906 9.08715 14.8794 12.4006C16.3116 16.1627 18.2448 19.7144 20.627 22.9596C21.2157 23.7806 21.847 24.609 22.5057 25.4211C24.1885 27.542 26.1062 29.4653 28.2226 31.1543C30.6883 33.0741 32.8259 33.9003 33.9427 33.3655C34.2808 33.2042 34.6851 33.347 34.8471 33.6849C35.0081 34.0226 34.8648 34.4272 34.5276 34.5888C33.4857 35.0032 32.3203 34.9801 31.2949 34.5247Z" fill="#F29C1F"/>
<path d="M6.33542 26.329C7.56931 26.7693 8.92652 26.126 9.36685 24.8921C9.80714 23.6583 9.16383 22.3011 7.92994 21.8608C6.69605 21.4204 5.33885 22.0637 4.89855 23.2975C4.45822 24.5314 5.10153 25.8886 6.33542 26.329Z" fill="#3B97D3"/>
<path d="M13.3965 6.54185C14.6303 6.98217 15.9876 6.33887 16.4279 5.10498C16.8682 3.87109 16.2249 2.51397 14.991 2.07365C13.7571 1.63332 12.3999 2.27653 11.9596 3.51042C11.5193 4.74431 12.1626 6.10152 13.3965 6.54185Z" fill="#3B97D3"/>
<path d="M33.7831 36.1236C35.0173 36.564 36.3743 35.9206 36.8146 34.6868C37.2549 33.453 36.6119 32.0958 35.3776 31.6554C34.1443 31.2153 32.7873 31.8587 32.347 33.0925C31.9067 34.3263 32.5497 35.6835 33.7831 36.1236Z" fill="#3B97D3"/>
<path d="M40.8439 16.3365C42.0781 16.7769 43.4351 16.1335 43.8754 14.8996C44.3157 13.6658 43.6727 12.3087 42.4384 11.8683C41.2051 11.4281 39.8482 12.0715 39.4078 13.3053C38.9675 14.5392 39.6105 15.8963 40.8439 16.3365Z" fill="#3B97D3"/>
<path d="M17.3682 13.5329C17.1469 13.4538 16.9823 13.2659 16.9332 13.0361C16.8841 12.8063 16.9576 12.5675 17.1274 12.4049C19.1827 10.4322 21.9715 9.41268 24.8146 9.595C25.0614 9.60341 25.2848 9.74605 25.3962 9.96667C25.5076 10.1873 25.4905 10.4512 25.35 10.6549C25.2103 10.859 24.971 10.9709 24.7248 10.9468C22.262 10.79 19.846 11.6741 18.0655 13.3837C17.8801 13.5616 17.6101 13.6193 17.3682 13.5329Z" fill="white"/>
</svg>
