<svg width="25" height="25" viewBox="0 0 25 25" fill="none" xmlns="http://www.w3.org/2000/svg">
<g clip-path="url(#clip0_63_1317)">
<g clip-path="url(#clip1_63_1317)">
<path opacity="0.4" d="M12.91 5.68935V21.7193C12.74 21.7193 12.56 21.6893 12.42 21.6093L12.38 21.5893C10.46 20.5393 7.11003 19.4394 4.94003 19.1493L4.65003 19.1093C3.69003 18.9893 2.91003 18.0893 2.91003 17.1293V5.04935C2.91003 3.85935 3.88003 2.95935 5.07003 3.05935C7.17003 3.22935 10.35 4.28935 12.13 5.39935L12.38 5.54935C12.53 5.63935 12.72 5.68935 12.91 5.68935Z" fill="#F66962"/>
<path d="M22.91 5.05919V17.1291C22.91 18.0891 22.13 18.9891 21.17 19.1091L20.84 19.1491C18.66 19.4391 15.3 20.5491 13.38 21.6091C13.25 21.6891 13.09 21.7191 12.91 21.7191V5.68919C13.1 5.68919 13.29 5.63919 13.44 5.54919L13.61 5.43919C15.39 4.31919 18.58 3.24919 20.68 3.06919H20.74C21.93 2.96919 22.91 3.85919 22.91 5.05919Z" fill="#F66962"/>
<path d="M8.66003 9.62988H6.41003C6.00003 9.62988 5.66003 9.28988 5.66003 8.87988C5.66003 8.46988 6.00003 8.12988 6.41003 8.12988H8.66003C9.07003 8.12988 9.41003 8.46988 9.41003 8.87988C9.41003 9.28988 9.07003 9.62988 8.66003 9.62988Z" fill="#F66962"/>
<path d="M9.41003 12.6299H6.41003C6.00003 12.6299 5.66003 12.2899 5.66003 11.8799C5.66003 11.4699 6.00003 11.1299 6.41003 11.1299H9.41003C9.82003 11.1299 10.16 11.4699 10.16 11.8799C10.16 12.2899 9.82003 12.6299 9.41003 12.6299Z" fill="#F66962"/>
</g>
</g>
<defs>
<clipPath id="clip0_63_1317">
<rect width="24" height="24" fill="white" transform="translate(0.910034 0.389648)"/>
</clipPath>
<clipPath id="clip1_63_1317">
<rect width="24" height="24" fill="white" transform="translate(0.910034 0.389648)"/>
</clipPath>
</defs>
</svg>
