<svg width="25" height="25" viewBox="0 0 25 25" fill="none" xmlns="http://www.w3.org/2000/svg">
<g clip-path="url(#clip0_63_1333)">
<g clip-path="url(#clip1_63_1333)">
<path opacity="0.4" d="M18.3701 8.15965C18.3001 8.14965 18.2301 8.14965 18.1601 8.15965C16.6101 8.10965 15.3801 6.83965 15.3801 5.27965C15.3801 3.68965 16.6701 2.38965 18.2701 2.38965C19.8601 2.38965 21.1601 3.67965 21.1601 5.27965C21.1501 6.83965 19.9201 8.10965 18.3701 8.15965Z" fill="#FF875A"/>
<path opacity="0.4" d="M21.6302 15.0901C20.5102 15.8401 18.9402 16.1201 17.4902 15.9301C17.8702 15.1101 18.0702 14.2001 18.0802 13.2401C18.0802 12.2401 17.8602 11.2901 17.4402 10.4601C18.9202 10.2601 20.4902 10.5401 21.6202 11.2901C23.2002 12.3301 23.2002 14.0401 21.6302 15.0901Z" fill="#FF875A"/>
<path opacity="0.4" d="M7.27999 8.15965C7.34999 8.14965 7.41999 8.14965 7.48999 8.15965C9.03999 8.10965 10.27 6.83965 10.27 5.27965C10.27 3.68965 8.97999 2.38965 7.37999 2.38965C5.78999 2.38965 4.48999 3.67965 4.48999 5.27965C4.49999 6.83965 5.72999 8.10965 7.27999 8.15965Z" fill="#FF875A"/>
<path opacity="0.4" d="M7.3902 13.2393C7.3902 14.2093 7.6002 15.1293 7.98021 15.9593C6.57021 16.1093 5.10021 15.8093 4.02021 15.0993C2.44021 14.0493 2.44021 12.3393 4.02021 11.2893C5.09021 10.5693 6.6002 10.2793 8.02021 10.4393C7.61021 11.2793 7.3902 12.2293 7.3902 13.2393Z" fill="#FF875A"/>
<path d="M12.9599 16.2596C12.8799 16.2496 12.7899 16.2496 12.6999 16.2596C10.8599 16.1996 9.38989 14.6896 9.38989 12.8296C9.38989 10.9296 10.9199 9.38965 12.8299 9.38965C14.7299 9.38965 16.2699 10.9296 16.2699 12.8296C16.2699 14.6896 14.8099 16.1996 12.9599 16.2596Z" fill="#FF875A"/>
<path d="M9.70989 18.3293C8.19989 19.3393 8.19989 20.9993 9.70989 21.9993C11.4299 23.1493 14.2499 23.1493 15.9699 21.9993C17.4799 20.9893 17.4799 19.3293 15.9699 18.3293C14.2599 17.1793 11.4399 17.1793 9.70989 18.3293Z" fill="#FF875A"/>
</g>
</g>
<defs>
<clipPath id="clip0_63_1333">
<rect width="24" height="24" fill="white" transform="translate(0.840088 0.389648)"/>
</clipPath>
<clipPath id="clip1_63_1333">
<rect width="24" height="24" fill="white" transform="translate(0.840088 0.389648)"/>
</clipPath>
</defs>
</svg>
