<svg width="25" height="25" viewBox="0 0 25 25" fill="none" xmlns="http://www.w3.org/2000/svg">
<g clip-path="url(#clip0_63_1325)">
<g clip-path="url(#clip1_63_1325)">
<path d="M12.6099 14.1396C12.1999 14.1396 11.8599 13.7996 11.8599 13.3896V8.38965C11.8599 7.97965 12.1999 7.63965 12.6099 7.63965C13.0199 7.63965 13.3599 7.97965 13.3599 8.38965V13.3896C13.3599 13.7996 13.0199 14.1396 12.6099 14.1396Z" fill="#FFB54A"/>
<path d="M15.5 3.83965H9.72C9.32 3.83965 9 3.51965 9 3.11965C9 2.71965 9.32 2.38965 9.72 2.38965H15.5C15.9 2.38965 16.22 2.70965 16.22 3.10965C16.22 3.50965 15.9 3.83965 15.5 3.83965Z" fill="#FFB54A"/>
<path opacity="0.4" d="M15.61 20.3598V17.4198C15.61 16.1498 16.37 15.3898 17.64 15.3898H20.58C20.77 15.3898 20.94 15.4098 21.11 15.4498C21.22 14.8898 21.28 14.3098 21.28 13.7198C21.28 8.93981 17.39 5.0498 12.61 5.0498C7.82994 5.0498 3.93994 8.93981 3.93994 13.7198C3.93994 18.4998 7.82994 22.3898 12.61 22.3898C13.82 22.3898 14.97 22.1398 16.02 21.6898C15.76 21.3498 15.61 20.9098 15.61 20.3598Z" fill="#FFB54A"/>
<path d="M20.5799 15.3896H17.6399C16.3699 15.3896 15.6099 16.1496 15.6099 17.4196V20.3596C15.6099 21.6296 16.3699 22.3896 17.6399 22.3896H20.5799C21.8499 22.3896 22.6099 21.6296 22.6099 20.3596V17.4196C22.6099 16.1496 21.8499 15.3896 20.5799 15.3896ZM20.2999 19.8496L19.1199 20.5296C18.8799 20.6696 18.6399 20.7396 18.4199 20.7396C18.2499 20.7396 18.0999 20.6996 17.9599 20.6196C17.6399 20.4296 17.4599 20.0596 17.4599 19.5696V18.2096C17.4599 17.7196 17.6399 17.3496 17.9599 17.1596C18.2799 16.9696 18.6899 17.0096 19.1199 17.2496L20.2999 17.9296C20.7199 18.1796 20.9599 18.5196 20.9599 18.8896C20.9599 19.2596 20.7299 19.5996 20.2999 19.8496Z" fill="#FFB54A"/>
</g>
</g>
<defs>
<clipPath id="clip0_63_1325">
<rect width="24" height="24" fill="white" transform="translate(0.609863 0.389648)"/>
</clipPath>
<clipPath id="clip1_63_1325">
<rect width="24" height="24" fill="white" transform="translate(0.609863 0.389648)"/>
</clipPath>
</defs>
</svg>
