<svg width="120" height="101" viewBox="0 0 120 101" fill="none" xmlns="http://www.w3.org/2000/svg">
<g clip-path="url(#clip0_80_1946)">
<g clip-path="url(#clip1_80_1946)">
<path fill-rule="evenodd" clip-rule="evenodd" d="M55.0988 0.804267C65.5199 0.565184 72.9576 9.99294 82.1187 14.966C93.1796 20.9705 107.858 22.1015 114.275 32.9281C121.071 44.393 120.842 59.5361 115.867 71.9004C111.04 83.8957 100.061 92.5647 88.2033 97.72C77.8279 102.231 66.3531 99.4758 55.0988 98.32C45.127 97.2959 35.4289 96.1241 26.5915 91.3926C16.5645 86.0241 4.83112 80.4468 1.43907 69.5907C-1.94702 58.7537 4.52364 47.505 9.72526 37.4129C14.2101 28.7114 21.3463 22.3324 28.965 16.1855C37.0291 9.67909 44.7399 1.04192 55.0988 0.804267Z" fill="#FFD2D6"/>
<path d="M62.0391 26.7961C58.5469 27.5695 55.7695 30.2766 54.7734 33.8859C54.375 35.3273 54.5039 38.0812 55.0195 39.4172C55.1016 39.6047 54.6445 39.6281 47.6133 39.6516L40.1367 39.6867L39.5039 40.0383C38.7305 40.4719 38.1562 41.1164 37.8516 41.9367C37.6289 42.5344 37.6172 42.8508 37.6172 47.7727C37.6172 52.7648 37.6289 53.0109 37.8633 53.632C38.1914 54.4992 39.0352 55.343 39.9023 55.6711C40.5469 55.9172 40.6406 55.9172 54.9609 55.9172H69.375V57.1828V58.4602L68.707 58.2258C67.3711 57.7805 65.7891 58.2023 64.8047 59.2688L64.3242 59.7961L63.7734 59.5852C63 59.2922 61.8633 59.3156 61.1133 59.6555C60.4453 59.9484 59.6133 60.7102 59.4023 61.2141C59.3086 61.4602 59.2148 61.5305 59.0742 61.4836C58.9688 61.4367 58.5938 61.3781 58.2305 61.343C57.1758 61.2375 56.332 61.5656 55.5469 62.3508C54.457 63.4406 54.4922 63.1945 54.4922 70.7414C54.4922 76.7883 54.5039 77.2688 54.7266 78.1125C54.8555 78.6047 55.1016 79.2844 55.2773 79.6242C55.582 80.2102 55.5938 80.3039 55.6406 82.343C55.6758 84.2883 55.6992 84.4758 55.9336 84.7219L56.168 84.9797H65.3555C71.1328 84.9797 74.625 84.9328 74.7656 84.8625C75.1289 84.6633 75.2344 84.0773 75.2344 82.1086C75.2344 80.4094 75.2578 80.175 75.457 79.9172C75.5859 79.7648 76.4883 79.1672 77.4609 78.593C80.0156 77.1164 81.1172 76.0148 81.668 74.3859C81.9023 73.718 82.3828 69.3469 82.3828 67.9055C82.3828 65.2102 80.5195 63.1125 77.7891 62.6906L76.875 62.55V59.2453V55.9406L77.7305 55.8938C79.1484 55.8234 80.25 55.1086 80.8711 53.8547L81.1523 53.2805L81.1875 47.9602C81.2227 42.007 81.2227 41.9836 80.4023 40.9406C80.1562 40.6359 79.6758 40.2375 79.3242 40.0383L78.6914 39.6867L75.9844 39.6516L73.2773 39.6164L73.5 38.8898C73.875 37.7297 73.9219 35.4094 73.6055 34.0617C73.1133 31.9875 71.8711 30.007 70.2539 28.6945C69.3516 27.968 67.6992 27.1477 66.5156 26.8547C65.4141 26.5734 63.1758 26.55 62.0391 26.7961ZM65.9766 28.8C67.3242 29.1164 68.3789 29.7258 69.5039 30.8391C70.3008 31.6242 70.6172 32.0344 70.9922 32.7961C72.9141 36.675 71.4141 41.1984 67.5938 43.0852C65.3086 44.2102 63.1641 44.2219 60.8789 43.1438C58.1016 41.8195 56.332 38.8664 56.5195 35.8781C56.7305 32.5266 59.0977 29.6438 62.3438 28.8C63.1992 28.5773 65.0273 28.5773 65.9766 28.8ZM56.7188 42.4055C57.9961 43.9523 59.7539 45.0891 61.6992 45.6164C63.1289 46.0148 65.4258 45.9797 66.832 45.5578C68.0508 45.1945 68.8242 44.8195 69.7969 44.1281C70.5 43.6359 72.1875 41.9367 72.1875 41.7258C72.1875 41.6672 73.4531 41.6203 75.1055 41.6203C77.9297 41.6203 78.0234 41.632 78.4102 41.8898C79.2188 42.4289 79.2188 42.4172 79.2188 47.7727C79.2188 52.1203 79.1953 52.6125 79.0078 52.9758C78.7148 53.5617 78.2695 53.843 77.5195 53.9016L76.875 53.9484V52.3312C76.875 49.718 76.6289 48.7805 75.6914 47.8547C74.9297 47.0812 74.2969 46.8352 73.0664 46.8352C72.1523 46.8352 71.9297 46.882 71.4141 47.1516C70.6523 47.55 69.7969 48.4875 69.5625 49.2023C69.4219 49.6242 69.375 50.2336 69.375 51.8391V53.925H55.1133C41.0742 53.925 40.8281 53.925 40.4531 53.6906C40.2422 53.5617 39.9727 53.2922 39.8438 53.0812C39.6211 52.7062 39.6094 52.4719 39.6094 47.7727C39.6094 43.0734 39.6211 42.8391 39.8438 42.4641C39.9727 42.2531 40.2422 41.9836 40.4531 41.8547C40.8281 41.632 41.0625 41.6203 48.457 41.6203L56.0742 41.632L56.7188 42.4055ZM73.8164 48.9797C74.0391 49.0852 74.332 49.3312 74.4609 49.507C74.707 49.8352 74.707 49.9875 74.7656 56.9133L74.8242 63.9914L75.0938 64.2609C75.3164 64.4953 75.5273 64.5422 76.5586 64.6008C77.4141 64.6594 77.9414 64.7531 78.3633 64.9406C79.207 65.2922 79.957 66.1242 80.2266 66.9797C80.4375 67.6359 80.4375 67.7297 80.1797 70.5305C79.957 73.0148 79.8867 73.4953 79.6289 74.0461C79.207 74.9836 78.3164 75.757 76.4648 76.8352C74.3203 78.0656 74.0039 78.3117 73.6172 79.0031L73.3008 79.5891H65.3789H57.457L57.0938 78.7922C56.8828 78.3586 56.6719 77.7141 56.6016 77.3742C56.5312 76.9992 56.4844 74.257 56.4844 70.6359C56.4844 64.9406 56.4961 64.4953 56.6953 64.132C56.9297 63.6984 57.5508 63.3 57.9844 63.3C58.3359 63.3 58.6758 63.4758 59.1211 63.8859C59.5664 64.2961 59.8828 64.3898 60.293 64.2375C60.7617 64.0617 60.9258 63.7922 60.9375 63.2062C60.9375 62.257 61.4297 61.5773 62.25 61.3781C62.7539 61.2609 63.4336 61.6008 63.832 62.175C64.2422 62.7492 64.6523 62.9016 65.2383 62.6555C65.4961 62.55 65.6367 62.3859 65.6953 62.1633C65.918 61.1789 66.0117 60.9328 66.3281 60.6164C66.7617 60.1828 67.3828 59.9719 67.9219 60.0773C68.4727 60.1711 69.1055 60.757 69.2812 61.3312C69.5391 62.2102 70.3477 62.5031 70.9805 61.9641L71.3086 61.6828L71.3672 55.7648C71.4258 50.0344 71.4375 49.8352 71.6602 49.5188C72.1875 48.8273 73.0781 48.593 73.8164 48.9797ZM73.2422 82.2844V82.9875H65.4492H57.6562V82.2844V81.5812H65.4492H73.2422V82.2844Z" fill="#FF4667"/>
<path d="M67.1604 31.5896C67.0081 31.6716 66.0237 32.6091 64.969 33.6638L63.0589 35.5739L62.1917 34.7419C61.4651 34.0622 61.219 33.8864 60.7385 33.7927C58.9456 33.406 57.5276 34.906 58.0081 36.6989C58.1253 37.1325 58.4182 37.4958 59.8479 38.9489C61.594 40.7185 62.0276 41.0232 62.8831 41.1286C63.844 41.2341 64.2542 40.9294 67.2542 37.8591C68.7776 36.3005 70.1135 34.8708 70.219 34.6599C70.5003 34.156 70.4885 33.1716 70.1956 32.5974C70.0667 32.3513 69.7737 31.9997 69.5393 31.8122C69.176 31.5427 68.9768 31.4841 68.2737 31.4489C67.7229 31.4372 67.3479 31.4724 67.1604 31.5896ZM68.4143 33.6286C68.4378 33.7224 67.3128 34.9528 65.7542 36.4997L63.0471 39.2185L61.4651 37.6364C60.5979 36.7692 59.8831 36.0192 59.8831 35.9607C59.8831 35.9138 59.9651 35.8435 60.0589 35.7966C60.1878 35.7614 60.6214 36.1013 61.4065 36.863C63.1057 38.5036 62.8831 38.5739 65.7425 35.7028C66.9964 34.4372 68.0979 33.4294 68.1917 33.4411C68.2854 33.4646 68.3792 33.5466 68.4143 33.6286Z" fill="#FF4667"/>
<path d="M42.703 44.6668C42.0819 44.9129 41.8944 45.698 42.3163 46.2371L42.5507 46.5418H48.5741H54.5976L54.8319 46.2371C55.1601 45.8269 55.1366 45.3348 54.7968 44.9363L54.5155 44.6082L48.7265 44.5848C45.5507 44.573 42.8319 44.6082 42.703 44.6668Z" fill="#FF4667"/>
<path d="M42.8086 48.9668C42.457 49.0371 42.0703 49.541 42.0703 49.9394C42.0703 50.1152 42.1758 50.3965 42.3164 50.5722L42.5508 50.8769H53.1445C64.9805 50.8769 64.1484 50.9355 64.2891 50.0449C64.3477 49.7051 64.3008 49.5644 64.0664 49.2832L63.7734 48.9433L53.4141 48.9316C47.7305 48.9199 42.9492 48.9316 42.8086 48.9668Z" fill="#FF4667"/>
</g>
</g>
<defs>
<clipPath id="clip0_80_1946">
<rect width="120" height="100" fill="white" transform="translate(0 0.799805)"/>
</clipPath>
<clipPath id="clip1_80_1946">
<rect width="120" height="100" fill="white" transform="translate(0 0.799805)"/>
</clipPath>
</defs>
</svg>
