<svg width="120" height="101" viewBox="0 0 120 101" fill="none" xmlns="http://www.w3.org/2000/svg">
<g clip-path="url(#clip0_80_1958)">
<g clip-path="url(#clip1_80_1958)">
<path fill-rule="evenodd" clip-rule="evenodd" d="M55.0988 0.804267C65.5199 0.565184 72.9576 9.99294 82.1187 14.966C93.1796 20.9705 107.858 22.1015 114.275 32.9281C121.071 44.393 120.842 59.5361 115.867 71.9004C111.04 83.8957 100.061 92.5647 88.2033 97.72C77.8279 102.231 66.3531 99.4758 55.0988 98.32C45.127 97.2959 35.4289 96.1241 26.5915 91.3926C16.5645 86.0241 4.83112 80.4468 1.43907 69.5907C-1.94702 58.7537 4.52364 47.505 9.72526 37.4129C14.2101 28.7114 21.3463 22.3324 28.965 16.1855C37.0291 9.67909 44.7399 1.04192 55.0988 0.804267Z" fill="#DDD7FF"/>
<mask id="mask0_80_1958" style="mask-type:luminance" maskUnits="userSpaceOnUse" x="32" y="31" width="50" height="51">
<path d="M82 31.7998H32V81.7998H82V31.7998Z" fill="white"/>
</mask>
<g mask="url(#mask0_80_1958)">
<path d="M39.2461 36.0771L34.9199 40.3447L34.9297 55.7744V71.2041L35.1641 71.7021C35.4277 72.2588 35.9844 72.7764 36.4922 72.9131C36.6777 72.9717 37.127 73.0107 37.498 73.0107H38.1523V73.665C38.1523 74.7685 38.6113 75.5205 39.5195 75.9306C39.9492 76.126 40.1152 76.1357 48.4844 76.1357H57V76.8974C57 77.7861 57.1953 78.6064 57.5664 79.2998C57.918 79.9736 58.8848 80.9306 59.5293 81.2627C60.623 81.8096 60.3789 81.7998 67.9961 81.7998C74.1875 81.7998 75.0957 81.7803 75.5645 81.6435C77.2832 81.126 78.6016 79.7197 78.9629 78.0107C79.0312 77.6592 79.0703 75.3154 79.0703 70.8135C79.0703 66.3115 79.0312 63.9678 78.9629 63.6162C78.5625 61.6826 76.873 60.1006 74.9199 59.8271C74.5488 59.7783 72.8008 59.7295 71.043 59.7295H67.8398V48.0498V36.3701L68.4258 36.4092C68.8652 36.4385 69.0703 36.5068 69.2363 36.6631L69.4512 36.8877L69.5 47.2392C69.5488 57.3467 69.5488 57.6006 69.7344 57.7373C70.0273 57.9424 70.6035 57.9131 70.8281 57.6689C71.0039 57.4736 71.0137 57.1318 71.043 47.249C71.0723 36.0283 71.0918 36.4189 70.4766 35.6865C70.0664 35.1885 69.4512 34.9248 68.5918 34.8564L67.8691 34.7978L67.8105 34.0654C67.7422 33.1963 67.4297 32.6006 66.7754 32.1416L66.3555 31.8486L56.6582 31.8193L46.9609 31.7998L46.7559 32.0537C46.4922 32.3857 46.4922 32.6787 46.7559 33.0107L46.9512 33.2646H56.1797C66.2285 33.2646 65.9746 33.2549 66.1797 33.8017C66.2383 33.9678 66.2773 38.626 66.2773 46.8877V59.7099L63.6211 59.749C61.2676 59.7881 60.8867 59.8174 60.3496 59.9931C58.7773 60.5107 57.5664 61.8096 57.1465 63.4111C57.0293 63.8603 57 64.7099 57 67.708V71.4482H46.9902H36.9707L36.7363 71.2041L36.4922 70.9697V56.2139V41.4678H39.7441C42.6836 41.4678 43.0254 41.4482 43.3867 41.2822C43.8652 41.0576 44.4316 40.4228 44.5781 39.915C44.6562 39.6611 44.6953 38.3721 44.6953 35.8623C44.6953 32.3174 44.6855 32.1807 44.5 31.9951C44.373 31.8682 44.1777 31.7998 43.9434 31.7998C43.5918 31.8096 43.3867 31.9853 39.2461 36.0771ZM43.1328 36.9658C43.1328 39.4072 43.1328 39.4072 42.8984 39.6807L42.6641 39.9541L40.1348 39.9834L37.6152 40.0127L40.3496 37.2685C41.8535 35.7646 43.0938 34.5342 43.1035 34.5342C43.123 34.5342 43.1328 35.6279 43.1328 36.9658ZM75.5742 61.6631C76.2969 62.0146 76.8633 62.5908 77.2344 63.3232L77.459 63.7822V70.7646V77.7471L77.1367 78.4014C76.7559 79.1826 76.1504 79.749 75.3691 80.0615L74.8223 80.2861H68.0352H61.248L60.6914 80.0615C59.9492 79.7588 59.2266 79.0947 58.8848 78.4014L58.6113 77.8447V70.8135C58.6113 63.8115 58.6113 63.7822 58.8262 63.3232C59.2559 62.3857 60.252 61.5947 61.2383 61.3896C61.4531 61.3506 64.627 61.3213 68.2793 61.3213L74.9199 61.3408L75.5742 61.6631ZM57 73.792V74.5732H48.6016H40.1934L39.959 74.3291C39.7539 74.1338 39.7148 73.9971 39.7148 73.5478V73.0107H48.3574H57V73.792Z" fill="#392C7D"/>
<path d="M67.2345 63.3721C66.9806 63.4502 66.6291 63.6163 66.4435 63.7627C66.0138 64.085 62.0588 69.0459 61.8928 69.4659C61.7267 69.8858 61.7951 71.0088 62.0197 71.4678C62.2443 71.9463 62.7521 72.4444 63.2111 72.669C63.4162 72.7666 63.8849 72.8643 64.2463 72.8936L64.9104 72.9424V74.9932C64.9104 77.3272 64.9787 77.6299 65.6623 78.0889C66.0041 78.3233 66.092 78.3331 67.6838 78.3624C69.7638 78.4014 70.0959 78.3624 70.5451 77.962C71.1213 77.4541 71.1604 77.2588 71.1604 74.9639V72.9131H71.6877C72.6935 72.9131 73.553 72.3956 74.012 71.4971C74.2952 70.96 74.3537 70.003 74.1486 69.4756C74.0607 69.2315 73.0842 67.9327 71.8635 66.419C69.5197 63.5088 69.3732 63.3819 68.2795 63.294C67.9377 63.2647 67.508 63.3038 67.2345 63.3721ZM68.4748 64.9249C68.6994 65.0225 72.342 69.4659 72.6154 69.9639C72.801 70.3057 72.7424 70.6475 72.4396 70.9795C72.1564 71.3018 72.1564 71.3018 71.0822 71.3311C69.5588 71.3799 69.6565 71.1749 69.5979 74.2706L69.549 76.7706H68.0354H66.5217L66.4729 74.251C66.4143 71.1944 66.4827 71.3506 65.096 71.3506C63.8264 71.3506 63.3478 71.0967 63.3478 70.4229C63.3478 70.2862 63.3967 70.0713 63.4553 69.9542C63.6896 69.5245 67.3616 65.0323 67.5764 64.9249C67.8694 64.7881 68.172 64.7881 68.4748 64.9249Z" fill="#392C7D"/>
<path d="M48.2111 36.2529C46.6877 36.9072 46.297 38.9678 47.4689 40.1396C48.1525 40.833 48.1623 40.833 52.5568 40.833C56.883 40.833 56.9318 40.8232 57.6154 40.208C58.1427 39.7393 58.3673 39.2217 58.3673 38.46C58.3673 37.4443 57.928 36.7412 57.0491 36.331C56.5608 36.0967 56.5607 36.0967 52.5568 36.0967C49.1974 36.1064 48.4943 36.126 48.2111 36.2529ZM56.5608 37.9033C56.8928 38.2256 56.8928 38.7139 56.551 39.0361L56.297 39.2705L52.8206 39.2998C48.9924 39.3291 48.6995 39.2998 48.4553 38.831C48.2503 38.4404 48.2697 38.3037 48.5627 37.9619L48.8166 37.6592H52.5666H56.3263L56.5608 37.9033Z" fill="#392C7D"/>
<path d="M40.7502 45.6768C40.4084 45.9404 40.3986 46.5166 40.7209 46.8193L40.9455 47.0342H51.3947C61.7756 47.0342 61.8439 47.0342 62.0588 46.8389C62.381 46.5361 62.3517 45.9404 62.0197 45.6768C61.756 45.4717 61.7365 45.4717 51.3849 45.4717C41.0334 45.4717 41.0138 45.4717 40.7502 45.6768Z" fill="#392C7D"/>
<path d="M40.6917 50.0615C40.4378 50.3154 40.4378 50.8428 40.682 51.1455L40.8675 51.3799H51.3656C61.5511 51.3799 61.8734 51.3701 62.0687 51.1943C62.3421 50.9404 62.3519 50.335 62.0784 50.0615C61.8831 49.8662 61.7562 49.8662 51.3851 49.8662C41.014 49.8662 40.887 49.8662 40.6917 50.0615Z" fill="#392C7D"/>
<path d="M40.75 54.3682C40.5547 54.5244 40.4961 54.6514 40.4961 54.9443C40.4961 55.2373 40.5547 55.3643 40.75 55.5205C41.0039 55.7256 41.082 55.7256 47.7715 55.7256C54.4609 55.7256 54.5391 55.7256 54.793 55.5205C55.1543 55.2373 55.1543 54.6514 54.793 54.3682C54.5391 54.1631 54.4609 54.1631 47.7715 54.1631C41.082 54.1631 41.0039 54.1631 40.75 54.3682Z" fill="#392C7D"/>
<path d="M57.2539 54.3682C56.8926 54.6514 56.8926 55.2373 57.2539 55.5205C57.498 55.7158 57.6348 55.7256 59.6855 55.7256C61.8242 55.7256 61.8535 55.7256 62.0586 55.501C62.3711 55.1689 62.3516 54.6318 62.0195 54.3682C61.7754 54.1728 61.6387 54.1631 59.6367 54.1631C57.6348 54.1631 57.498 54.1728 57.2539 54.3682Z" fill="#392C7D"/>
<path d="M40.6914 58.7529C40.5742 58.8701 40.4961 59.0752 40.4961 59.29C40.4961 59.5049 40.5742 59.71 40.6914 59.8271C40.877 60.0127 41.0137 60.0225 45.6719 60.0225C50.3301 60.0225 50.4668 60.0127 50.6523 59.8271C50.7695 59.71 50.8477 59.5049 50.8477 59.29C50.8477 59.0752 50.7695 58.8701 50.6523 58.7529C50.4668 58.5674 50.3301 58.5576 45.6719 58.5576C41.0137 58.5576 40.877 58.5674 40.6914 58.7529Z" fill="#392C7D"/>
<path d="M40.75 63.0596C40.5547 63.2158 40.4961 63.3428 40.4961 63.6357C40.4961 63.9287 40.5547 64.0557 40.75 64.2119C41.0039 64.417 41.1016 64.417 45.6719 64.417C50.2422 64.417 50.3398 64.417 50.5938 64.2119C50.9551 63.9287 50.9551 63.3428 50.5938 63.0596C50.3398 62.8545 50.2422 62.8545 45.6719 62.8545C41.1016 62.8545 41.0039 62.8545 40.75 63.0596Z" fill="#392C7D"/>
</g>
</g>
</g>
<defs>
<clipPath id="clip0_80_1958">
<rect width="120" height="100" fill="white" transform="translate(0 0.799805)"/>
</clipPath>
<clipPath id="clip1_80_1958">
<rect width="120" height="100" fill="white" transform="translate(0 0.799805)"/>
</clipPath>
</defs>
</svg>
