<svg width="30" height="32" viewBox="0 0 30 32" fill="none" xmlns="http://www.w3.org/2000/svg">
<g clip-path="url(#clip0_80_1801)">
<g clip-path="url(#clip1_80_1801)">
<path d="M13.3009 1.35211C12.0294 1.52789 10.2482 2.01422 9.97863 2.27203C9.82042 2.41266 9.79699 2.74664 9.93175 2.94C10.0724 3.13922 10.295 3.15094 10.7814 2.98688C12.2579 2.48297 13.2189 2.30719 14.7716 2.27203C16.4591 2.23102 17.5724 2.3775 19.0724 2.84039C19.7052 3.03375 19.922 3.03375 20.0685 2.82281C20.2032 2.62946 20.1798 2.29547 20.0275 2.14899C19.7814 1.92633 18.1935 1.51617 16.9161 1.34625C16.0489 1.23492 14.1505 1.24078 13.3009 1.35211Z" fill="#392C7D"/>
<path d="M4.37113 2.28418C3.47465 2.53027 2.59574 3.25684 2.21488 4.07129C2.09769 4.31152 1.97465 4.63965 1.93363 4.80371C1.83988 5.20801 1.8516 6.08106 1.96293 6.50293C2.0684 6.90137 2.42582 7.59277 2.61918 7.77442L2.75394 7.89746V7.75098C2.75394 7.52246 2.96488 6.97168 3.15824 6.68457C3.25785 6.54395 3.48636 6.29199 3.668 6.13379L3.99613 5.84082L3.82035 5.60059C3.18754 4.72754 3.64457 3.34473 4.66996 2.99316C5.27347 2.78809 5.95316 2.91699 6.41605 3.32129C7.08988 3.91895 7.22465 4.95606 6.71488 5.64746L6.57425 5.83496L6.99613 6.25684C7.45902 6.71387 7.71097 7.15332 7.77543 7.61621L7.81058 7.88574L7.94535 7.75684C8.12699 7.58692 8.46097 6.93066 8.58402 6.51465C8.71293 6.05762 8.71879 5.20801 8.58988 4.72168C8.29691 3.5791 7.30668 2.58887 6.15238 2.28418C5.75394 2.17871 4.76371 2.17871 4.37113 2.28418Z" fill="#FF4667"/>
<path d="M23.8243 2.28418C22.9336 2.53027 22.0606 3.24512 21.6563 4.07129C21.2813 4.83887 21.1993 5.70606 21.4278 6.53223C21.5333 6.92481 21.8731 7.58692 22.0547 7.75684L22.1895 7.88574L22.2247 7.61621C22.2891 7.15332 22.5411 6.71387 23.004 6.25684L23.4258 5.83496L23.2852 5.64746C22.6348 4.7627 23.0801 3.35059 24.1231 2.99316C24.7266 2.78809 25.4063 2.91699 25.8692 3.32129C26.5372 3.90723 26.6719 4.9209 26.1797 5.60059L26.004 5.84082L26.3321 6.13379C26.5137 6.29199 26.7422 6.54395 26.8418 6.68457C27.0352 6.97168 27.2461 7.5166 27.2461 7.75684L27.252 7.90918L27.4219 7.70996C27.6622 7.42871 27.9317 6.90137 28.0372 6.49707C28.1485 6.08106 28.1602 5.20801 28.0665 4.80371C27.7793 3.61426 26.7891 2.60059 25.6055 2.28418C25.2071 2.17871 24.2168 2.17871 23.8243 2.28418Z" fill="#392C7D"/>
<path d="M4.88701 3.83106C4.72295 3.90137 4.46514 4.21778 4.41826 4.39942C4.35967 4.62793 4.42998 4.98536 4.56475 5.17872C4.72295 5.39551 5.13896 5.56543 5.40264 5.5127C5.86553 5.42481 6.15264 5.08497 6.15264 4.62793C6.15264 4.38184 6.04717 4.15332 5.83623 3.95997C5.71904 3.84864 5.60771 3.81348 5.34404 3.7959C5.1624 3.79004 4.95732 3.80176 4.88701 3.83106Z" fill="#392C7D"/>
<path d="M24.3749 3.81901C24.328 3.83659 24.2226 3.9069 24.1523 3.97721C23.6952 4.38737 23.7655 5.10807 24.287 5.40104C24.5858 5.57096 24.8085 5.57096 25.1366 5.40104C25.6933 5.11393 25.7694 4.41081 25.289 3.95963C25.1718 3.84831 25.0605 3.81315 24.7968 3.79557C24.6151 3.78971 24.4218 3.79557 24.3749 3.81901Z" fill="#FF4667"/>
<path d="M4.74023 6.49185C4.37695 6.62662 4.10742 6.82583 3.93164 7.07779C3.71484 7.40591 3.63867 7.65201 3.5918 8.15591L3.55664 8.57193L3.78516 8.68912C4.64648 9.12857 5.90039 9.12857 6.76172 8.68912L6.99023 8.57193L6.95508 8.1149C6.89648 7.3649 6.63867 6.92544 6.08789 6.62076C5.71875 6.42154 5.08594 6.36294 4.74023 6.49185Z" fill="#392C7D"/>
<path d="M24.1816 6.49664C23.4316 6.76617 23.0273 7.41657 23.0273 8.35992C23.0273 8.55328 23.0508 8.5943 23.25 8.69391C24.0996 9.1275 25.3594 9.1275 26.2148 8.68805L26.4434 8.57086L26.4082 8.15485C26.3496 7.45758 26.1387 7.02399 25.7227 6.73688C25.2656 6.42047 24.6621 6.32672 24.1816 6.49664Z" fill="#FF4667"/>
<path d="M11.4962 11.4484C9.59192 12.2746 7.98645 12.9777 7.93957 13.007C7.86926 13.0539 8.70715 13.4347 11.4259 14.6066L15.006 16.1476L16.3068 15.5851C17.0216 15.2746 17.6251 15.005 17.6486 14.9816C17.672 14.9582 17.0392 14.7004 16.2423 14.4132C15.4454 14.1203 14.7482 13.839 14.6954 13.7804C14.4493 13.5402 14.6427 13.0714 14.9884 13.0773C15.0763 13.0773 15.9493 13.3761 16.9337 13.7394C17.9181 14.1027 18.7677 14.4132 18.8204 14.425C18.9435 14.4601 22.1603 13.0832 22.1017 13.0246C22.0665 12.9894 15.1818 10.007 15.0294 9.96011C15.0001 9.94839 13.4064 10.6164 11.4962 11.4484Z" fill="#392C7D"/>
<path d="M1.35966 10.7687C1.23076 10.9035 0.902635 11.9464 0.738573 12.7433C0.351854 14.6242 0.375292 16.8742 0.797167 18.7668C0.990526 19.6457 1.33037 20.6535 1.48271 20.8117C1.55888 20.8996 1.67021 20.9464 1.79912 20.9464C2.06865 20.9464 2.19755 20.8703 2.28544 20.6593C2.3499 20.5011 2.33232 20.4132 2.15068 19.8507C1.64677 18.3156 1.51787 17.5832 1.48271 16.0187C1.44169 14.3312 1.58818 13.2179 2.05107 11.7179C2.24443 11.0851 2.24443 10.8683 2.03349 10.7218C1.84013 10.5871 1.50615 10.6105 1.35966 10.7687Z" fill="#392C7D"/>
<path d="M27.8495 10.7218C27.6385 10.8683 27.6385 11.0851 27.8319 11.6593C28.3007 13.0421 28.4823 14.05 28.5174 15.5324C28.5643 17.1906 28.4178 18.3039 27.9725 19.7804C27.7499 20.5128 27.7499 20.7062 27.9667 20.8585C28.16 20.9933 28.494 20.9699 28.6405 20.8117C28.8632 20.5714 29.2733 18.9835 29.4432 17.7062C29.5604 16.8039 29.5604 15.0695 29.4432 14.1671C29.2674 12.8312 28.787 11.05 28.5174 10.7628C28.3768 10.6105 28.0428 10.5871 27.8495 10.7218Z" fill="#392C7D"/>
<path d="M10.7812 17.3839C10.7812 18.5206 10.8105 19.5577 10.8398 19.6807C10.9043 19.962 11.0509 20.1729 11.3087 20.3428L11.502 20.4776H15H18.498L18.6915 20.3428C18.9493 20.1729 19.0957 19.962 19.1602 19.6807C19.1895 19.5577 19.2188 18.5674 19.2188 17.4835V15.5147L19.0781 15.4503C18.9609 15.3975 18.6738 15.5089 16.9688 16.2354L15 17.085L12.9492 16.2003C11.8242 15.7198 10.875 15.3213 10.8398 15.3213C10.7988 15.3213 10.7812 16.0186 10.7812 17.3839Z" fill="#FF4667"/>
<path d="M4.86323 21.655C4.06636 21.7429 3.36909 22.0945 2.78315 22.7156C2.38472 23.1316 2.06245 23.7234 1.93354 24.2566C1.77534 24.9246 1.88667 25.9558 2.17378 26.53C2.3437 26.8582 2.63081 27.2742 2.6894 27.2742C2.7187 27.2742 2.75386 27.1628 2.77729 27.0339C2.84761 26.5886 3.09956 26.155 3.55659 25.7039L3.98433 25.282L3.8144 25.0476C3.18745 24.1804 3.64448 22.7918 4.66987 22.446C5.27339 22.241 5.95308 22.3699 6.41597 22.7742C7.08393 23.366 7.22456 24.3679 6.72651 25.0535L6.55659 25.2878L6.96675 25.6687C7.41206 26.0789 7.69331 26.5593 7.76948 27.0281C7.79292 27.1628 7.82808 27.2742 7.85737 27.2742C7.998 27.2742 8.42573 26.5007 8.58393 25.9617C8.71284 25.5164 8.7187 24.6609 8.58979 24.1746C8.16206 22.5281 6.59761 21.4734 4.86323 21.655Z" fill="#392C7D"/>
<path d="M24.3163 21.6553C22.4648 21.8487 21.1112 23.5655 21.328 25.4346C21.3808 25.921 21.4687 26.2139 21.6796 26.6358C21.8319 26.9405 22.078 27.2745 22.1425 27.2745C22.1718 27.2745 22.2069 27.1631 22.2304 27.0284C22.3065 26.5596 22.5878 26.0792 23.0331 25.669L23.4491 25.2881L23.2968 25.0889C22.9687 24.6612 22.8866 24.087 23.0683 23.5186C23.203 23.0967 23.6952 22.5928 24.1054 22.4522C24.7265 22.2413 25.4003 22.3643 25.869 22.7745C26.5312 23.3604 26.6718 24.3741 26.1855 25.0479L26.0155 25.2823L26.4433 25.7042C26.8944 26.1495 27.0819 26.4659 27.1991 26.9698C27.2401 27.1397 27.2929 27.2745 27.3163 27.2745C27.369 27.2745 27.6679 26.8409 27.8261 26.5303C28.0253 26.1319 28.1308 25.6456 28.1308 25.0772C28.1366 24.0753 27.8319 23.337 27.1347 22.6456C26.3378 21.8487 25.4413 21.5381 24.3163 21.6553Z" fill="#FF4667"/>
<path d="M4.74618 23.3838C4.38876 23.6884 4.29501 24.1279 4.50009 24.5205C4.61727 24.7431 5.02157 24.9892 5.27352 24.9892C5.52548 24.9892 5.92977 24.7431 6.04696 24.5205C6.25204 24.1279 6.15829 23.6884 5.80087 23.3838C5.64852 23.2548 5.55477 23.2314 5.27352 23.2314C4.99227 23.2314 4.89852 23.2548 4.74618 23.3838Z" fill="#FF4667"/>
<path d="M24.1993 23.3838C23.8419 23.6884 23.7481 24.1279 23.9532 24.5205C24.0704 24.7431 24.4747 24.9892 24.7266 24.9892C24.9786 24.9892 25.3829 24.7431 25.5001 24.5205C25.7052 24.1279 25.6114 23.6884 25.254 23.3838C25.1016 23.2548 25.0079 23.2314 24.7266 23.2314C24.4454 23.2314 24.3516 23.2548 24.1993 23.3838Z" fill="#392C7D"/>
<path d="M4.72852 25.9505C3.97852 26.22 3.57422 26.8704 3.57422 27.8137C3.57422 28.013 3.59766 28.0481 3.80859 28.1536C4.62305 28.5696 5.93555 28.5637 6.76172 28.1419L6.99023 28.0247L6.95508 27.5677C6.89648 26.7884 6.62109 26.3489 6.02344 26.0501C5.61914 25.845 5.13281 25.8098 4.72852 25.9505Z" fill="#FF4667"/>
<path d="M23.9824 26.0451C23.373 26.3498 23.1152 26.7716 23.0508 27.5568L23.0098 28.0255L23.2383 28.1427C24.0703 28.5646 25.377 28.5705 26.2031 28.1486L26.4434 28.0255L26.4082 27.6095C26.3613 27.0998 26.2793 26.8361 26.0391 26.5021C25.7754 26.1271 25.3418 25.9103 24.7852 25.881C24.3809 25.8634 24.3164 25.8751 23.9824 26.0451Z" fill="#392C7D"/>
<path d="M19.2775 28.5694C17.9357 29.0616 16.7814 29.2725 15.2286 29.3077C13.5411 29.3487 12.4278 29.2022 10.9278 28.7393C10.295 28.546 10.0782 28.546 9.93175 28.7569C9.79699 28.9503 9.82042 29.2842 9.97863 29.4307C10.2189 29.6534 11.8068 30.0635 13.0841 30.2335C13.9864 30.3506 15.7208 30.3506 16.6232 30.2335C17.9474 30.0577 19.7403 29.5713 20.0275 29.3077C20.1857 29.1612 20.2032 28.8096 20.0568 28.628C19.9044 28.4522 19.6466 28.4346 19.2775 28.5694Z" fill="#392C7D"/>
</g>
</g>
<defs>
<clipPath id="clip0_80_1801">
<rect width="30" height="31" fill="white" transform="translate(0 0.290039)"/>
</clipPath>
<clipPath id="clip1_80_1801">
<rect width="30" height="31" fill="white" transform="translate(0 0.290039)"/>
</clipPath>
</defs>
</svg>
