<svg width="30" height="32" viewBox="0 0 30 32" fill="none" xmlns="http://www.w3.org/2000/svg">
<g clip-path="url(#clip0_80_1827)">
<g clip-path="url(#clip1_80_1827)">
<path d="M15.498 1.99689C12.8086 2.49494 10.6348 4.34064 9.76758 6.85431C9.65625 7.17658 9.52147 7.6922 9.46288 7.99689C9.38085 8.46564 9.33398 8.58283 9.16992 8.76447C8.86523 9.09845 8.81836 9.32111 8.81836 10.3407C8.81836 11.3251 8.85352 11.4598 9.19336 11.8231C9.51563 12.1747 9.7207 12.2333 10.7812 12.2626L11.7539 12.286L11.9824 12.7899C12.3047 13.4872 12.9141 14.3895 13.4238 14.9227L13.8574 15.368L12.5098 15.3915C11.2148 15.4149 11.1445 15.4208 10.7461 15.5731C10.1602 15.7958 9.83203 15.9891 9.45117 16.3407C9.06445 16.6922 8.67188 17.1727 8.67188 17.2899C8.67188 17.3602 9.84375 17.3719 16.8164 17.3719C22.5586 17.3719 24.9609 17.3544 24.9609 17.3075C24.9609 17.0379 24.0469 16.1473 23.4551 15.8309C22.7402 15.4559 22.3125 15.3797 20.9297 15.3797H19.7344L20.1445 14.952C20.373 14.7235 20.6602 14.4012 20.7773 14.243C21.0703 13.8563 21.5801 12.9833 21.7383 12.6024L21.8613 12.286L22.8105 12.2626C23.8418 12.2333 24.0762 12.1747 24.3984 11.8758C24.7324 11.5653 24.7852 11.3485 24.7852 10.2938C24.7852 9.24494 24.7559 9.10431 24.4336 8.73517C24.2695 8.55353 24.2285 8.43634 24.1582 8.01447C23.9297 6.5672 23.0801 4.97345 21.9844 3.94806C21.0176 3.034 19.9277 2.43634 18.6035 2.0965C17.8535 1.909 16.2539 1.85041 15.498 1.99689ZM18.3691 3.27424C19.4766 3.56134 20.6836 4.27619 21.4219 5.08478C22.2129 5.94611 22.7168 6.9422 22.9922 8.18439L23.0273 8.34845H22.6816H22.3359L22.2422 7.95002C21.9902 6.9715 21.5215 6.10431 20.8359 5.37775C20.2793 4.78595 19.8105 4.44025 19.1367 4.12384C18.3105 3.73713 17.8594 3.64337 16.8457 3.63752C15.832 3.63166 15.3223 3.73713 14.4844 4.1297C12.9727 4.83869 11.7949 6.29181 11.3965 7.93244L11.291 8.34845H10.9453H10.5996L10.6406 8.1258C10.7109 7.7215 11.0215 6.85431 11.2559 6.41486C12.1699 4.71564 13.7988 3.53205 15.7441 3.16291C16.4414 3.034 17.625 3.08088 18.3691 3.27424ZM20.6543 7.15314C20.9766 7.64533 21.2168 8.63556 21.2168 9.45588C21.2168 10.745 20.7949 12.0633 20.0156 13.2411C19.0137 14.7352 17.6367 15.5262 16.3945 15.3211C15.6445 15.1922 14.7363 14.6356 14.1445 13.9383L13.8926 13.6454L14.3145 13.7215C14.5488 13.7626 14.8301 13.7919 14.9473 13.7977C15.1289 13.7977 15.1758 13.827 15.2285 13.9618C15.334 14.2137 15.6973 14.5594 15.9961 14.7001C16.377 14.8758 17.1035 14.87 17.4434 14.6883C18.0527 14.3661 18.3633 13.8797 18.3574 13.2352C18.3516 12.7782 18.1992 12.4325 17.8594 12.1219C17.4844 11.7762 17.1562 11.6649 16.5879 11.7001C15.9609 11.7352 15.5977 11.952 15.2344 12.5028L15.1465 12.6317L14.5781 12.5438C14.0566 12.4559 13.1777 12.2157 13.0312 12.1161C12.9316 12.0399 12.6797 11.3544 12.5391 10.7508C12.3809 10.0887 12.3516 9.10431 12.4746 8.51252C12.5508 8.11994 12.5566 8.11408 12.7969 8.04377C12.9258 8.00275 13.3418 7.97345 13.7109 7.97931C14.4141 7.97931 14.7656 8.06134 15.6738 8.41291C16.1719 8.60627 17.168 8.60627 17.8418 8.41877C18.4395 8.24884 19.4707 7.73322 20.0391 7.32892C20.2793 7.15314 20.4961 7.00666 20.5137 7.00666C20.5371 7.0008 20.5957 7.07111 20.6543 7.15314Z" fill="#FF4667"/>
<path d="M4.45318 10.8144C3.49224 10.9257 2.58989 11.4824 2.15044 12.2324C1.752 12.9062 1.70513 13.8671 2.03325 14.5585C2.36724 15.2675 2.99419 15.8183 3.79693 16.0937C4.35943 16.287 5.42583 16.287 5.98833 16.0937L6.38091 15.9589L6.77935 16.082C7.24224 16.2284 8.10943 16.3105 8.16802 16.2109C8.19146 16.1757 8.1563 16.0409 8.09185 15.912C8.02154 15.7831 7.90435 15.4843 7.82818 15.2499L7.68169 14.8163L7.82232 14.4062C8.02154 13.8495 8.02154 13.1874 7.82818 12.6601C7.37114 11.3886 5.98833 10.6327 4.45318 10.8144Z" fill="#392C7D"/>
<path d="M6.59207 18.5674C6.2698 18.7139 5.94754 19.0421 5.82449 19.3409C5.7073 19.6221 5.71902 19.9678 5.97683 24.2862C6.10574 26.4307 6.21121 28.253 6.21121 28.3409V28.4991L3.94949 28.5167L1.68777 28.5342L1.54715 28.6983C1.34207 28.9385 1.35379 29.3077 1.57058 29.5186L1.73465 29.6768H15.0061H28.2776L28.4358 29.5128C28.6467 29.2901 28.6526 28.9327 28.4534 28.6983C28.3303 28.5518 28.2717 28.5342 27.8674 28.5167C27.4573 28.4932 27.4221 28.4815 27.4221 28.3643C27.4162 28.2999 27.5276 26.3135 27.6682 23.9639C27.9143 19.7335 27.9143 19.6807 27.8088 19.3995C27.6623 19.0186 27.3987 18.7315 27.0412 18.5674L26.7483 18.4268H16.8166H6.88504L6.59207 18.5674ZM17.6252 22.171C18.4221 22.5811 18.8264 23.5596 18.5393 24.4151C18.4045 24.8311 17.8479 25.3936 17.4377 25.5342C16.0198 26.0147 14.6604 24.7256 15.0588 23.2784C15.1994 22.7803 15.7502 22.2178 16.2541 22.0596C16.5705 21.96 17.344 22.0245 17.6252 22.171Z" fill="#FF4667"/>
</g>
</g>
<defs>
<clipPath id="clip0_80_1827">
<rect width="30" height="31" fill="white" transform="translate(0 0.290039)"/>
</clipPath>
<clipPath id="clip1_80_1827">
<rect width="30" height="31" fill="white" transform="translate(0 0.290039)"/>
</clipPath>
</defs>
</svg>
