<svg width="30" height="32" viewBox="0 0 30 32" fill="none" xmlns="http://www.w3.org/2000/svg">
<g clip-path="url(#clip0_80_1778)">
<g clip-path="url(#clip1_80_1778)">
<mask id="mask0_80_1778" style="mask-type:luminance" maskUnits="userSpaceOnUse" x="0" y="0" width="30" height="31">
<path d="M30 0.790039H0V30.79H30V0.790039Z" fill="white"/>
</mask>
<g mask="url(#mask0_80_1778)">
<path d="M22.5642 1.31296C21.656 1.41843 21.5622 1.4653 21.5622 1.78757C21.5622 2.0571 21.7439 2.16257 22.154 2.12155C22.3474 2.10397 22.4997 2.09811 22.488 2.10983C22.406 2.186 21.0407 3.00046 20.4196 3.3403C16.6989 5.4028 11.9177 7.15475 8.02702 7.88718C7.25944 8.0278 7.13639 8.10397 7.15983 8.4028C7.18913 8.76022 7.34147 8.78366 8.26725 8.61374C12.9021 7.75827 18.9899 5.33249 22.8103 2.81882L22.9685 2.70749L22.8513 2.98874C22.7868 3.13522 22.7341 3.32272 22.7341 3.39304C22.7341 3.69186 23.0857 3.86764 23.3083 3.68014C23.4548 3.5571 24.3161 1.71725 24.3161 1.52389C24.3161 1.17819 24.029 1.14303 22.5642 1.31296Z" fill="#FF4667"/>
<path d="M20.5078 7.67481V10.0478H22.1191H23.7305V7.67481V5.30176H22.1191H20.5078V7.67481Z" fill="#392C7D"/>
<path d="M15.9961 12.1279V17.0205H16.875H17.7539V16.6103C17.7539 16.1709 17.8535 15.8486 18.0586 15.6318C18.1758 15.5088 18.1758 15.4912 18.0879 15.3916C17.8594 15.1396 17.7539 14.7763 17.7539 14.208C17.7539 13.6396 17.8594 13.2763 18.0879 13.0244C18.1758 12.9248 18.1758 12.9072 18.0586 12.7841C17.8359 12.5498 17.7539 12.2509 17.7539 11.706C17.7539 11.0732 17.8242 10.8095 18.0586 10.54C18.2812 10.2881 18.5801 10.1299 18.9434 10.0772L19.2188 10.0361V8.63574V7.23535H17.6074H15.9961V12.1279Z" fill="#392C7D"/>
<path d="M11.543 13.0947V17.0205H13.125H14.707V13.0947V9.16895H13.125H11.543V13.0947Z" fill="#392C7D"/>
<path d="M18.8262 10.7589C18.4863 10.8585 18.3984 11.046 18.3984 11.6671C18.3984 12.1885 18.4043 12.2237 18.5684 12.4053L18.7383 12.5987L20.7422 12.6163L22.7402 12.6339L23.2148 12.1885C23.5312 11.8897 23.8184 11.6846 24.1055 11.544C24.3398 11.4327 24.5625 11.3389 24.6035 11.3389C24.709 11.3389 24.6797 11.1339 24.5508 10.9698C24.4805 10.8819 24.3281 10.7881 24.2109 10.753C23.9355 10.6768 19.0898 10.6827 18.8262 10.7589Z" fill="#FF4667"/>
<path d="M7.03125 14.0322V17.0205H8.64258H10.2539V14.0322V11.0439H8.64258H7.03125V14.0322Z" fill="#392C7D"/>
<path d="M25.4004 11.8136C24.1699 11.9367 23.0859 12.8742 22.7637 14.0988C22.6523 14.5031 22.6523 15.3234 22.7637 15.7277C22.8867 16.2023 23.1387 16.6594 23.4844 17.0285C24.1055 17.7023 24.8379 18.0246 25.752 18.0246C26.6777 18.0304 27.3809 17.7492 27.9961 17.1281C28.6113 16.5187 28.9102 15.7922 28.9102 14.9133C28.9102 14.0344 28.6113 13.3078 27.9961 12.6984C27.3105 12.007 26.4258 11.7082 25.4004 11.8136ZM25.9629 12.6867C26.0273 12.7277 26.0859 12.839 26.1094 12.9797C26.1328 13.1203 26.1797 13.214 26.2266 13.214C26.3555 13.214 26.7305 13.5773 26.8125 13.7824C26.9238 14.0461 26.9121 14.2336 26.7773 14.3566C26.6074 14.5148 26.3555 14.4152 26.2734 14.1633C26.1797 13.8703 26.0508 13.7707 25.7695 13.7765C25.5937 13.7824 25.4941 13.8234 25.418 13.9172C25.1777 14.216 25.3301 14.3801 25.9863 14.5324C26.6895 14.6906 27.0117 15.0129 27.0117 15.5519C27.0117 15.9855 26.7715 16.3488 26.3437 16.5715C26.2207 16.6301 26.1504 16.7297 26.1035 16.882C25.9863 17.3097 25.4883 17.2687 25.4883 16.841C25.4883 16.7004 25.4473 16.6535 25.2715 16.5832C24.9668 16.4543 24.7441 16.2316 24.6328 15.9328C24.5156 15.6281 24.5625 15.3996 24.7559 15.3117C24.9375 15.2297 25.1953 15.382 25.1953 15.5754C25.1953 15.7804 25.3535 15.9562 25.5879 16.0207C25.998 16.1379 26.3672 15.9269 26.3672 15.5754C26.3672 15.3293 26.25 15.2531 25.6055 15.0832C24.9902 14.9191 24.7559 14.7258 24.6973 14.3156C24.627 13.8644 24.9434 13.3488 25.3887 13.1965C25.4473 13.173 25.4883 13.0969 25.4883 13.0031C25.4883 12.8273 25.6348 12.6281 25.7637 12.6281C25.8105 12.6281 25.8984 12.6574 25.9629 12.6867Z" fill="#392C7D"/>
<path d="M18.6973 13.3525C18.4688 13.4755 18.4043 13.6689 18.3984 14.1904C18.3984 15.1396 18.4043 15.1455 20.4375 15.1455H22.0137L22.043 14.6298C22.0664 14.3017 22.125 13.9677 22.2246 13.6923L22.3711 13.2705H20.6016C19.248 13.2763 18.8027 13.2939 18.6973 13.3525Z" fill="#FF4667"/>
<path d="M18.7734 15.8496C18.7031 15.8731 18.5918 15.9727 18.5215 16.0606C18.416 16.1953 18.3984 16.2949 18.3984 16.7578C18.3984 17.3848 18.4863 17.5606 18.8555 17.666C19.084 17.7246 23.2031 17.7539 23.2031 17.6895C23.2031 17.6719 23.0742 17.5078 22.9102 17.3321C22.6113 16.9922 22.2363 16.3067 22.1719 15.9785L22.1367 15.791L20.5137 15.7969C19.623 15.7969 18.8379 15.8203 18.7734 15.8496Z" fill="#FF4667"/>
<path d="M9.23438 18.3697C7.99219 18.5104 7.06055 18.7799 6.15234 19.2545C5.47852 19.6061 5.10938 19.9166 4.39453 20.7135L3.85547 21.317L6.78516 24.2467C9.53906 27.0006 9.72656 27.1764 9.82617 27.0885C9.98438 26.9479 10.4824 26.7135 10.8691 26.5904C11.3496 26.4498 12.5625 26.4557 14.0918 26.6197C16.9512 26.9186 18.1934 26.8307 19.8164 26.192C20.6074 25.8815 23.1387 24.6217 24.2168 24.0006C27.6445 22.0319 29.4141 20.4733 29.4141 19.4303C29.4141 18.8092 29.127 18.569 28.4648 18.6217C27.9785 18.6627 27.4336 18.8737 25.6934 19.6998C24.1406 20.4381 23.4961 20.7135 22.7871 20.9537C22.1836 21.1529 21.1055 21.3932 20.5195 21.4518L20.127 21.4869L19.9512 21.7799C19.5762 22.4069 18.7734 22.9752 17.9238 23.2096C17.2969 23.3854 15.6914 23.3561 14.5137 23.151C13.6113 22.9987 13.3008 22.9108 13.3008 22.817C13.3008 22.7936 13.2832 22.735 13.2656 22.6822C13.248 22.6295 13.2891 22.5358 13.3711 22.4537L13.5176 22.3131L14.209 22.4479C15.6563 22.7291 17.1504 22.7701 17.8711 22.5533C18.627 22.3307 19.2188 21.8795 19.4883 21.3229C19.623 21.0533 19.6406 20.9479 19.6172 20.5904C19.5938 20.192 19.5879 20.1627 19.3594 19.9518C19.0723 19.6822 18.7383 19.6002 17.9766 19.6002C17.1797 19.6002 16.3652 19.4596 14.6191 19.0143C12.4219 18.4518 11.8945 18.3639 10.6934 18.3404C10.1484 18.3287 9.49219 18.3404 9.23438 18.3697Z" fill="#FF4667"/>
<path d="M2.25586 21.5686C2.05078 21.6741 1.00195 22.6878 0.755859 23.0217C0.615234 23.2092 0.585938 23.3089 0.585938 23.5667C0.585938 23.7424 0.621094 23.9534 0.667969 24.0413C0.773437 24.2346 6.77344 30.2229 6.95508 30.3167C7.11914 30.3987 7.55859 30.3987 7.76953 30.3167C7.98633 30.2405 9.28711 28.9514 9.4043 28.7053C9.50391 28.4885 9.52148 28.1194 9.42773 27.8792C9.35156 27.6682 3.375 21.6799 3.12891 21.5628C2.88867 21.4514 2.47852 21.4514 2.25586 21.5686Z" fill="#392C7D"/>
</g>
</g>
</g>
<defs>
<clipPath id="clip0_80_1778">
<rect width="30" height="31" fill="white" transform="translate(0 0.290039)"/>
</clipPath>
<clipPath id="clip1_80_1778">
<rect width="30" height="31" fill="white" transform="translate(0 0.290039)"/>
</clipPath>
</defs>
</svg>
