<svg width="120" height="101" viewBox="0 0 120 101" fill="none" xmlns="http://www.w3.org/2000/svg">
<g clip-path="url(#clip0_80_1978)">
<g clip-path="url(#clip1_80_1978)">
<g clip-path="url(#clip2_80_1978)">
<path fill-rule="evenodd" clip-rule="evenodd" d="M55.0988 0.804267C65.5199 0.565184 72.9576 9.99294 82.1187 14.966C93.1796 20.9705 107.858 22.1015 114.275 32.9281C121.071 44.393 120.842 59.5361 115.867 71.9004C111.04 83.8957 100.061 92.5647 88.2033 97.72C77.8279 102.231 66.3531 99.4758 55.0988 98.32C45.127 97.2959 35.4289 96.1241 26.5915 91.3926C16.5645 86.0241 4.83112 80.4468 1.43907 69.5907C-1.94702 58.7537 4.52364 47.505 9.72526 37.4129C14.2101 28.7114 21.3463 22.3324 28.965 16.1855C37.0291 9.67909 44.7399 1.04192 55.0988 0.804267Z" fill="#FFEAAC"/>
<path d="M48.5546 33.022C46.7382 33.3345 45.1073 34.2036 43.9257 35.5025C42.7245 36.8111 42.08 38.3052 41.8261 40.356C41.5233 42.9146 42.6952 45.7661 44.7558 47.4263C49.2772 51.0689 55.9081 49.1548 57.7636 43.6665C58.0272 42.8853 58.0858 42.563 58.1249 41.5669C58.2812 37.2798 55.7714 33.94 51.7577 33.1099C50.8397 32.9243 49.4042 32.8853 48.5546 33.022ZM52.08 34.9068C53.0858 35.2583 53.789 35.7075 54.58 36.4888C55.8202 37.729 56.3866 39.0181 56.455 40.7368C56.5136 42.0357 56.328 42.9536 55.8104 44.0083C55.1366 45.3658 54.2577 46.2349 52.9198 46.8892C51.0644 47.7974 48.9257 47.7974 47.0605 46.9087C45.0585 45.9419 43.8183 44.1743 43.496 41.7915C43.0858 38.8326 45.078 35.8052 48.0663 34.8286C49.2187 34.4575 50.869 34.4868 52.08 34.9068Z" fill="#FFC107"/>
<path d="M49.4043 35.6105C49.2188 35.7863 49.1602 35.9523 49.1602 36.2941C49.1602 36.5676 49.1114 36.7531 49.043 36.7727C47.9981 37.0754 47.2266 37.6418 46.9043 38.3449C46.6407 38.9309 46.6602 39.7121 46.9727 40.3273C47.4414 41.2648 48.2911 41.7531 49.7168 41.8996C50.7325 42.007 51.2305 42.1828 51.4551 42.5246C51.9434 43.2668 50.7227 44.048 49.502 43.7746C48.8282 43.6184 48.5059 43.3645 48.3789 42.8762C48.2325 42.3391 47.9688 42.1047 47.5196 42.1047C46.7481 42.1047 46.4942 42.8469 46.9532 43.8137C47.3145 44.6047 48.0469 45.2004 48.8477 45.3762C49.1407 45.4348 49.1602 45.4641 49.1602 45.8547C49.1602 46.4797 49.4434 46.7922 49.9903 46.7922C50.5371 46.7922 50.8203 46.4797 50.8203 45.8645C50.8203 45.4641 50.8203 45.4641 51.3379 45.298C51.9532 45.1027 52.5782 44.5949 52.92 44.009C53.8965 42.3488 52.5977 40.4836 50.3223 40.2883C49.4141 40.2199 49.0332 40.1027 48.6719 39.7902C47.9395 39.1848 48.6914 38.3938 49.9903 38.3938C50.9375 38.3938 51.6016 38.7941 51.6016 39.3605C51.6016 39.468 51.6993 39.673 51.8262 39.8098C52.1485 40.1906 52.7149 40.1906 53.0274 39.8195C53.7598 38.9797 52.5977 37.1535 51.1036 36.802C50.8789 36.7434 50.8399 36.675 50.8008 36.2258C50.7618 35.8547 50.6836 35.6691 50.5274 35.5422C50.2149 35.2883 49.6875 35.3176 49.4043 35.6105Z" fill="#FFC107"/>
<path d="M67.3439 37.3485C67.0607 37.6415 67.0509 38.2177 67.3244 38.4911C67.549 38.7157 67.7638 38.7743 68.5744 38.8036L69.1798 38.8329L68.2326 39.9071C67.715 40.4931 66.3185 41.9481 65.1369 43.1395C61.0939 47.1727 57.2169 50.3466 52.4806 53.4813C49.3068 55.5809 46.504 57.202 43.2228 58.8427C41.7872 59.5653 41.6408 59.7216 41.8458 60.3368C41.963 60.7079 42.1779 60.8544 42.6173 60.8544C43.2033 60.8544 48.3986 58.0907 51.6994 56.0302C56.1818 53.2274 60.9767 49.497 64.6876 45.9423C66.2111 44.4872 68.6427 41.997 69.5997 40.9325L70.2443 40.2001L70.254 40.8153C70.254 41.3329 70.2931 41.4696 70.4982 41.6649C70.7912 41.9677 71.3087 41.9872 71.631 41.7235C71.8654 41.538 71.8654 41.5185 71.8654 39.5165C71.8654 36.9091 72.0802 37.1239 69.4826 37.1239C67.588 37.1239 67.549 37.1239 67.3439 37.3485Z" fill="#FFC107"/>
<path d="M70.498 46.8408L70.2539 47.0752V61.0986V75.1123H69.4727H68.6914V64.2432V53.3643L68.4668 53.1592C68.2422 52.9443 68.2031 52.9443 64.7266 52.9443H61.2012L60.9961 53.1689L60.7812 53.3936V64.2529V75.1123H60H59.2188V67.417V59.7119L58.9941 59.5068C58.7695 59.292 58.7305 59.292 55.2344 59.292C51.8262 59.292 51.6895 59.3018 51.5039 59.4873C51.3086 59.6826 51.3086 59.8096 51.3086 67.3975V75.1123H50.5273H49.7461V70.5908C49.7461 66.1768 49.7363 66.0596 49.5508 65.8545C49.4434 65.7373 49.248 65.6201 49.1309 65.5908C49.0137 65.5615 47.4121 65.542 45.5762 65.5615C42.2461 65.5908 42.2266 65.5908 42.0117 65.8154L41.7871 66.04L41.7578 70.5713L41.7285 75.1123H40.3711C39.0234 75.1123 39.0137 75.1123 38.8184 75.3662C38.7012 75.5127 38.6133 75.7471 38.6133 75.8936C38.6133 76.04 38.7012 76.2744 38.8184 76.4209L39.0137 76.6748H60H80.9863L81.1816 76.4209C81.2988 76.2744 81.3867 76.04 81.3867 75.8936C81.3867 75.7471 81.2988 75.5127 81.1816 75.3662C80.9863 75.1123 80.9766 75.1123 79.6191 75.1123H78.2617V61.1865C78.2617 50.7959 78.2324 47.2119 78.1445 47.0557C77.9102 46.6064 77.9102 46.6064 74.2285 46.5967H70.7324L70.498 46.8408ZM76.6016 61.6846V75.1123H74.2578H71.9141V61.6846V48.2568H74.2578H76.6016V61.6846ZM67.1289 64.8584V75.1123H64.7852H62.4414V64.8584V54.6045H64.7852H67.1289V64.8584ZM57.5586 67.9834V75.1123H55.2148H52.8711V67.9834V60.8545H55.2148H57.5586V67.9834ZM48.0859 71.1572V75.1123H45.7422H43.3984V71.1572V67.2021H45.7422H48.0859V71.1572Z" fill="#FFC107"/>
</g>
</g>
</g>
<defs>
<clipPath id="clip0_80_1978">
<rect width="120" height="100" fill="white" transform="translate(0 0.799805)"/>
</clipPath>
<clipPath id="clip1_80_1978">
<rect width="120" height="100" fill="white" transform="translate(0 0.799805)"/>
</clipPath>
<clipPath id="clip2_80_1978">
<rect width="120" height="100" fill="white" transform="translate(0 0.799805)"/>
</clipPath>
</defs>
</svg>
