<svg width="30" height="32" viewBox="0 0 30 32" fill="none" xmlns="http://www.w3.org/2000/svg">
<g clip-path="url(#clip0_80_1757)">
<g clip-path="url(#clip1_80_1757)">
<path d="M11.1091 1.76247C9.49189 1.97926 7.78681 2.5945 6.38056 3.46169C3.27509 5.38356 1.24775 8.57106 0.755558 12.2976C0.667668 13.0007 0.720402 15.1277 0.843449 15.7898C1.22431 17.8171 1.98603 19.5398 3.18134 21.1043C3.65595 21.7195 4.78681 22.8621 5.36103 23.3015C6.25166 23.9812 7.40595 24.6257 8.46064 25.03C9.02314 25.2468 10.3298 25.5984 10.8279 25.6628L11.1326 25.7039V24.7078V23.7175L10.8747 23.3308C10.7341 23.1199 10.6111 22.9265 10.5994 22.8972C10.5876 22.8679 10.2712 22.7507 9.90205 22.6277C8.53095 22.1765 7.33564 21.4617 6.31611 20.4832C3.66181 17.9402 2.74189 14.2312 3.90205 10.7566C4.81611 8.00856 7.05439 5.77614 9.8083 4.86208C12.1872 4.07106 14.6365 4.24684 16.904 5.36598C17.8474 5.83473 18.5857 6.36793 19.365 7.14723C20.1091 7.89723 20.5603 8.50661 21.0056 9.35622C21.6736 10.6394 22.0193 11.864 22.0779 13.1648L22.1072 13.9148H22.4997C23.3376 13.9148 23.9411 14.1316 24.4392 14.6121C24.6091 14.7761 24.7556 14.8992 24.7732 14.8875C24.8376 14.8171 24.8494 13.3816 24.7908 12.7136C24.2869 7.02419 19.9626 2.48903 14.3376 1.75661C13.4997 1.65114 11.9177 1.65114 11.1091 1.76247Z" fill="#FF4667"/>
<path d="M12.4921 5.81136C12.4511 5.82894 12.3807 5.91683 12.3339 6.00472C12.2225 6.21566 12.2167 7.08284 12.3222 7.29378C12.4335 7.51058 12.6796 7.61019 12.9022 7.53401C13.1952 7.42855 13.2362 7.32308 13.2421 6.66097C13.2421 6.09847 13.2304 6.04573 13.0956 5.91683C12.9608 5.7762 12.6913 5.72933 12.4921 5.81136Z" fill="#392C7D"/>
<path d="M7.23047 8.00967C7.08398 8.07999 6.97266 8.29092 6.97266 8.50772C6.97266 8.62491 7.08398 8.77725 7.40039 9.09366C7.9043 9.59756 8.0918 9.64444 8.38477 9.35147C8.66602 9.07022 8.5957 8.81241 8.10352 8.34366C7.6875 7.93936 7.51172 7.86905 7.23047 8.00967Z" fill="#392C7D"/>
<path d="M17.4316 8.36058C17.0449 8.7473 16.9922 8.82347 16.9922 9.01683C16.9922 9.29808 17.2031 9.52074 17.4668 9.52074C17.6133 9.52074 17.7305 9.43871 18.082 9.09886C18.4688 8.72386 18.5156 8.65941 18.5156 8.46019C18.5156 8.17894 18.3633 8.00316 18.0879 7.95629C17.877 7.92113 17.8535 7.93871 17.4316 8.36058Z" fill="#392C7D"/>
<path d="M12.4924 9.73665C12.4513 9.75422 12.381 9.84212 12.3342 9.93001C12.217 10.1585 12.2053 13.7445 12.3224 13.9671C12.3693 14.055 12.8615 14.3773 13.7111 14.8636C14.8185 15.4964 15.0588 15.6136 15.1994 15.5902C15.5392 15.5199 15.7092 15.2152 15.5803 14.9046C15.5275 14.7757 15.2638 14.5941 14.3791 14.0843L13.2424 13.4339V11.7054V9.98274L13.0959 9.84212C12.9611 9.70149 12.6916 9.65462 12.4924 9.73665Z" fill="#392C7D"/>
<path d="M5.06271 13.2941C4.76388 13.423 4.69942 13.8507 4.93966 14.0793C5.06271 14.1965 5.13888 14.2082 5.68966 14.2082C6.41036 14.2082 6.56271 14.132 6.56271 13.7629C6.56271 13.4816 6.48067 13.3527 6.26388 13.2765C6.00606 13.1886 5.28536 13.2004 5.06271 13.2941Z" fill="#392C7D"/>
<path d="M19.2419 13.2644C18.9314 13.3992 18.8376 13.7859 19.0486 14.0554C19.1658 14.2019 19.1892 14.2078 19.8044 14.2078C20.531 14.2078 20.6658 14.1492 20.7185 13.7918C20.7478 13.6218 20.7244 13.5515 20.6072 13.4109C20.4665 13.2468 20.4372 13.241 19.9099 13.2293C19.6111 13.2175 19.3064 13.2351 19.2419 13.2644Z" fill="#392C7D"/>
<path d="M18.2109 14.8759C17.8535 14.9755 17.5605 15.2041 17.3613 15.5439C17.209 15.7959 17.1973 15.8779 17.1738 16.5341L17.1562 17.2548H17.8067H18.4571V16.7685C18.4571 16.5048 18.4806 16.2529 18.504 16.2119C18.545 16.1591 19.0312 16.1416 20.748 16.1533L22.9396 16.1709L22.9571 16.7099L22.9746 17.2548H23.6133H24.2578V16.5634C24.2578 15.7841 24.1817 15.5439 23.8419 15.2216C23.42 14.8232 23.4258 14.8232 20.8301 14.8115C19.0664 14.7998 18.416 14.8173 18.2109 14.8759Z" fill="#392C7D"/>
<path d="M7.40039 18.3857C7.05469 18.7373 6.97266 18.8486 6.97266 19.0009C6.97266 19.2763 7.18945 19.4931 7.46484 19.4931C7.66406 19.4931 7.73438 19.4462 8.09766 19.0888C8.53711 18.6494 8.60742 18.5146 8.49609 18.2451C8.4082 18.0341 8.2793 17.958 8.02148 17.958C7.86328 17.958 7.75781 18.0283 7.40039 18.3857Z" fill="#392C7D"/>
<path d="M12.1641 18.2265C12.1465 18.2792 12.1289 19.1113 12.1289 20.0839C12.1289 21.8183 12.1348 21.8593 12.2695 22.1464C12.791 23.2597 14.6953 23.8808 18.5566 24.1855C18.7207 24.2031 18.7559 24.1796 18.8496 23.9687C19.002 23.6289 19.459 23.1894 19.8457 23.0078C20.1387 22.873 20.2559 22.8496 20.7422 22.8496C21.2051 22.8496 21.3457 22.873 21.5801 22.9902C21.9609 23.1777 22.3887 23.5761 22.5645 23.8984L22.7051 24.1679H23.0273C23.4609 24.1679 24.7734 24.0156 25.6055 23.875C26.959 23.6406 27.8379 23.3476 28.4883 22.9023C28.8633 22.6445 29.2031 22.2402 29.2734 21.9707C29.2852 21.9062 29.291 21.0214 29.2852 20.0078L29.2676 18.1621L27.5859 18.1445L25.9102 18.1328L25.8867 19.1699C25.8691 20.1015 25.8574 20.2363 25.7402 20.4472C25.5996 20.7167 25.4238 20.8867 25.1367 21.039C24.9434 21.1445 24.7207 21.1503 20.7129 21.1503C16.0723 21.1503 16.3535 21.1738 15.9727 20.7929C15.6211 20.4355 15.5859 20.289 15.5859 19.1582V18.1328H13.8926C12.4043 18.1328 12.1934 18.1445 12.1641 18.2265Z" fill="#FF4667"/>
<path d="M16.4648 19.1005C16.4648 19.9912 16.4766 20.0791 16.582 20.1845C16.6992 20.3017 16.7754 20.3017 20.7129 20.3017H24.7324L24.873 20.1552C25.0137 20.0146 25.0195 19.9912 25.0195 19.0712V18.1338H20.7422H16.4648V19.1005Z" fill="#392C7D"/>
<path d="M20.1856 23.8112C19.3946 24.1745 19.2715 25.2936 19.9512 25.8561C20.5137 26.3132 21.4102 26.1667 21.7618 25.5573C22.1426 24.8893 21.9141 24.1393 21.2286 23.7936C20.9766 23.6706 20.4786 23.6764 20.1856 23.8112Z" fill="#392C7D"/>
<path d="M12.9607 26.6885L12.9783 29.4424L13.201 29.6592L13.4178 29.8818L20.6541 29.8994C28.6404 29.917 28.0896 29.9404 28.3709 29.5479L28.5057 29.3545L28.5232 26.6416C28.5291 25.1533 28.5291 23.9346 28.5174 23.9346C28.5057 23.9346 28.2713 24.0283 27.9842 24.1397C27.0232 24.5264 25.4295 24.8486 23.6482 25.0068L22.8338 25.0772L22.7518 25.3994C22.4236 26.6826 20.9998 27.3682 19.8338 26.8057C19.2654 26.5303 18.7498 25.8623 18.6561 25.2764L18.6209 25.0654L18.0408 25.0244C16.2596 24.9072 14.0447 24.4561 13.2303 24.0459C13.1072 23.9815 12.9959 23.9346 12.9783 23.9346C12.9607 23.9346 12.9549 25.1709 12.9607 26.6885Z" fill="#FF4667"/>
</g>
</g>
<defs>
<clipPath id="clip0_80_1757">
<rect width="30" height="31" fill="white" transform="translate(0 0.290039)"/>
</clipPath>
<clipPath id="clip1_80_1757">
<rect width="30" height="31" fill="white" transform="translate(0 0.290039)"/>
</clipPath>
</defs>
</svg>
