<svg width="191" height="44" viewBox="0 0 191 44" fill="none" xmlns="http://www.w3.org/2000/svg">
<g clip-path="url(#clip0_3_2781)">
<g clip-path="url(#clip1_3_2781)">
<path d="M67.7711 34.2049C67.1097 34.2049 66.6136 34.0899 66.2829 33.8602C65.9521 33.656 65.7359 33.3753 65.6341 33.0179C65.5324 32.6605 65.4814 32.2777 65.4814 31.8693V9.73959C65.4814 9.3312 65.5196 8.96109 65.5959 8.62928C65.6977 8.27194 65.914 7.99117 66.2447 7.78696C66.5755 7.55725 67.097 7.44238 67.8093 7.44238L74.9835 7.48067C76.8407 7.48067 78.5452 7.79973 80.0971 8.43784C81.6744 9.07596 83.0355 9.98207 84.1803 11.1562C85.3252 12.3303 86.2028 13.7341 86.8134 15.3677C87.4495 16.9757 87.7675 18.7498 87.7675 20.6895C87.7675 22.6805 87.4495 24.5055 86.8134 26.1646C86.1775 27.8237 85.2869 29.2531 84.1421 30.4527C82.9973 31.6524 81.6362 32.584 80.059 33.2476C78.507 33.8857 76.7771 34.2049 74.8691 34.2049H67.7711ZM70.099 29.5721H74.9835C76.6117 29.5721 78.0364 29.2148 79.2576 28.5C80.4787 27.7599 81.4201 26.7389 82.0814 25.4371C82.7684 24.1354 83.1118 22.6167 83.1118 20.881C83.1118 19.1198 82.7684 17.5883 82.0814 16.2866C81.4201 14.9593 80.466 13.9383 79.2194 13.2237C77.9983 12.4835 76.5735 12.1134 74.9454 12.1134H70.099V29.5721Z" fill="#392C7D"/>
<path d="M91.7245 34.2432C91.0377 34.2432 90.5288 34.1282 90.1981 33.8985C89.8928 33.6943 89.702 33.4136 89.6257 33.0562C89.5494 32.6989 89.5112 32.3033 89.5112 31.8694V17.665C89.5112 17.2055 89.5494 16.8099 89.6257 16.4781C89.702 16.1207 89.8928 15.8527 90.1981 15.674C90.5288 15.4698 91.0503 15.3678 91.7627 15.3678C92.4496 15.3678 92.9457 15.4571 93.251 15.6358C93.5817 15.8144 93.7853 16.0442 93.8616 16.3249C93.9634 16.5802 94.0142 16.8355 94.0142 17.0907L93.7089 17.7798C93.8362 17.5756 94.0142 17.3332 94.2432 17.0524C94.4721 16.7461 94.7775 16.4526 95.159 16.1718C95.5406 15.8655 95.9986 15.623 96.5328 15.4443C97.0671 15.2401 97.7031 15.1381 98.4409 15.1381C98.7461 15.1381 99.0642 15.1763 99.3948 15.2529C99.7511 15.304 100.094 15.3933 100.425 15.521C100.781 15.623 101.099 15.7634 101.379 15.9421C101.659 16.1207 101.875 16.3377 102.028 16.593C102.181 16.8227 102.257 17.0907 102.257 17.3969C102.257 18.2137 102.053 18.9029 101.646 19.4645C101.239 20.0259 100.756 20.3068 100.196 20.3068C99.8146 20.3068 99.5348 20.2685 99.3567 20.1919C99.1787 20.1153 99.026 20.0259 98.8989 19.9239C98.797 19.8217 98.6317 19.7325 98.4028 19.6559C98.1992 19.5793 97.8685 19.541 97.4106 19.541C97.0289 19.541 96.6346 19.6048 96.2275 19.7325C95.846 19.8601 95.4897 20.0516 95.159 20.3068C94.8282 20.562 94.5612 20.8938 94.3577 21.3022C94.1541 21.6851 94.0523 22.1317 94.0523 22.6422V31.9459C94.0523 32.3798 94.0142 32.7755 93.9379 33.1328C93.8616 33.4646 93.658 33.7326 93.3273 33.9368C92.9966 34.141 92.4623 34.2432 91.7245 34.2432Z" fill="#392C7D"/>
<path d="M111.33 34.4729C109.676 34.4729 108.226 34.2049 106.98 33.6688C105.759 33.1329 104.728 32.4053 103.889 31.4865C103.075 30.5421 102.451 29.4956 102.019 28.347C101.612 27.1728 101.408 25.9605 101.408 24.7097C101.408 22.8719 101.828 21.2384 102.667 19.809C103.507 18.3797 104.665 17.2566 106.14 16.4398C107.641 15.623 109.358 15.2146 111.292 15.2146C112.666 15.2146 113.874 15.4316 114.917 15.8655C115.96 16.2994 116.825 16.8737 117.512 17.5884C118.224 18.2775 118.759 19.0433 119.115 19.8856C119.496 20.728 119.687 21.5447 119.687 22.336C119.687 23.6887 119.357 24.6715 118.695 25.2841C118.059 25.8966 117.258 26.2029 116.291 26.2029H106.216C106.242 27.0708 106.509 27.8237 107.018 28.4618C107.552 29.0999 108.214 29.5976 109.002 29.955C109.816 30.2869 110.643 30.4527 111.483 30.4527C112.119 30.4527 112.678 30.4144 113.162 30.3379C113.671 30.2613 114.103 30.172 114.459 30.0699C114.815 29.9423 115.121 29.8146 115.375 29.687C115.655 29.5594 115.909 29.4446 116.138 29.3424C116.367 29.2404 116.584 29.1765 116.787 29.151C117.067 29.1254 117.347 29.1893 117.627 29.3424C117.906 29.4956 118.135 29.7636 118.314 30.1465C118.466 30.4017 118.568 30.6442 118.619 30.8739C118.695 31.0781 118.733 31.2823 118.733 31.4865C118.733 31.9969 118.428 32.482 117.817 32.9414C117.207 33.3753 116.342 33.7326 115.222 34.0134C114.128 34.3197 112.831 34.4729 111.33 34.4729ZM106.216 23.4845H114.04C114.472 23.4845 114.803 23.4207 115.032 23.2931C115.261 23.14 115.375 22.8337 115.375 22.3742C115.375 21.7872 115.197 21.2639 114.841 20.8045C114.485 20.3196 114.001 19.9494 113.391 19.6942C112.78 19.4135 112.068 19.273 111.254 19.273C110.312 19.273 109.46 19.4645 108.697 19.8474C107.934 20.2046 107.323 20.7024 106.865 21.3405C106.433 21.9786 106.216 22.6933 106.216 23.4845Z" fill="#392C7D"/>
<path d="M136.557 34.1665C135.819 34.1665 135.272 34.0262 134.916 33.7454C134.56 33.4646 134.381 33.0817 134.381 32.5968L134.649 31.3333C134.445 31.6652 134.101 32.0608 133.618 32.5203C133.135 32.9542 132.499 33.3498 131.711 33.7071C130.921 34.039 129.968 34.2049 128.849 34.2049C127.653 34.2049 126.521 33.9623 125.453 33.4774C124.409 32.9669 123.48 32.2778 122.666 31.41C121.878 30.5166 121.242 29.5084 120.758 28.3853C120.3 27.2367 120.071 26.0115 120.071 24.7098C120.071 23.459 120.3 22.285 120.758 21.1874C121.242 20.0643 121.89 19.0688 122.704 18.201C123.519 17.3332 124.447 16.6568 125.49 16.1719C126.558 15.6613 127.678 15.4061 128.849 15.4061C129.892 15.4061 130.769 15.5465 131.482 15.8272C132.219 16.108 132.843 16.4653 133.351 16.8993C133.86 17.3077 134.28 17.7416 134.61 18.201L134.381 17.0907C134.381 16.5291 134.56 16.108 134.916 15.8272C135.272 15.521 135.831 15.3678 136.595 15.3678C137.307 15.3678 137.816 15.4827 138.122 15.7124C138.427 15.9166 138.617 16.2101 138.693 16.593C138.771 16.9503 138.808 17.3587 138.808 17.8181V31.8311C138.808 32.265 138.771 32.6606 138.693 33.018C138.617 33.3753 138.414 33.6561 138.083 33.8603C137.778 34.0645 137.27 34.1665 136.557 34.1665ZM129.535 29.7253C130.4 29.7253 131.177 29.5084 131.863 29.0744C132.55 28.6405 133.097 28.0534 133.504 27.3133C133.936 26.5475 134.153 25.7053 134.153 24.7863C134.153 23.7909 133.936 22.9231 133.504 22.1828C133.072 21.4426 132.499 20.8683 131.787 20.4599C131.1 20.026 130.324 19.809 129.459 19.809C128.517 19.809 127.678 20.0387 126.94 20.4983C126.202 20.9322 125.618 21.5319 125.185 22.2977C124.778 23.0379 124.574 23.8802 124.574 24.8246C124.574 25.7435 124.791 26.573 125.222 27.3133C125.655 28.0534 126.241 28.6405 126.979 29.0744C127.742 29.5084 128.594 29.7253 129.535 29.7253Z" fill="#392C7D"/>
<path d="M142.942 34.205C142.256 34.205 141.747 34.1028 141.416 33.8986C141.111 33.6944 140.92 33.4137 140.843 33.0563C140.767 32.699 140.729 32.3161 140.729 31.9077V17.5885C140.729 17.1801 140.767 16.81 140.843 16.4782C140.92 16.1464 141.124 15.8783 141.454 15.6741C141.785 15.4699 142.307 15.3679 143.019 15.3679C143.757 15.3679 144.291 15.521 144.621 15.8273C144.978 16.1336 145.155 16.6186 145.155 17.2822L144.812 18.3543C144.94 18.0734 145.155 17.7672 145.462 17.4354C145.767 17.1035 146.135 16.7717 146.567 16.4399C147.025 16.108 147.534 15.84 148.095 15.6358C148.654 15.4316 149.239 15.3296 149.85 15.3296C150.689 15.3296 151.452 15.4699 152.139 15.7508C152.852 16.0315 153.475 16.4399 154.009 16.9759C154.569 17.5119 155.052 18.1628 155.459 18.9285C155.892 18.2648 156.376 17.6651 156.91 17.129C157.444 16.5676 158.067 16.1336 158.78 15.8273C159.492 15.4955 160.293 15.3296 161.183 15.3296C162.659 15.3296 163.893 15.6997 164.885 16.4399C165.902 17.1801 166.665 18.2393 167.175 19.6177C167.709 20.9705 167.976 22.5913 167.976 24.4801V31.9077C167.976 32.3416 167.925 32.7373 167.824 33.0945C167.747 33.4264 167.543 33.6944 167.213 33.8986C166.908 34.1028 166.399 34.205 165.686 34.205C164.974 34.205 164.453 34.0901 164.122 33.8603C163.791 33.6561 163.587 33.3882 163.511 33.0563C163.434 32.699 163.397 32.3034 163.397 31.8694V24.4418C163.397 23.4974 163.282 22.6807 163.053 21.9914C162.824 21.3023 162.481 20.7663 162.023 20.3834C161.591 20.0005 161.018 19.8091 160.306 19.8091C159.543 19.8091 158.881 20.0005 158.321 20.3834C157.787 20.7408 157.368 21.264 157.062 21.9531C156.757 22.6423 156.604 23.4846 156.604 24.4801V31.946C156.604 32.3799 156.541 32.7883 156.413 33.1712C156.286 33.5285 156.032 33.7966 155.65 33.9753C155.294 34.1793 154.772 34.256 154.085 34.205C153.45 34.1793 152.978 34.0518 152.673 33.8221C152.394 33.5924 152.215 33.3115 152.139 32.9797C152.089 32.6224 152.063 32.2523 152.063 31.8694V24.4418C152.063 23.4974 151.949 22.6807 151.72 21.9914C151.491 21.2768 151.147 20.7408 150.689 20.3834C150.256 20.0005 149.671 19.8091 148.934 19.8091C148.145 19.8091 147.471 20.0133 146.911 20.4217C146.377 20.8301 145.97 21.3789 145.69 22.0681C145.41 22.7572 145.27 23.5485 145.27 24.4418V31.946C145.27 32.3544 145.219 32.7373 145.118 33.0945C145.041 33.4519 144.837 33.7199 144.507 33.8986C144.202 34.1028 143.68 34.205 142.942 34.205Z" fill="#392C7D"/>
<path d="M176.427 34.4728C175.765 34.4728 175.066 34.3962 174.328 34.2431C173.59 34.1154 172.878 33.924 172.191 33.6687C171.505 33.388 170.907 33.0689 170.398 32.7116C169.914 32.3287 169.608 31.9076 169.482 31.4481C169.379 31.1929 169.342 30.9504 169.367 30.7207C169.393 30.4654 169.469 30.2102 169.596 29.9549C169.723 29.6742 169.914 29.3934 170.169 29.1126C170.398 28.8319 170.626 28.6787 170.855 28.6532C171.109 28.6022 171.428 28.6787 171.81 28.8829C172.14 29.0106 172.497 29.1764 172.878 29.3806C173.285 29.5848 173.692 29.789 174.099 29.9932C174.532 30.1974 174.965 30.3634 175.396 30.491C175.854 30.6186 176.299 30.6824 176.732 30.6824C177.674 30.6824 178.424 30.5293 178.984 30.2229C179.543 29.8912 179.823 29.4317 179.823 28.8446C179.823 28.5128 179.734 28.2193 179.557 27.9641C179.378 27.7088 179.136 27.5046 178.831 27.3514C178.551 27.1728 178.208 27.0197 177.8 26.892C177.419 26.7388 177 26.6113 176.542 26.5091C176.109 26.3816 175.651 26.2411 175.167 26.088C174.532 25.9093 173.895 25.6923 173.26 25.4371C172.624 25.1819 172.051 24.8501 171.542 24.4417C171.059 24.0333 170.664 23.5227 170.359 22.9102C170.054 22.2976 169.901 21.5318 169.901 20.613C169.901 19.4644 170.169 18.4944 170.703 17.7032C171.262 16.8864 172.064 16.2611 173.107 15.8271C174.15 15.3932 175.41 15.1763 176.885 15.1763C177.394 15.1763 177.877 15.2145 178.334 15.2912C178.819 15.3677 179.276 15.4826 179.709 15.6357C180.167 15.7634 180.599 15.9293 181.006 16.1335C181.439 16.3376 181.846 16.5674 182.227 16.8226C182.864 17.1799 183.194 17.6011 183.219 18.086C183.245 18.5456 183.067 19.0433 182.685 19.5792C182.406 19.9366 182.126 20.1918 181.846 20.345C181.566 20.4726 181.273 20.4726 180.968 20.345C180.561 20.1408 180.116 19.9238 179.633 19.6941C179.175 19.4389 178.691 19.2219 178.182 19.0433C177.699 18.8646 177.19 18.7753 176.656 18.7753C176.147 18.7753 175.689 18.8518 175.282 19.005C174.875 19.1581 174.569 19.375 174.367 19.6559C174.163 19.9366 174.061 20.2685 174.061 20.6513C174.061 21.0086 174.163 21.3021 174.367 21.5318C174.569 21.7616 174.837 21.953 175.167 22.1062C175.499 22.2594 175.893 22.3997 176.351 22.5273C176.808 22.6294 177.292 22.7315 177.8 22.8336C178.513 22.9868 179.238 23.1782 179.976 23.4079C180.714 23.6376 181.388 23.9566 181.998 24.3651C182.635 24.7735 183.143 25.3223 183.524 26.0114C183.906 26.6751 184.097 27.5429 184.097 28.6149C184.097 30.4782 183.411 31.9203 182.037 32.9413C180.689 33.9622 178.819 34.4728 176.427 34.4728Z" fill="#392C7D"/>
<path d="M159.675 12.5644C159.386 12.5644 159.178 12.5241 159.049 12.4437C158.922 12.3553 158.841 12.2388 158.809 12.0941C158.777 11.9494 158.761 11.8006 158.761 11.6479V5.05172C158.761 4.89094 158.774 4.74221 158.798 4.60555C158.83 4.46888 158.909 4.35632 159.038 4.2679C159.166 4.17947 159.379 4.13525 159.675 4.13525C159.98 4.13525 160.192 4.17947 160.312 4.2679C160.44 4.35632 160.516 4.46888 160.54 4.60555C160.572 4.74221 160.588 4.89094 160.588 5.05172V10.9726H163.882C164.018 10.9726 164.146 10.9847 164.267 11.0088C164.386 11.0329 164.483 11.1012 164.555 11.2138C164.634 11.3263 164.674 11.5112 164.674 11.7685C164.674 12.0177 164.634 12.2026 164.555 12.3232C164.475 12.4358 164.375 12.5041 164.254 12.5281C164.142 12.5523 164.018 12.5644 163.882 12.5644H159.675Z" fill="#FF4667"/>
<path d="M167.505 12.5644C167.217 12.5644 167.008 12.5202 166.88 12.4317C166.76 12.3433 166.684 12.2308 166.652 12.0941C166.62 11.9494 166.604 11.7966 166.604 11.6359V5.03968C166.604 4.88694 166.62 4.74626 166.652 4.61763C166.684 4.48097 166.763 4.36841 166.892 4.27999C167.02 4.19155 167.233 4.14734 167.529 4.14734C167.729 4.14734 167.882 4.15939 167.985 4.18351C168.09 4.20763 168.165 4.2438 168.214 4.29203C168.262 4.33224 168.315 4.38047 168.37 4.43674L171.074 8.10262H170.894L173.61 4.43674C173.674 4.35635 173.739 4.29605 173.803 4.25586C173.867 4.21566 173.948 4.18753 174.043 4.17145C174.148 4.15537 174.292 4.14734 174.476 4.14734C174.764 4.14734 174.973 4.19155 175.101 4.27999C175.229 4.36841 175.31 4.48499 175.342 4.62968C175.373 4.76635 175.389 4.91105 175.389 5.0638V11.66C175.389 11.8127 175.373 11.9574 175.342 12.0941C175.31 12.2308 175.229 12.3433 175.101 12.4317C174.973 12.5202 174.761 12.5644 174.463 12.5644C174.175 12.5644 173.967 12.5202 173.839 12.4317C173.711 12.3433 173.631 12.2267 173.599 12.082C173.566 11.9373 173.55 11.7886 173.55 11.6359V7.33086L171.76 9.87527C171.728 9.91546 171.683 9.97174 171.628 10.0441C171.572 10.1084 171.491 10.1647 171.387 10.2129C171.291 10.2611 171.158 10.2853 170.991 10.2853C170.814 10.2853 170.674 10.2611 170.57 10.2129C170.474 10.1647 170.398 10.1084 170.342 10.0441C170.285 9.97977 170.237 9.9235 170.197 9.87527L168.418 7.34291V11.66C168.418 11.8127 168.402 11.9574 168.37 12.0941C168.339 12.2308 168.258 12.3433 168.13 12.4317C168.009 12.5202 167.801 12.5644 167.505 12.5644Z" fill="#FF4667"/>
<path d="M180.347 12.685C179.922 12.685 179.55 12.6328 179.229 12.5282C178.917 12.4238 178.648 12.2991 178.423 12.1544C178.207 12.0017 178.035 11.853 177.908 11.7083C177.779 11.5636 177.691 11.455 177.642 11.3827C177.507 11.2058 177.422 11.0531 177.39 10.9244C177.359 10.7878 177.375 10.6511 177.438 10.5144C177.51 10.3778 177.631 10.229 177.799 10.0683C177.967 9.92355 178.124 9.84718 178.267 9.83915C178.42 9.82307 178.568 9.85924 178.713 9.94767C178.856 10.0361 178.996 10.1607 179.133 10.3215C179.325 10.5546 179.513 10.7194 179.698 10.8159C179.89 10.9043 180.091 10.9486 180.299 10.9486C180.563 10.9486 180.788 10.9164 180.972 10.8521C181.156 10.7878 181.297 10.6873 181.393 10.5506C181.488 10.4059 181.537 10.225 181.537 10.008C181.537 9.83111 181.469 9.69042 181.332 9.58591C181.205 9.47336 181.028 9.37688 180.804 9.2965C180.587 9.21611 180.342 9.13973 180.07 9.06738C179.806 8.98699 179.542 8.89454 179.278 8.79003C179.093 8.72571 178.917 8.64532 178.748 8.54886C178.581 8.45238 178.42 8.34386 178.267 8.22326C178.115 8.10267 177.983 7.95797 177.871 7.78915C177.766 7.62032 177.683 7.42738 177.618 7.21032C177.562 6.99327 177.534 6.74405 177.534 6.46267C177.534 5.98836 177.65 5.56631 177.882 5.1965C178.115 4.82671 178.436 4.53729 178.845 4.32827C179.262 4.11121 179.738 4.00269 180.275 4.00269C180.635 4.00269 180.948 4.03484 181.213 4.09915C181.485 4.16346 181.713 4.23984 181.897 4.32827C182.082 4.41671 182.226 4.50513 182.33 4.59356C182.443 4.67396 182.519 4.73827 182.559 4.7865C182.783 4.99552 182.907 5.1764 182.931 5.32915C182.955 5.47386 182.871 5.67886 182.678 5.94415C182.478 6.22552 182.277 6.38229 182.078 6.41444C181.886 6.4466 181.665 6.37827 181.416 6.20944C181.321 6.12101 181.224 6.04062 181.128 5.96827C181.031 5.89592 180.915 5.83964 180.78 5.79944C180.651 5.75121 180.479 5.72709 180.263 5.72709C180.134 5.72709 180.014 5.74719 179.902 5.78738C179.79 5.81954 179.693 5.86778 179.614 5.93209C179.534 5.9964 179.469 6.0768 179.421 6.17327C179.373 6.26169 179.349 6.36219 179.349 6.47474C179.349 6.65963 179.41 6.80836 179.529 6.92092C179.658 7.03346 179.822 7.12592 180.022 7.19827C180.231 7.26258 180.459 7.3269 180.707 7.39121C180.964 7.44748 181.224 7.51582 181.488 7.59621C181.73 7.67659 181.962 7.77709 182.186 7.89767C182.411 8.01023 182.61 8.15493 182.787 8.3318C182.963 8.50865 183.103 8.72973 183.208 8.99503C183.32 9.26032 183.375 9.58591 183.375 9.9718C183.375 10.4541 183.283 10.8682 183.1 11.2138C182.915 11.5595 182.67 11.8409 182.366 12.058C182.062 12.275 181.733 12.4318 181.38 12.5282C181.028 12.6328 180.683 12.685 180.347 12.685Z" fill="#FF4667"/>
<path d="M47.7534 17.3713V25.3465C47.7534 26.5114 47.2079 27.594 46.3096 28.2046C45.5545 28.7179 44.5378 29.3718 43.3364 30.0533V17.3713H47.7534Z" fill="#FF4667"/>
<path d="M43.1116 17.3713V30.1092C39.8736 31.9581 35.3012 34.0082 30.961 34.0082C25.0125 34.0082 18.6279 30.1556 15.8373 28.253C14.939 27.64 14.3936 26.5529 14.3936 25.3834V17.3713H43.1116Z" fill="#FF4667"/>
<path d="M47.5333 17.2052V24.9943C47.5333 26.1357 46.9877 27.1961 46.0897 27.7936C43.2994 29.6501 36.915 33.4091 30.9659 33.4091C25.0169 33.4091 18.6326 29.6501 15.8422 27.7936C14.9442 27.1961 14.3986 26.1357 14.3986 24.9943V17.2052H47.5333ZM48.435 16.2998H13.4971V24.9943C13.4971 26.4502 14.1876 27.7789 15.3443 28.5484C16.8144 29.5266 19.1383 30.9416 21.8606 32.1282C25.1892 33.579 28.2526 34.3146 30.9659 34.3146C33.6793 34.3146 36.7427 33.579 40.0713 32.1282C42.7935 30.9416 45.1175 29.5265 46.5876 28.5484C47.7442 27.7789 48.435 26.4502 48.435 24.9943V16.2998Z" fill="#FF4667"/>
<path d="M42.6935 31.9568C41.8495 32.0593 41.072 32.4684 40.5077 33.1071C39.9433 33.7456 39.6312 34.5696 39.6304 35.4235V38.504C39.6304 39.7531 40.2937 40.9072 41.3709 41.5317C42.4479 42.1562 43.7749 42.1562 44.8518 41.5317C45.929 40.9072 46.5925 39.7531 46.5925 38.504V35.4235C46.5916 34.5696 46.2794 33.7456 45.7152 33.1071C45.1509 32.4684 44.3734 32.0593 43.5294 31.9568" fill="#392C7D"/>
<path d="M45.7565 35.8346H40.4658V35.4611C40.4658 33.9938 41.6503 32.8044 43.1111 32.8044C44.5721 32.8044 45.7564 33.9939 45.7564 35.4611L45.7565 35.8346Z" fill="white"/>
<path d="M52.0152 16.1723L31.9782 25.7527C31.3034 26.0752 30.5197 26.0744 29.8456 25.7504L9.69909 16.0662C7.83137 15.1684 7.82145 12.5016 9.68242 11.5897L29.818 1.724C30.5075 1.38614 31.3141 1.38851 32.0017 1.73046L52.0497 11.7002C53.9013 12.6209 53.8808 15.2805 52.0152 16.1723Z" fill="#392C7D"/>
<path d="M30.903 1.88944C31.1792 1.88944 31.4551 1.95148 31.7091 2.07555L52.2318 12.1002C53.5906 12.7639 53.5757 14.681 52.2065 15.324L31.6919 24.9587C31.445 25.0746 31.178 25.1327 30.9111 25.1327C30.6429 25.1327 30.3749 25.0742 30.127 24.9571L9.50324 15.2195C8.13254 14.5723 8.12532 12.6499 9.49096 11.9926L30.1065 2.07088C30.3578 1.94992 30.6305 1.88944 30.903 1.88944ZM30.903 1C30.4922 1 30.0802 1.09395 29.7112 1.2715L9.09571 11.1932C8.15023 11.6482 7.56541 12.5754 7.56936 13.6131C7.5733 14.6507 8.16511 15.5737 9.11397 16.0217L29.7376 25.7593C30.1017 25.9312 30.5075 26.0221 30.911 26.0221C31.3127 26.0221 31.7167 25.932 32.0794 25.7616L52.5939 16.1271C53.5417 15.6819 54.1355 14.7622 54.1436 13.7266C54.1518 12.6913 53.5725 11.7625 52.6318 11.303L32.1092 1.27851C31.7362 1.09628 31.3192 1 30.903 1Z" fill="#392C7D"/>
</g>
</g>
<defs>
<clipPath id="clip0_3_2781">
<rect width="191" height="44" fill="white"/>
</clipPath>
<clipPath id="clip1_3_2781">
<rect width="177.667" height="41" fill="white" transform="translate(7 1)"/>
</clipPath>
</defs>
</svg>
