<svg width="156" height="36" viewBox="0 0 156 36" fill="none" xmlns="http://www.w3.org/2000/svg">
<g clip-path="url(#clip0_40_355)">
<g clip-path="url(#clip1_40_355)">
<g clip-path="url(#clip2_40_355)">
<path d="M53.36 29.156C52.7793 29.156 52.3437 29.0551 52.0533 28.8534C51.7629 28.6741 51.573 28.4276 51.4836 28.1138C51.3943 27.8 51.3496 27.4639 51.3496 27.1053V7.67429C51.3496 7.3157 51.3831 6.99073 51.4501 6.69938C51.5395 6.38562 51.7294 6.13909 52.0198 5.95979C52.3102 5.75809 52.7681 5.65723 53.3936 5.65723L59.6929 5.69085C61.3236 5.69085 62.8202 5.971 64.1829 6.53129C65.5678 7.09159 66.7629 7.8872 67.7681 8.91814C68.7734 9.94908 69.544 11.1817 70.0801 12.6161C70.6386 14.028 70.9178 15.5857 70.9178 17.2889C70.9178 19.0371 70.6386 20.6395 70.0801 22.0963C69.5217 23.553 68.7398 24.8081 67.7346 25.8614C66.7294 26.9148 65.5343 27.7328 64.1494 28.3155C62.7867 28.8758 61.2677 29.156 59.5924 29.156H53.36ZM55.404 25.0882H59.6929C61.1225 25.0882 62.3735 24.7745 63.4457 24.1469C64.5179 23.497 65.3445 22.6005 65.9252 21.4575C66.5284 20.3145 66.8299 18.981 66.8299 17.457C66.8299 15.9106 66.5284 14.5659 65.9252 13.4229C65.3445 12.2575 64.5068 11.361 63.4122 10.7335C62.34 10.0836 61.089 9.75858 59.6594 9.75858H55.404V25.0882Z" fill="white"/>
<path d="M74.3921 29.1893C73.789 29.1893 73.3422 29.0884 73.0518 28.8867C72.7837 28.7074 72.6162 28.4609 72.5492 28.1471C72.4822 27.8334 72.4487 27.486 72.4487 27.105V14.6329C72.4487 14.2294 72.4822 13.8821 72.5492 13.5907C72.6162 13.2769 72.7837 13.0416 73.0518 12.8847C73.3422 12.7054 73.8001 12.6158 74.4256 12.6158C75.0287 12.6158 75.4643 12.6942 75.7324 12.8511C76.0228 13.008 76.2015 13.2097 76.2685 13.4562C76.3579 13.6804 76.4025 13.9045 76.4025 14.1286L76.1345 14.7337C76.2462 14.5544 76.4025 14.3415 76.6036 14.095C76.8046 13.826 77.0727 13.5683 77.4077 13.3218C77.7428 13.0528 78.1449 12.8399 78.614 12.683C79.0831 12.5037 79.6416 12.4141 80.2894 12.4141C80.5574 12.4141 80.8367 12.4477 81.127 12.5149C81.4398 12.5598 81.7413 12.6382 82.0317 12.7503C82.3445 12.8399 82.6237 12.9632 82.8694 13.1201C83.1151 13.2769 83.305 13.4674 83.439 13.6916C83.5731 13.8933 83.6401 14.1286 83.6401 14.3975C83.6401 15.1147 83.4614 15.7198 83.104 16.2129C82.7466 16.7059 82.3221 16.9525 81.8307 16.9525C81.4956 16.9525 81.2499 16.9189 81.0935 16.8516C80.9372 16.7844 80.8031 16.7059 80.6915 16.6163C80.6021 16.5266 80.4569 16.4482 80.2559 16.381C80.0772 16.3137 79.7868 16.2801 79.3847 16.2801C79.0496 16.2801 78.7034 16.3361 78.3459 16.4482C78.0109 16.5603 77.6981 16.7284 77.4077 16.9525C77.1173 17.1766 76.8828 17.4679 76.7041 17.8265C76.5254 18.1627 76.436 18.5549 76.436 19.0031V27.1722C76.436 27.5532 76.4025 27.9006 76.3355 28.2144C76.2685 28.5057 76.0898 28.741 75.7994 28.9203C75.509 29.0996 75.0399 29.1893 74.3921 29.1893Z" fill="white"/>
<path d="M91.6068 29.3911C90.1549 29.3911 88.8816 29.1558 87.787 28.6851C86.7148 28.2145 85.8101 27.5757 85.0729 26.7689C84.3581 25.9397 83.8108 25.0208 83.4311 24.0123C83.0737 22.9813 82.895 21.9168 82.895 20.8186C82.895 19.2049 83.2636 17.7706 84.0007 16.5155C84.7379 15.2605 85.7543 14.2744 87.0499 13.5572C88.3678 12.84 89.8756 12.4814 91.5733 12.4814C92.7796 12.4814 93.8407 12.6719 94.7565 13.0529C95.6724 13.4339 96.4319 13.9382 97.035 14.5657C97.6605 15.1708 98.1296 15.8432 98.4423 16.5828C98.7774 17.3224 98.9449 18.0395 98.9449 18.7343C98.9449 19.9221 98.6545 20.785 98.0737 21.3229C97.5153 21.8607 96.8116 22.1297 95.9628 22.1297H87.1169C87.1392 22.8917 87.3738 23.5528 87.8205 24.1131C88.2896 24.6734 88.8704 25.1104 89.5629 25.4242C90.2777 25.7156 91.0037 25.8612 91.7409 25.8612C92.2993 25.8612 92.7908 25.8276 93.2152 25.7604C93.662 25.6931 94.0417 25.6147 94.3544 25.5251C94.6672 25.413 94.9352 25.3009 95.1586 25.1889C95.4043 25.0768 95.6277 24.976 95.8288 24.8863C96.0298 24.7967 96.2197 24.7406 96.3984 24.7182C96.6441 24.6958 96.8898 24.7519 97.1355 24.8863C97.3812 25.0208 97.5823 25.2561 97.7387 25.5923C97.8727 25.8164 97.962 26.0293 98.0067 26.231C98.0737 26.4103 98.1072 26.5896 98.1072 26.7689C98.1072 27.2171 97.8392 27.643 97.3031 28.0464C96.767 28.4274 96.0075 28.7411 95.0246 28.9877C94.064 29.2566 92.9248 29.3911 91.6068 29.3911ZM87.1169 19.7428H93.9859C94.3656 19.7428 94.656 19.6868 94.857 19.5747C95.0581 19.4403 95.1586 19.1713 95.1586 18.7679C95.1586 18.2525 95.0022 17.793 94.6895 17.3896C94.3768 16.9638 93.9523 16.6388 93.4162 16.4147C92.8801 16.1682 92.2547 16.0449 91.5398 16.0449C90.7133 16.0449 89.965 16.213 89.2948 16.5492C88.6247 16.8629 88.0886 17.3 87.6865 17.8602C87.3067 18.4205 87.1169 19.0481 87.1169 19.7428Z" fill="white"/>
<path d="M113.757 29.1214C113.109 29.1214 112.629 28.9982 112.316 28.7516C112.004 28.5051 111.847 28.1689 111.847 27.7431L112.082 26.6337C111.903 26.9251 111.601 27.2725 111.177 27.6759C110.753 28.0569 110.194 28.4043 109.502 28.718C108.809 29.0094 107.972 29.1551 106.989 29.1551C105.939 29.1551 104.945 28.9421 104.007 28.5163C103.091 28.0681 102.275 27.463 101.56 26.701C100.868 25.9166 100.31 25.0313 99.8853 24.0452C99.4832 23.0367 99.2822 21.9609 99.2822 20.8179C99.2822 19.7197 99.4832 18.6888 99.8853 17.7251C100.31 16.739 100.879 15.8649 101.594 15.1029C102.309 14.3409 103.124 13.747 104.04 13.3212C104.978 12.8729 105.961 12.6488 106.989 12.6488C107.905 12.6488 108.675 12.7721 109.301 13.0186C109.948 13.2651 110.496 13.5789 110.942 13.9599C111.389 14.3185 111.758 14.6995 112.048 15.1029L111.847 14.128C111.847 13.6349 112.004 13.2651 112.316 13.0186C112.629 12.7497 113.12 12.6152 113.791 12.6152C114.416 12.6152 114.863 12.7161 115.131 12.9178C115.399 13.0971 115.566 13.3548 115.633 13.691C115.701 14.0047 115.734 14.3633 115.734 14.7667V27.0708C115.734 27.4518 115.701 27.7991 115.633 28.1129C115.566 28.4267 115.388 28.6732 115.097 28.8525C114.829 29.0318 114.383 29.1214 113.757 29.1214ZM107.592 25.2218C108.351 25.2218 109.033 25.0313 109.636 24.6503C110.239 24.2693 110.719 23.7538 111.077 23.1039C111.456 22.4315 111.646 21.692 111.646 20.8851C111.646 20.0111 111.456 19.2491 111.077 18.5991C110.697 17.9492 110.194 17.4449 109.569 17.0863C108.966 16.7053 108.284 16.5148 107.525 16.5148C106.698 16.5148 105.961 16.7165 105.313 17.12C104.665 17.501 104.152 18.0276 103.772 18.7C103.415 19.3499 103.236 20.0895 103.236 20.9187C103.236 21.7256 103.426 22.4539 103.805 23.1039C104.185 23.7538 104.699 24.2693 105.347 24.6503C106.017 25.0313 106.765 25.2218 107.592 25.2218Z" fill="white"/>
<path d="M119.364 29.1555C118.761 29.1555 118.314 29.0658 118.024 28.8865C117.756 28.7072 117.588 28.4607 117.521 28.1469C117.454 27.8332 117.421 27.497 117.421 27.1384V14.5654C117.421 14.2068 117.454 13.8819 117.521 13.5905C117.588 13.2992 117.767 13.0638 118.057 12.8845C118.348 12.7052 118.806 12.6156 119.431 12.6156C120.079 12.6156 120.548 12.7501 120.838 13.019C121.151 13.288 121.307 13.7138 121.307 14.2965L121.006 15.2378C121.118 14.9912 121.307 14.7223 121.576 14.431C121.844 14.1396 122.167 13.8482 122.547 13.5569C122.949 13.2655 123.396 13.0302 123.888 12.8509C124.379 12.6716 124.893 12.582 125.429 12.582C126.166 12.582 126.836 12.7052 127.439 12.9518C128.065 13.1983 128.612 13.5569 129.081 14.0275C129.573 14.4982 129.997 15.0697 130.354 15.742C130.734 15.1593 131.159 14.6327 131.628 14.162C132.097 13.669 132.644 13.288 133.27 13.019C133.895 12.7277 134.599 12.582 135.38 12.582C136.676 12.582 137.76 12.907 138.631 13.5569C139.524 14.2068 140.194 15.1369 140.641 16.3472C141.11 17.535 141.345 18.9581 141.345 20.6166V27.1384C141.345 27.5194 141.3 27.8668 141.211 28.1805C141.144 28.4719 140.965 28.7072 140.675 28.8865C140.407 29.0658 139.96 29.1555 139.334 29.1555C138.709 29.1555 138.251 29.0546 137.961 28.8529C137.67 28.6736 137.491 28.4383 137.424 28.1469C137.357 27.8332 137.324 27.4858 137.324 27.1048V20.583C137.324 19.7537 137.223 19.0366 137.022 18.4314C136.821 17.8263 136.52 17.3557 136.118 17.0195C135.738 16.6833 135.235 16.5152 134.61 16.5152C133.94 16.5152 133.359 16.6833 132.867 17.0195C132.398 17.3333 132.03 17.7927 131.762 18.3978C131.494 19.0029 131.36 19.7425 131.36 20.6166V27.172C131.36 27.553 131.304 27.9116 131.192 28.2478C131.08 28.5615 130.857 28.7969 130.522 28.9538C130.209 29.133 129.751 29.2003 129.148 29.1555C128.59 29.133 128.176 29.021 127.908 28.8193C127.663 28.6176 127.506 28.371 127.439 28.0797C127.395 27.7659 127.372 27.441 127.372 27.1048V20.583C127.372 19.7537 127.272 19.0366 127.071 18.4314C126.87 17.8039 126.568 17.3333 126.166 17.0195C125.786 16.6833 125.272 16.5152 124.625 16.5152C123.932 16.5152 123.34 16.6945 122.849 17.0531C122.38 17.4117 122.022 17.8936 121.777 18.4987C121.531 19.1038 121.408 19.7986 121.408 20.583V27.172C121.408 27.5306 121.363 27.8668 121.274 28.1805C121.207 28.4943 121.028 28.7296 120.738 28.8865C120.47 29.0658 120.012 29.1555 119.364 29.1555Z" fill="white"/>
<path d="M148.765 29.3906C148.184 29.3906 147.57 29.3233 146.922 29.1889C146.274 29.0768 145.649 28.9087 145.046 28.6846C144.443 28.4381 143.918 28.1579 143.471 27.8442C143.046 27.508 142.778 27.1382 142.667 26.7348C142.577 26.5107 142.544 26.2978 142.566 26.0961C142.589 25.8719 142.656 25.6478 142.767 25.4237C142.879 25.1772 143.046 24.9306 143.27 24.6841C143.471 24.4376 143.672 24.3031 143.873 24.2807C144.096 24.2359 144.376 24.3031 144.711 24.4824C145.001 24.5945 145.314 24.7401 145.649 24.9194C146.006 25.0987 146.364 25.278 146.721 25.4573C147.101 25.6366 147.481 25.7823 147.86 25.8944C148.262 26.0064 148.653 26.0624 149.033 26.0624C149.86 26.0624 150.519 25.928 151.01 25.659C151.501 25.3677 151.747 24.9643 151.747 24.4488C151.747 24.1574 151.669 23.8997 151.513 23.6756C151.356 23.4515 151.144 23.2722 150.876 23.1377C150.63 22.9808 150.329 22.8464 149.971 22.7343C149.636 22.5998 149.268 22.4878 148.866 22.3981C148.486 22.2861 148.084 22.1628 147.659 22.0283C147.101 21.8714 146.542 21.6809 145.984 21.4568C145.426 21.2327 144.923 20.9414 144.476 20.5828C144.052 20.2242 143.705 19.7759 143.437 19.2381C143.169 18.7002 143.035 18.0278 143.035 17.221C143.035 16.2125 143.27 15.3608 143.739 14.6661C144.23 13.9489 144.934 13.3998 145.85 13.0188C146.766 12.6378 147.872 12.4473 149.167 12.4473C149.614 12.4473 150.038 12.4809 150.44 12.5482C150.865 12.6154 151.267 12.7163 151.647 12.8507C152.049 12.9628 152.428 13.1085 152.786 13.2878C153.166 13.467 153.523 13.6688 153.858 13.8929C154.417 14.2066 154.707 14.5764 154.729 15.0022C154.752 15.4057 154.595 15.8427 154.26 16.3133C154.015 16.6271 153.769 16.8512 153.523 16.9857C153.277 17.0977 153.02 17.0977 152.752 16.9857C152.395 16.8064 152.004 16.6159 151.58 16.4142C151.178 16.1901 150.753 15.9996 150.306 15.8427C149.882 15.6858 149.435 15.6074 148.966 15.6074C148.519 15.6074 148.117 15.6746 147.76 15.8091C147.402 15.9435 147.134 16.134 146.956 16.3806C146.777 16.6271 146.688 16.9185 146.688 17.2546C146.688 17.5684 146.777 17.8261 146.956 18.0278C147.134 18.2295 147.369 18.3976 147.659 18.5321C147.95 18.6666 148.296 18.7898 148.698 18.9019C149.1 18.9915 149.525 19.0812 149.971 19.1708C150.597 19.3053 151.233 19.4734 151.881 19.6751C152.529 19.8768 153.121 20.1569 153.657 20.5155C154.216 20.8741 154.662 21.356 154.997 21.9611C155.332 22.5438 155.5 23.3058 155.5 24.2471C155.5 25.8831 154.897 27.1494 153.691 28.0459C152.507 28.9423 150.865 29.3906 148.765 29.3906Z" fill="white"/>
<path d="M134.056 10.1541C133.803 10.1541 133.62 10.1188 133.507 10.0482C133.395 9.97056 133.324 9.86821 133.296 9.74115C133.268 9.61409 133.254 9.48351 133.254 9.34939V3.55763C133.254 3.41646 133.265 3.28587 133.286 3.16587C133.314 3.04587 133.384 2.94704 133.497 2.8694C133.609 2.79175 133.796 2.75293 134.056 2.75293C134.324 2.75293 134.51 2.79175 134.616 2.8694C134.728 2.94704 134.795 3.04587 134.816 3.16587C134.844 3.28587 134.858 3.41646 134.858 3.55763V8.75645H137.75C137.87 8.75645 137.982 8.76704 138.088 8.78821C138.193 8.80939 138.278 8.86939 138.341 8.96821C138.411 9.06704 138.446 9.22939 138.446 9.45527C138.446 9.67409 138.411 9.83645 138.341 9.94233C138.271 10.0412 138.183 10.1012 138.077 10.1223C137.979 10.1435 137.87 10.1541 137.75 10.1541H134.056Z" fill="#FF4667"/>
<path d="M140.931 10.1542C140.678 10.1542 140.495 10.1154 140.382 10.0377C140.277 9.96013 140.21 9.8613 140.182 9.7413C140.154 9.61424 140.14 9.48013 140.14 9.33895V3.54719C140.14 3.41308 140.154 3.28955 140.182 3.17661C140.21 3.05661 140.28 2.95778 140.393 2.88014C140.505 2.80249 140.692 2.76367 140.952 2.76367C141.128 2.76367 141.262 2.77425 141.353 2.79543C141.445 2.81661 141.511 2.84837 141.554 2.89072C141.596 2.92602 141.642 2.96837 141.691 3.01778L144.065 6.2366H143.907L146.292 3.01778C146.348 2.94719 146.405 2.89425 146.461 2.85896C146.517 2.82366 146.588 2.79896 146.672 2.78484C146.764 2.77072 146.89 2.76367 147.052 2.76367C147.305 2.76367 147.488 2.80249 147.601 2.88014C147.713 2.95778 147.784 3.06014 147.812 3.18719C147.84 3.30719 147.854 3.43425 147.854 3.56837V9.36013C147.854 9.49424 147.84 9.6213 147.812 9.7413C147.784 9.8613 147.713 9.96013 147.601 10.0377C147.488 10.1154 147.302 10.1542 147.041 10.1542C146.788 10.1542 146.605 10.1154 146.493 10.0377C146.38 9.96013 146.31 9.85777 146.282 9.73071C146.253 9.60366 146.239 9.47307 146.239 9.33895V5.55896L144.667 7.79307C144.639 7.82836 144.6 7.87778 144.551 7.94131C144.502 7.99778 144.431 8.04719 144.34 8.08954C144.255 8.13189 144.139 8.15307 143.992 8.15307C143.837 8.15307 143.714 8.13189 143.622 8.08954C143.538 8.04719 143.471 7.99778 143.422 7.94131C143.372 7.88483 143.33 7.83542 143.295 7.79307L141.733 5.56954V9.36013C141.733 9.49424 141.719 9.6213 141.691 9.7413C141.663 9.8613 141.592 9.96013 141.48 10.0377C141.374 10.1154 141.191 10.1542 140.931 10.1542Z" fill="#FF4667"/>
<path d="M152.207 10.2602C151.834 10.2602 151.507 10.2143 151.225 10.1225C150.951 10.0308 150.715 9.92141 150.518 9.79435C150.328 9.66024 150.177 9.52965 150.065 9.40259C149.952 9.27553 149.875 9.18024 149.832 9.11671C149.713 8.96141 149.639 8.8273 149.611 8.71435C149.583 8.59435 149.597 8.47436 149.653 8.35436C149.716 8.23436 149.822 8.10377 149.97 7.96259C150.117 7.83553 150.255 7.76847 150.381 7.76142C150.515 7.7473 150.645 7.77906 150.772 7.85671C150.898 7.93436 151.021 8.04377 151.141 8.18494C151.31 8.38965 151.475 8.53436 151.637 8.61906C151.806 8.69671 151.982 8.73553 152.165 8.73553C152.397 8.73553 152.594 8.7073 152.756 8.65083C152.917 8.59436 153.041 8.50612 153.125 8.38612C153.209 8.25906 153.252 8.10024 153.252 7.90965C153.252 7.75436 153.192 7.63083 153.072 7.53906C152.96 7.44024 152.805 7.35553 152.608 7.28495C152.418 7.21436 152.203 7.1473 151.964 7.08377C151.732 7.01318 151.5 6.93201 151.268 6.84024C151.106 6.78377 150.951 6.71318 150.803 6.62848C150.656 6.54377 150.515 6.44848 150.381 6.34259C150.247 6.23671 150.131 6.10965 150.033 5.96142C149.941 5.81318 149.868 5.64377 149.811 5.45318C149.762 5.2626 149.737 5.04377 149.737 4.79671C149.737 4.38024 149.839 4.00966 150.043 3.68495C150.247 3.36025 150.529 3.10613 150.888 2.9226C151.254 2.73201 151.672 2.63672 152.144 2.63672C152.46 2.63672 152.735 2.66495 152.967 2.72142C153.206 2.77789 153.406 2.84495 153.568 2.9226C153.73 3.00025 153.857 3.07789 153.948 3.15554C154.047 3.22613 154.114 3.2826 154.149 3.32495C154.346 3.50848 154.455 3.6673 154.476 3.80142C154.497 3.92848 154.423 4.10848 154.254 4.34142C154.078 4.58848 153.902 4.72613 153.727 4.75436C153.558 4.7826 153.364 4.7226 153.146 4.57436C153.062 4.49671 152.977 4.42613 152.893 4.3626C152.808 4.29907 152.706 4.24966 152.587 4.21436C152.474 4.17201 152.323 4.15083 152.133 4.15083C152.02 4.15083 151.915 4.16848 151.816 4.20377C151.718 4.23201 151.633 4.27436 151.563 4.33083C151.493 4.3873 151.436 4.45789 151.394 4.5426C151.352 4.62024 151.331 4.70848 151.331 4.8073C151.331 4.96965 151.384 5.10024 151.489 5.19907C151.602 5.29789 151.746 5.37907 151.922 5.4426C152.105 5.49907 152.305 5.55554 152.523 5.61201C152.749 5.66142 152.977 5.72142 153.209 5.79201C153.421 5.86259 153.625 5.95083 153.822 6.05671C154.019 6.15554 154.194 6.28259 154.349 6.43789C154.504 6.59318 154.627 6.7873 154.719 7.02024C154.817 7.25318 154.866 7.53906 154.866 7.87789C154.866 8.30141 154.785 8.66494 154.624 8.96847C154.462 9.272 154.247 9.51906 153.98 9.70965C153.713 9.90024 153.424 10.0378 153.114 10.1225C152.805 10.2143 152.502 10.2602 152.207 10.2602Z" fill="#FF4667"/>
<path d="M35.7836 14.375V21.3776C35.7836 22.4004 35.3046 23.351 34.5159 23.8871C33.8529 24.3378 32.9602 24.912 31.9053 25.5104V14.375H35.7836Z" fill="#FF4667"/>
<path d="M31.7075 14.375V25.5595C28.8644 27.1829 24.8496 28.983 21.0387 28.983C15.8156 28.983 10.2096 25.6002 7.75937 23.9296C6.97066 23.3914 6.4917 22.4369 6.4917 21.41V14.375H31.7075Z" fill="#FF4667"/>
<path d="M35.5901 14.2286V21.0678C35.5901 22.07 35.111 23.0011 34.3225 23.5257C31.8725 25.1558 26.2667 28.4564 21.0431 28.4564C15.8196 28.4564 10.2139 25.1558 7.76374 23.5257C6.97523 23.0011 6.49617 22.07 6.49617 21.0678V14.2286H35.5901ZM36.3818 13.4336H5.70459V21.0678C5.70459 22.3461 6.31092 23.5128 7.32654 24.1885C8.61737 25.0474 10.6579 26.2898 13.0482 27.3317C15.9709 28.6056 18.6607 29.2515 21.0431 29.2515C23.4256 29.2515 26.1154 28.6056 29.0381 27.3317C31.4283 26.2898 33.4689 25.0473 34.7597 24.1885C35.7753 23.5128 36.3818 22.3461 36.3818 21.0678V13.4336Z" fill="#FF4667"/>
<path d="M31.3405 27.1816C30.5994 27.2716 29.9167 27.6308 29.4212 28.1916C28.9257 28.7523 28.6516 29.4758 28.6509 30.2255V32.9304C28.6509 34.0271 29.2333 35.0405 30.1792 35.5888C31.1248 36.1372 32.29 36.1372 33.2356 35.5888C34.1814 35.0405 34.764 34.0271 34.764 32.9304V30.2255C34.7632 29.4758 34.4891 28.7523 33.9937 28.1916C33.4982 27.6308 32.8155 27.2716 32.0744 27.1816" fill="white"/>
<path d="M34.0303 30.5864H29.3848V30.2585C29.3848 28.9701 30.4248 27.9258 31.7075 27.9258C32.9903 27.9258 34.0302 28.9702 34.0302 30.2585L34.0303 30.5864Z" fill="white"/>
<path d="M39.5255 13.3224L21.932 21.7344C21.3395 22.0176 20.6514 22.0169 20.0595 21.7324L2.36984 13.2292C0.729888 12.4409 0.721181 10.0993 2.3552 9.29865L20.0353 0.636056C20.6407 0.339392 21.3489 0.341479 21.9527 0.641721L39.5558 9.39565C41.1816 10.2041 41.1636 12.5393 39.5255 13.3224Z" fill="white"/>
<path d="M20.9881 0.780971C21.2306 0.780971 21.4729 0.835443 21.6959 0.944389L39.7158 9.74651C40.9089 10.3293 40.8958 12.0126 39.6936 12.5772L21.6808 21.0369C21.464 21.1387 21.2296 21.1897 20.9952 21.1897C20.7597 21.1897 20.5244 21.1383 20.3067 21.0355L2.19806 12.4854C0.994519 11.9171 0.988185 10.2292 2.18728 9.65202L20.2887 0.940289C20.5094 0.834077 20.7488 0.780971 20.9881 0.780971ZM20.9881 0C20.6274 0 20.2656 0.08249 19.9416 0.238391L1.84023 8.95012C1.01005 9.34968 0.496554 10.1638 0.500017 11.0749C0.503481 11.986 1.02312 12.7964 1.85626 13.1898L19.9648 21.7399C20.2845 21.8908 20.6408 21.9706 20.9951 21.9706C21.3478 21.9706 21.7026 21.8915 22.021 21.7419L40.0338 13.2823C40.866 12.8914 41.3874 12.0839 41.3945 11.1746C41.4017 10.2655 40.893 9.45004 40.067 9.04657L22.0472 0.244541C21.7197 0.0845401 21.3535 0 20.9881 0Z" fill="white"/>
</g>
</g>
</g>
<defs>
<clipPath id="clip0_40_355">
<rect width="156" height="36" fill="white"/>
</clipPath>
<clipPath id="clip1_40_355">
<rect width="156" height="36" fill="white"/>
</clipPath>
<clipPath id="clip2_40_355">
<rect width="156" height="36" fill="white"/>
</clipPath>
</defs>
</svg>
