<svg width="23" height="23" viewBox="0 0 23 23" fill="none" xmlns="http://www.w3.org/2000/svg">
<g clip-path="url(#clip0_31_853)">
<g clip-path="url(#clip1_31_853)">
<path opacity="0.4" d="M11.8165 5.34017V19.8237C11.6629 19.8237 11.5003 19.7966 11.3738 19.7243L11.3377 19.7062C9.60288 18.7575 6.57606 17.7637 4.61541 17.5016L4.35339 17.4655C3.486 17.3571 2.78125 16.5439 2.78125 15.6765V4.76191C2.78125 3.68671 3.65767 2.87354 4.73287 2.96389C6.63028 3.11749 9.50349 4.07523 11.1118 5.07814L11.3377 5.21367C11.4732 5.29499 11.6449 5.34017 11.8165 5.34017Z" fill="#F66962"/>
<path d="M20.8517 4.77077V15.6763C20.8517 16.5437 20.1469 17.3569 19.2795 17.4653L18.9814 17.5015C17.0117 17.7635 13.9758 18.7664 12.2411 19.7241C12.1236 19.7964 11.979 19.8235 11.8164 19.8235V5.33999C11.9881 5.33999 12.1597 5.29481 12.2953 5.21349L12.4489 5.11411C14.0572 4.10216 16.9394 3.13538 18.8368 2.97275H18.891C19.9662 2.88239 20.8517 3.68653 20.8517 4.77077Z" fill="#F66962"/>
<path d="M7.97621 8.90021H5.94327C5.57282 8.90021 5.26562 8.59301 5.26562 8.22257C5.26562 7.85212 5.57282 7.54492 5.94327 7.54492H7.97621C8.34665 7.54492 8.65385 7.85212 8.65385 8.22257C8.65385 8.59301 8.34665 8.90021 7.97621 8.90021Z" fill="#F66962"/>
<path d="M8.65385 11.6102H5.94327C5.57282 11.6102 5.26562 11.303 5.26562 10.9325C5.26562 10.5621 5.57282 10.2549 5.94327 10.2549H8.65385C9.0243 10.2549 9.3315 10.5621 9.3315 10.9325C9.3315 11.303 9.0243 11.6102 8.65385 11.6102Z" fill="#F66962"/>
</g>
</g>
<defs>
<clipPath id="clip0_31_853">
<rect width="21.6847" height="21.6847" fill="white" transform="translate(0.974121 0.550781)"/>
</clipPath>
<clipPath id="clip1_31_853">
<rect width="21.6847" height="21.6847" fill="white" transform="translate(0.974121 0.550781)"/>
</clipPath>
</defs>
</svg>
