<svg width="15" height="16" viewBox="0 0 15 16" fill="none" xmlns="http://www.w3.org/2000/svg">
<path d="M10.1432 14.2021C10.4349 14.2021 10.6844 14.0986 10.8914 13.8916C11.0985 13.6845 11.202 13.4351 11.202 13.1433C11.202 12.8516 11.0985 12.6045 10.8914 12.4022C10.6844 12.1998 10.4349 12.0986 10.1432 12.0986C9.85142 12.0986 9.60436 12.1998 9.40201 12.4022C9.19965 12.6045 9.09848 12.8516 9.09848 13.1433C9.09848 13.4351 9.19965 13.6845 9.40201 13.8916C9.60436 14.0986 9.85142 14.2021 10.1432 14.2021ZM5.32908 14.2021C5.62084 14.2021 5.87025 14.0986 6.07731 13.8916C6.28437 13.6845 6.3879 13.4351 6.3879 13.1433C6.3879 12.8516 6.28437 12.6045 6.07731 12.4022C5.87025 12.1998 5.62084 12.0986 5.32908 12.0986C5.03731 12.0986 4.7879 12.1998 4.58084 12.4022C4.37378 12.6045 4.27026 12.8516 4.27026 13.1433C4.27026 13.4351 4.37378 13.6845 4.58084 13.8916C4.7879 14.0986 5.03731 14.2021 5.32908 14.2021ZM3.28202 3.021L3.15496 4.50335C3.14555 4.64452 3.1879 4.76452 3.28202 4.86335C3.37614 4.96217 3.49379 5.01158 3.63496 5.01158H12.8538C12.9855 5.01158 13.0985 4.96923 13.1926 4.88452C13.2867 4.79982 13.3338 4.69629 13.3338 4.57394C13.3808 4.03747 13.2279 3.581 12.8749 3.20453C12.522 2.82806 12.0773 2.63982 11.5408 2.63982H4.1432C4.10555 2.50806 4.05614 2.37865 3.99496 2.25159C3.93379 2.12453 3.85614 2.00924 3.76202 1.90571C3.61143 1.74571 3.43732 1.621 3.23967 1.53159C3.04202 1.44218 2.83496 1.39747 2.61849 1.39747H1.55967C1.43732 1.39747 1.33144 1.44218 1.24203 1.53159C1.15262 1.621 1.10791 1.72688 1.10791 1.84924C1.10791 1.97159 1.15262 2.07747 1.24203 2.16688C1.33144 2.2563 1.43732 2.301 1.55967 2.301H2.61849C2.7032 2.301 2.78791 2.31982 2.87261 2.35747C2.95732 2.39512 3.03261 2.44688 3.09849 2.51276C3.16438 2.58806 3.21143 2.66806 3.23967 2.75276C3.2679 2.83747 3.28202 2.92688 3.28202 3.021ZM12.7126 5.91511H3.47967C3.3479 5.91511 3.23732 5.95746 3.14791 6.04217C3.05849 6.12687 3.00438 6.2304 2.98555 6.35276L2.77379 8.97863C2.73614 9.49628 2.89144 9.94334 3.23967 10.3198C3.5879 10.6963 4.01614 10.8845 4.52437 10.8845H11.2302C11.682 10.8845 12.0796 10.7245 12.4232 10.4045C12.7667 10.0845 12.9573 9.69863 12.9949 9.24687L13.1926 6.43746C13.202 6.29629 13.1596 6.17393 13.0655 6.0704C12.9714 5.96687 12.8538 5.91511 12.7126 5.91511Z" fill="white"/>
</svg>
