<svg width="22" height="23" viewBox="0 0 22 23" fill="none" xmlns="http://www.w3.org/2000/svg">
<g clip-path="url(#clip0_31_861)">
<g clip-path="url(#clip1_31_861)">
<path d="M10.9599 12.9745C10.5894 12.9745 10.2822 12.6673 10.2822 12.2968V7.77921C10.2822 7.40876 10.5894 7.10156 10.9599 7.10156C11.3303 7.10156 11.6375 7.40876 11.6375 7.77921V12.2968C11.6375 12.6673 11.3303 12.9745 10.9599 12.9745Z" fill="#392C7D"/>
<path d="M13.5707 3.66851H8.34829C7.98688 3.66851 7.69775 3.37938 7.69775 3.01797C7.69775 2.65656 7.98688 2.3584 8.34829 2.3584H13.5707C13.9321 2.3584 14.2212 2.64753 14.2212 3.00894C14.2212 3.37035 13.9321 3.66851 13.5707 3.66851Z" fill="#392C7D"/>
<path opacity="0.4" d="M13.6706 18.5947V15.9384C13.6706 14.7909 14.3573 14.1042 15.5048 14.1042H18.1612C18.3328 14.1042 18.4864 14.1223 18.64 14.1584C18.7394 13.6524 18.7936 13.1284 18.7936 12.5953C18.7936 8.27644 15.2789 4.76172 10.9601 4.76172C6.64119 4.76172 3.12646 8.27644 3.12646 12.5953C3.12646 16.9142 6.64119 20.4289 10.9601 20.4289C12.0533 20.4289 13.0924 20.203 14.0411 19.7964C13.8062 19.4892 13.6706 19.0917 13.6706 18.5947Z" fill="#392C7D"/>
<path d="M18.1609 14.1035H15.5046C14.3571 14.1035 13.6704 14.7902 13.6704 15.9377V18.594C13.6704 19.7415 14.3571 20.4282 15.5046 20.4282H18.1609C19.3084 20.4282 19.9951 19.7415 19.9951 18.594V15.9377C19.9951 14.7902 19.3084 14.1035 18.1609 14.1035ZM17.908 18.1332L16.8418 18.7476C16.6249 18.8741 16.4081 18.9374 16.2093 18.9374C16.0557 18.9374 15.9202 18.9012 15.7937 18.829C15.5046 18.6573 15.3419 18.323 15.3419 17.8803V16.6515C15.3419 16.2087 15.5046 15.8744 15.7937 15.7028C16.0828 15.5311 16.4533 15.5672 16.8418 15.7841L17.908 16.3985C18.2874 16.6244 18.5043 16.9316 18.5043 17.2659C18.5043 17.6002 18.2965 17.9074 17.908 18.1332Z" fill="#392C7D"/>
</g>
</g>
<defs>
<clipPath id="clip0_31_861">
<rect width="21.6847" height="21.6847" fill="white" transform="translate(0.117676 0.550781)"/>
</clipPath>
<clipPath id="clip1_31_861">
<rect width="21.6847" height="21.6847" fill="white" transform="translate(0.117676 0.550781)"/>
</clipPath>
</defs>
</svg>
