<svg width="20" height="21" viewBox="0 0 20 21" fill="none" xmlns="http://www.w3.org/2000/svg">
<path d="M19.0004 5.05078H1V19.5159H19.0004V5.05078Z" stroke="black" stroke-width="1.20001" stroke-miterlimit="10" stroke-linejoin="round"/>
<path d="M19.0004 5.05078H1V8.66707C1 9.99847 2.07462 11.0779 3.40006 11.0779H16.6004C17.9258 11.0779 19.0004 9.99847 19.0004 8.66707V5.05078Z" stroke="black" stroke-width="1.20001" stroke-miterlimit="10" stroke-linejoin="round"/>
<path d="M5.20117 5.04988V2.63902C5.20117 1.97302 5.73818 1.43359 6.4012 1.43359H13.6014C14.2644 1.43359 14.8014 1.97302 14.8014 2.63902V5.04988" stroke="black" stroke-width="1.20001" stroke-miterlimit="10" stroke-linejoin="round"/>
<path d="M10.0008 13.4897C9.33779 13.4897 8.80078 12.9503 8.80078 12.2843V9.8734C8.80078 9.2074 9.33779 8.66797 10.0008 8.66797C10.6638 8.66797 11.2008 9.2074 11.2008 9.8734V12.2843C11.2008 12.9503 10.6638 13.4897 10.0008 13.4897Z" stroke="black" stroke-width="1.20001" stroke-miterlimit="10" stroke-linejoin="round"/>
<path d="M11.2008 11.0781H8.80078" stroke="black" stroke-width="1.20001" stroke-miterlimit="10" stroke-linejoin="round"/>
</svg>
